<svg width="180" height="187" viewBox="0 0 180 187" fill="none" xmlns="http://www.w3.org/2000/svg">
<path d="M137.741 80.4974C145.1 66.3182 152.459 52.1775 159.78 37.9982C147.142 40.5027 134.543 43.0072 121.905 45.5117C119.747 45.9355 117.32 46.3208 115.509 45.0878C114.199 44.2016 113.544 42.6604 112.85 41.2733C110.153 35.8791 106.146 31.1783 101.252 27.6721C97.2453 24.8208 91.9281 22.7401 87.5356 24.8593C85.9173 25.6299 84.5688 26.94 82.989 27.7877C77.5948 30.793 70.8905 28.5197 65.265 26.0538C59.601 23.5878 53.2049 20.9292 47.5024 23.3181C45.4988 24.1658 43.8035 25.5529 41.9926 26.7474C34.4021 31.7949 24.6539 33.6829 18.4119 40.3486C13.2874 45.7814 11.4379 54.027 13.7112 61.1551C17.6028 73.3307 31.9747 80.7286 33.5544 93.4051C33.8627 95.794 33.67 98.2214 34.0168 100.61C35.1727 108.008 41.8385 113.672 49.0822 115.56C56.326 117.448 64.0321 116.177 71.2373 114.096C92.3134 107.97 111.27 94.7537 124.255 77.0296" fill="#DBE4FE"/>
<path d="M23.266 118.101C23.343 113.862 23.7669 109.74 24.7301 105.617C26.3099 98.6813 29.2382 92.0156 33.1683 86.0819C36.4434 81.15 40.4891 76.6804 45.1128 72.9815C45.0357 69.167 44.9201 65.391 44.6504 61.615C44.2651 61.7306 43.8798 61.7691 43.4945 61.7691C42.878 61.7691 42.3 61.6535 41.7221 61.3838C39.9111 60.4976 38.9093 58.2243 39.5644 56.2978C39.9497 55.1804 40.7973 54.2942 41.8762 53.7933C38.8708 51.3274 35.7498 45.2781 38.2543 42.0415C41.6065 37.7261 45.9219 39.4599 46.8081 33.6418C49.7364 35.106 50.0447 39.1903 49.0814 40.6929C48.7732 41.1553 48.4649 41.502 48.1182 41.8103C49.197 41.8488 50.2758 42.1186 51.2776 42.5039C53.0115 43.1974 54.7069 44.0451 56.4022 44.8157C59.6773 46.3184 62.9524 47.8981 66.2275 49.3623C66.5743 49.5164 66.6128 50.0558 66.343 50.287C64.455 51.9823 62.5671 53.6392 60.6406 55.3345C62.1818 58.9949 63.6844 62.6553 65.1871 66.3157C65.4183 66.8551 65.611 67.3946 65.8422 67.934C65.8807 67.8955 65.9578 67.8569 66.0348 67.8569C74.7042 66.2001 81.8323 64.9286 90.5017 63.3103C94.7786 62.5012 99.0554 61.5764 103.409 61.0755C107.339 60.6132 111.347 60.6132 115.2 61.6535C116.548 62.0388 117.858 62.5398 119.091 63.1562C119.207 63.0406 119.322 62.9636 119.4 62.848C119.438 62.8094 119.438 62.7324 119.515 62.6939C120.517 61.615 122.174 61.3067 123.561 61.7691C123.715 61.8076 123.869 61.8847 124.023 61.9618C124.293 61.615 124.64 61.3453 125.025 61.1527C125.988 60.7288 127.106 60.9215 127.992 61.4224C129.379 60.5362 131.19 60.5362 132.654 61.3453C133.425 60.8059 134.426 60.6517 135.313 60.9985C136.353 61.3838 137.085 62.3086 137.47 63.3489L163.825 57.2611C165.482 56.8757 167.139 57.4922 168.179 58.8023C169.219 60.1508 169.374 61.8847 168.603 63.3874L140.36 117.87C141.208 118.216 142.055 118.602 142.865 118.987C144.714 119.835 146.525 120.682 148.374 121.607C148.49 121.646 148.567 121.761 148.606 121.877C151.842 118.024 156.389 115.249 161.321 114.132C158.932 122.84 156.543 131.509 154.193 140.217C151.996 140.757 149.762 141.335 147.565 141.065C146.024 140.872 144.521 140.256 143.443 139.215C138.934 139.1 134.426 138.753 129.957 138.137L126.374 145.034C125.641 146.459 124.177 147.345 122.559 147.345H122.52C120.902 147.345 119.438 146.421 118.706 144.995L113.504 134.592C111.077 133.898 108.688 133.089 106.338 132.241C105.837 132.049 105.297 131.856 104.796 131.663C104.219 134.052 103.525 136.441 102.754 138.792C100.481 145.573 97.4371 152.085 93.6612 158.134C93.1988 158.905 92.6979 159.637 92.197 160.407C92.0429 160.638 91.8117 160.715 91.542 160.677C91.3108 160.638 91.0796 160.6 90.8099 160.561C92.6594 164.915 93.6611 169.654 93.6997 174.355C93.6997 174.74 93.6611 175.203 93.3144 175.434C92.9291 175.704 92.3896 175.395 92.0043 175.126C84.9918 170.001 77.9792 164.915 70.9667 159.791C70.5814 159.482 70.1576 159.213 69.8879 158.789C68.9631 157.325 70.2346 155.475 71.4291 154.242C71.8144 153.818 72.2382 153.433 72.662 153.009C72.3153 152.778 72.007 152.547 71.6603 152.316C71.5061 152.2 71.3905 152.007 71.3905 151.815L54.5912 164.723C53.8206 165.301 52.8959 165.609 51.9712 165.609C50.7768 165.609 49.6208 165.146 48.7732 164.222L34.7866 148.81C33.9774 147.923 33.5922 146.806 33.6692 145.611C33.7463 144.417 34.2857 143.377 35.2104 142.606L58.6369 123.148C58.059 122.917 57.481 122.686 56.9031 122.416C55.9398 123.264 54.7839 123.919 53.5509 124.343C52.7033 124.651 51.8171 124.805 50.8923 124.882C49.9676 124.959 49.0043 124.844 48.0796 124.921C47.1163 124.998 46.2687 125.306 45.5751 125.999C44.9201 126.654 44.3807 127.425 43.6871 128.08C42.3386 129.313 40.6047 130.122 38.8323 130.508C35.0177 131.278 30.7024 130.122 27.5429 127.887C26.0787 126.847 24.7687 125.46 24.0366 123.803C23.343 121.838 23.2275 119.95 23.266 118.101ZM56.2866 46.0102C54.6683 45.2396 53.05 44.5075 51.4318 43.7754C49.9291 43.1204 48.2337 42.6966 46.5769 43.0433C46.4613 43.0819 46.3843 43.0433 46.3072 43.0433C45.0357 43.814 43.9954 44.5074 44.3036 47.0119C44.5733 48.8999 45.999 50.9035 44.4963 53.408L44.3036 53.485C44.6119 53.5621 44.843 53.8318 44.766 54.14C44.6889 54.4483 44.4192 54.6796 44.111 54.6025C42.6853 54.3328 41.1056 55.296 40.6432 56.6445C40.1809 58.0316 40.9129 59.727 42.223 60.3435C43.533 60.96 45.3054 60.4976 46.1145 59.2646C46.3072 58.9949 46.654 58.9179 46.9237 59.1105C47.1934 59.3032 47.2705 59.6499 47.0778 59.9196C46.731 60.4205 46.2687 60.8444 45.7678 61.1527C46.076 65.3525 46.2301 69.5908 46.2687 73.8292C46.3457 73.675 46.4998 73.5979 46.731 73.5979C50.2373 73.7135 53.7821 73.5595 57.2884 73.1742C59.9855 72.8659 63.8386 72.4806 64.9174 69.4367C64.956 69.3211 65.033 69.2055 65.1486 69.1669C63.4533 65.0056 61.7194 60.8444 59.9855 56.7217C59.7929 56.2593 59.6002 55.7583 59.4076 55.296C59.3305 55.1033 59.4076 54.8721 59.5617 54.718C61.3341 53.1383 63.1065 51.5971 64.9174 50.0173C61.9891 48.6687 59.1379 47.3202 56.2866 46.0102ZM120.363 63.3489C120.324 63.3874 120.324 63.426 120.286 63.4645C119.477 64.4278 118.398 65.0443 117.203 65.391C115.893 65.7378 114.468 65.8148 113.158 66.2001C112.58 66.3928 111.77 66.8166 111.809 67.5487C111.809 68.1652 112.503 68.5119 113.003 68.7046C114.352 69.2055 115.855 69.244 117.203 68.8202C117.897 68.589 118.513 68.2038 119.168 67.8955C119.785 67.6258 120.44 67.5102 121.018 67.8955C121.557 68.2808 121.788 68.9358 122.135 69.4752C122.52 70.0917 123.021 70.6697 123.561 71.1706C124.331 71.9027 126.104 72.9045 126.643 71.3633C126.836 70.8238 126.797 70.2458 126.759 69.7064C126.682 68.9358 126.566 68.2037 126.412 67.4331C126.104 65.8918 125.487 64.2736 124.177 63.3103C123.021 62.4627 121.365 62.3086 120.363 63.3489ZM126.104 61.9618C125.641 61.9618 125.218 62.1544 124.948 62.4627C125.718 63.0792 126.335 63.9268 126.759 64.8515C127.452 66.4313 127.799 68.2422 127.876 69.9375C127.876 70.2073 127.876 70.477 127.838 70.7467C128.107 71.132 128.416 71.4788 128.878 71.71C129.61 72.0953 130.381 71.8256 130.805 71.1706C131.305 70.4 131.228 69.4367 130.997 68.589C130.727 67.6257 130.342 66.6625 129.918 65.7378C129.533 64.8901 129.109 64.0424 128.531 63.3103C127.953 62.6168 127.106 61.9618 126.104 61.9618ZM128.917 62.0774C129.533 62.6939 129.995 63.4645 130.419 64.2351C131.074 65.4681 131.652 66.7396 132.038 68.0882C132.384 69.2441 132.5 70.4771 131.96 71.5559C132.577 71.6715 133.193 71.2476 133.54 70.7467C134.041 70.0146 134.272 69.0514 134.388 68.1652C134.658 66.3543 134.311 64.3506 133.001 63.0021C131.96 61.8847 130.265 61.4223 128.917 62.0774ZM135.39 62.2315C134.927 61.8461 134.195 61.7306 133.617 61.9618C135.197 63.4259 135.814 65.6607 135.621 67.8184C135.621 68.011 135.582 68.2422 135.544 68.4349C135.698 68.5505 135.813 68.589 135.929 68.5119C136.237 68.2422 136.276 67.5487 136.353 67.1634C136.469 66.4698 136.584 65.8148 136.584 65.1212C136.546 64.0809 136.237 62.8865 135.39 62.2315ZM132.808 137.212C136.045 137.597 139.281 137.79 142.518 137.905C142.518 137.79 142.595 137.636 142.633 137.52C142.942 136.711 143.25 135.902 143.558 135.093C144.098 133.667 144.598 132.203 145.099 130.739C145.562 129.313 146.024 127.849 146.409 126.423C146.641 125.614 146.833 124.844 147.026 124.034C147.141 123.495 147.334 122.956 147.411 122.416C144.907 121.183 142.364 119.989 139.782 118.871L130.419 136.942C131.19 136.981 131.999 137.096 132.808 137.212ZM112.695 133.012L109.613 126.886C109.189 126.038 108.418 125.46 107.532 125.229C107.031 125.113 106.492 125.113 105.991 125.267C105.683 126.963 105.374 128.658 104.989 130.353C107.494 131.317 110.075 132.203 112.695 133.012ZM72.585 151.352C78.1719 155.321 84.568 158.018 91.3108 159.251C95.0868 153.549 98.2078 147.384 100.558 140.988C102.369 136.094 103.718 131.047 104.681 125.922L72.9317 150.351C72.7776 150.698 72.7006 151.044 72.585 151.352ZM34.8251 145.457C34.7481 146.305 35.0563 147.153 35.6343 147.769L49.6208 163.181C50.6997 164.376 52.5491 164.53 53.8592 163.567L104.219 124.843C104.989 124.266 105.875 123.957 106.839 123.957C107.147 123.957 107.494 123.996 107.802 124.073C109.035 124.343 110.114 125.19 110.692 126.346L119.669 144.34C120.209 145.419 121.249 146.074 122.443 146.074C122.443 146.074 122.443 146.074 122.482 146.074C123.676 146.074 124.717 145.457 125.256 144.379L167.524 62.8094C168.102 61.7306 167.986 60.4205 167.216 59.4573C166.445 58.494 165.251 58.0317 164.056 58.3399L137.702 64.4278C137.779 65.2369 137.74 66.0075 137.624 66.8166C137.509 67.5487 137.432 68.3193 137.085 68.9743C136.738 69.5522 136.122 69.9375 135.428 69.7449C135.39 69.7449 135.351 69.7064 135.313 69.7064C134.85 71.3632 133.848 72.9815 131.96 72.7889C131.691 72.7503 131.46 72.6733 131.228 72.5962C130.727 73.02 130.111 73.2512 129.456 73.1742C128.724 73.0971 128.03 72.7503 127.529 72.2109C127.221 72.7889 126.759 73.2127 126.027 73.3283C124.37 73.6365 122.867 72.2494 121.904 71.0935C121.634 70.7852 121.403 70.4385 121.172 70.0917C120.979 69.745 120.825 69.3981 120.594 69.0899C120.093 68.4349 119.091 69.3596 118.552 69.5908C117.049 70.2844 115.315 70.477 113.697 70.1302C113.581 70.0917 113.427 70.0532 113.312 70.0147L71.6603 79.6087C70.4273 79.8785 69.5025 80.8417 69.2713 82.1132C69.0402 83.3847 69.5796 84.5792 70.6199 85.2727L85.4541 95.098C86.6101 95.8686 87.3036 97.063 87.3807 98.4501C87.4577 99.8372 86.8798 101.109 85.8395 101.995L36.0196 143.338C35.2875 143.839 34.8637 144.61 34.8251 145.457ZM84.6835 101.301C83.5276 101.301 82.3717 101.263 81.2544 101.263C78.4802 101.263 75.6674 101.301 72.8932 101.417C72.7006 101.995 72.3153 102.496 71.8529 102.881C72.585 103.575 72.9317 104.654 72.7006 105.655C72.4309 106.734 71.5061 107.505 70.4658 107.736C70.5044 108.006 70.4658 108.314 70.3502 108.584C70.0805 109.277 69.5025 109.662 68.8475 109.932C68.0384 110.24 67.1907 110.472 66.3816 110.664C65.5339 110.896 64.6477 111.088 63.8 111.242C62.7597 111.396 61.6423 111.473 60.5249 111.358C61.0644 114.749 60.1782 118.409 58.0205 121.068C57.9434 121.145 57.9049 121.222 57.8278 121.299C58.4443 121.568 59.0608 121.8 59.7158 122.031L84.6835 101.301ZM69.6181 98.296C69.2328 98.3346 68.9631 97.9108 69.0787 97.564C69.2713 96.7934 68.8861 95.9071 68.154 95.5603C67.7302 95.3291 67.2293 95.3677 66.8054 95.5219C66.7669 95.6374 66.6898 95.753 66.6513 95.8686C66.4972 96.1383 66.2274 96.1769 65.9963 96.0998C65.8807 96.2154 65.7265 96.2539 65.611 96.2539C65.1871 96.4851 64.7633 96.7163 64.301 96.9475C64.1468 97.0245 64.0312 97.063 63.8386 97.0245C63.723 96.986 63.5688 96.8704 63.4918 96.7548C63.3762 96.4851 63.4147 96.0998 63.6844 95.9456C64.3394 95.6374 64.9174 95.3292 65.5339 94.9439C65.611 94.8668 65.688 94.8282 65.8036 94.7897C65.8036 94.0962 65.0715 93.4412 64.378 93.3641C63.068 93.1715 61.6809 94.0191 60.6406 94.7127C58.4829 96.0998 56.5563 98.0648 55.4389 100.415C54.3986 102.573 54.2059 105.232 55.4004 107.351C56.6334 109.508 59.1379 110.395 61.4882 110.395C63.145 110.395 64.7633 110.009 66.343 109.585C67.0366 109.393 67.8072 109.239 68.5007 108.93C68.886 108.776 69.6952 108.198 69.2328 107.697C68.9246 107.351 69.1172 106.657 69.6567 106.696C70.5043 106.773 71.3906 106.272 71.6217 105.386C71.8144 104.576 71.3135 103.767 70.5814 103.421C70.0805 103.189 70.3117 102.534 70.7355 102.38C71.6217 101.995 72.1611 100.916 71.9685 99.9913C71.6602 98.8739 70.6199 98.219 69.6181 98.296ZM24.4219 119.372C24.499 121.145 24.8457 122.917 25.886 124.381C27.9667 127.309 31.8583 129.005 35.3645 129.313C37.214 129.467 39.102 129.236 40.7974 128.427C41.6065 128.042 42.3386 127.579 42.9936 126.963C43.6486 126.346 44.1495 125.614 44.766 124.998C45.421 124.343 46.1531 123.88 47.0778 123.688C47.964 123.495 48.8887 123.534 49.7749 123.534C51.5859 123.572 53.2427 123.225 54.8224 122.339C57.8663 120.567 59.4846 117.099 59.5617 113.708C59.6002 112.899 59.5232 112.051 59.369 111.242C57.8278 110.934 56.4022 110.279 55.2848 109.046C53.7436 107.351 53.2041 105.077 53.4739 102.881C50.1602 101.61 46.3457 101.687 43.0321 102.958C42.878 103.536 42.7239 104.076 42.6083 104.654C42.3 105.809 41.9533 107.081 41.0671 107.929C40.2964 108.622 39.1791 108.853 38.2158 108.468C37.214 108.044 36.7131 107.004 37.137 106.002C37.5993 104.846 38.8323 104.037 39.8341 103.382C40.5662 102.92 41.3368 102.496 42.1074 102.149C42.7238 99.7217 43.3403 97.2943 43.9954 94.8669C44.188 94.1348 45.3054 94.4429 45.1128 95.175C44.5733 97.3327 43.9954 99.4905 43.4559 101.648C44.5348 101.301 45.6907 101.032 46.8081 100.916C49.1585 100.646 51.5474 100.955 53.7436 101.764C53.8207 101.378 53.9363 101.032 54.0904 100.646C55.2463 97.6796 57.5966 95.2136 60.2938 93.5183C61.7194 92.6321 63.6459 91.6303 65.3413 92.3624C66.1504 92.7091 66.7669 93.4798 66.921 94.2889C67.5375 94.1733 68.1925 94.2503 68.7705 94.5586C69.7337 95.0595 70.2732 96.0998 70.2732 97.1401C71.6217 97.3328 72.8162 98.3345 73.0859 99.7216C73.1244 99.9143 73.1244 100.068 73.1244 100.261C75.0894 100.184 77.016 100.146 78.9811 100.146C81.2544 100.146 83.4891 100.145 85.7624 100.223C86.0707 99.7217 86.1862 99.1052 86.1862 98.4887C86.1477 97.4869 85.6083 96.6007 84.7991 96.0612L69.9649 86.236C68.5008 85.2727 67.8072 83.6159 68.1154 81.882C68.4237 80.1867 69.6567 78.8767 71.352 78.4528L111.578 69.1669C110.961 68.7046 110.537 68.0496 110.692 67.1634C111.077 65.1213 113.504 64.9287 115.123 64.6204C116.163 64.4278 117.126 64.235 118.012 63.7727C113.851 61.8461 108.842 61.538 104.373 62.0003C100.096 62.4242 95.8959 63.3488 91.6961 64.158C87.4963 64.9671 83.2579 65.7763 79.0581 66.5469C74.3188 67.4331 71.1208 67.9726 66.3816 68.8588C66.343 68.8588 66.3431 68.8588 66.3045 68.8588C66.3816 69.0129 66.4201 69.167 66.4972 69.3211C66.6898 69.745 66.3045 70.0147 65.9192 70.0147C64.6092 73.0201 61.2185 73.7907 58.2516 74.1374C54.4371 74.6383 50.5841 74.7924 46.7696 74.6768C46.3843 74.6768 46.1916 74.3686 46.2301 74.0604C46.0375 74.2916 45.6522 74.3686 45.421 74.1759C41.8762 77.1042 38.6782 80.4564 35.904 84.1554C31.8583 89.6267 28.7373 95.7915 26.8108 102.303C25.6934 106.041 24.8843 109.932 24.6146 113.824C24.4604 115.712 24.3448 117.561 24.4219 119.372ZM41.645 103.575C40.412 104.23 37.0599 106.195 38.2929 107.235C38.9094 107.736 39.8341 107.505 40.2964 106.965C41.0285 106.195 41.2212 105.077 41.4909 104.076C41.5679 103.883 41.6065 103.729 41.645 103.575ZM46.0375 56.2592C44.6504 55.6427 43.1092 55.6813 41.7606 56.3748C41.4909 56.529 41.4138 56.9143 41.568 57.184C41.7221 57.4537 42.1074 57.5308 42.3771 57.3767C42.8395 57.1455 43.4174 56.9914 43.9183 56.9914C44.0724 56.9914 44.2265 56.9914 44.3807 56.9914C44.4192 56.9914 44.4963 56.9914 44.5348 56.9914L44.6889 57.0298C44.8431 57.0684 44.9586 57.1069 45.1128 57.1454C45.1898 57.184 45.2669 57.184 45.3439 57.2225C45.3825 57.2225 45.421 57.2611 45.4595 57.2611C45.421 57.2225 45.421 57.2611 45.4981 57.2611C45.8063 57.3766 46.1145 57.3381 46.3072 57.0684C46.3843 56.7987 46.3072 56.3748 46.0375 56.2592ZM46.8466 47.0505C47.0008 46.7808 46.8852 46.4339 46.654 46.2413C46.5384 46.1642 46.3457 46.1257 46.1916 46.1643C46.0375 46.2028 45.9219 46.3184 45.8448 46.4339C45.5366 46.9734 45.3439 47.5513 45.3054 48.1678C45.3054 48.3219 45.3825 48.4761 45.4595 48.5917C45.5751 48.7073 45.7292 48.7458 45.8834 48.7458C46.0375 48.7458 46.1916 48.6688 46.3072 48.5917C46.4228 48.4761 46.4613 48.3219 46.4613 48.1678C46.4613 48.1293 46.4613 48.0908 46.4613 48.0523C46.4999 47.8211 46.5769 47.5899 46.654 47.3587C46.731 47.2817 46.7696 47.1661 46.8466 47.0505ZM49.6594 44.8543C49.7364 44.7387 49.7364 44.546 49.7364 44.3919C49.6979 44.2378 49.5823 44.1221 49.4667 44.0451C49.3511 43.968 49.1584 43.968 49.0043 43.968C48.6961 44.0451 48.3879 44.1221 48.1182 44.2377C47.9255 44.3148 47.7328 44.3919 47.5787 44.469C47.4631 44.5075 47.3475 44.6231 47.2705 44.7386C47.1934 44.8542 47.1934 45.0084 47.1934 45.124C47.1934 45.2781 47.2705 45.3551 47.3475 45.4707C47.4246 45.5863 47.6172 45.6249 47.7714 45.6249C47.9255 45.6249 48.0796 45.5477 48.1952 45.4707C48.2337 45.4322 48.2337 45.4322 48.2722 45.3936C48.619 45.2395 49.0043 45.124 49.3511 45.0469C49.4667 45.0854 49.5823 44.9698 49.6594 44.8543ZM53.4353 49.2082C53.4353 49.2468 53.4353 49.3238 53.4353 49.2082V49.2082ZM53.628 48.9384C53.705 48.8614 53.628 48.8999 53.628 48.9384V48.9384ZM53.8977 48.6687C53.9748 48.5917 53.9363 48.6302 53.8977 48.6687V48.6687ZM55.1307 48.322C55.0151 48.322 54.8995 48.2835 54.7839 48.322C54.7839 48.322 54.7454 48.322 54.7069 48.322C54.7069 48.322 54.7069 48.322 54.6683 48.322C54.6298 48.322 54.6298 48.322 54.5912 48.322C54.4757 48.3605 54.3601 48.3991 54.283 48.4376C54.283 48.4376 54.2445 48.4376 54.2445 48.4761C54.2059 48.5146 54.1289 48.5146 54.0904 48.5531C54.0518 48.5917 54.0133 48.5917 53.9748 48.6303C53.9362 48.6303 53.9363 48.6687 53.8977 48.6687C53.8207 48.7458 53.7436 48.8229 53.6665 48.9C53.6665 48.9385 53.628 48.9385 53.628 48.977C53.5895 49.0155 53.5895 49.0541 53.5509 49.0926C53.5124 49.1311 53.5124 49.1696 53.4739 49.2467C53.4739 49.2467 53.4739 49.2468 53.4739 49.2082C53.4739 49.2468 53.4353 49.2853 53.4353 49.2853C53.3197 49.555 53.0501 49.7862 52.7418 49.6706C52.4721 49.5935 52.2409 49.2467 52.3565 48.977C52.5877 48.399 52.973 47.8982 53.5124 47.5514C54.0133 47.2431 54.6298 47.089 55.1692 47.1661C55.3233 47.2046 55.4774 47.2046 55.593 47.3202C55.7086 47.4358 55.7857 47.5899 55.7472 47.744C55.7472 47.8982 55.7086 48.0522 55.593 48.1678C55.4389 48.2449 55.2848 48.322 55.1307 48.322ZM49.5823 51.2118C49.5823 51.2503 49.5823 51.2503 49.5823 51.2118C49.6208 51.1733 49.6208 51.1733 49.5823 51.2118C49.5823 51.2118 49.6208 51.2118 49.5823 51.2118ZM51.0465 50.3256C51.0465 50.0173 50.7767 49.7476 50.4685 49.7476C49.1199 49.7091 47.9255 50.865 47.8869 52.175C47.8869 52.4833 48.1566 52.753 48.4649 52.753C48.7731 52.753 49.0428 52.4833 49.0428 52.175C49.0428 52.1365 49.0428 52.098 49.0428 52.098C49.0428 52.0209 49.0814 51.9438 49.0814 51.8668C49.0814 51.8283 49.0814 51.8283 49.1199 51.7897C49.1199 51.7512 49.1585 51.7512 49.1585 51.7127C49.197 51.6356 49.2355 51.5585 49.3126 51.4815L49.3511 51.4429C49.3896 51.4044 49.4282 51.3659 49.4667 51.3274C49.5052 51.2889 49.5438 51.2503 49.5823 51.2118L49.6208 51.1732C49.6208 51.1732 49.6208 51.1732 49.5823 51.1732C49.6593 51.1347 49.7364 51.0577 49.8135 51.0191C49.852 50.9806 50.0447 50.9421 49.852 51.0191C49.8906 51.0191 49.9291 50.9806 49.9676 50.9806C50.0446 50.942 50.1217 50.9421 50.1988 50.9421C50.2758 50.9421 50.3529 50.9421 50.43 50.9421C50.8153 50.9036 51.0465 50.6338 51.0465 50.3256ZM52.2409 58.417C52.2024 58.3784 52.1638 58.3399 52.1253 58.2629C51.9712 58.0317 51.7785 57.8005 51.6629 57.5693C51.5088 57.2996 51.1621 57.2225 50.8538 57.3767C50.5841 57.5308 50.507 57.916 50.6612 58.1857C50.8153 58.4555 50.9694 58.6867 51.1235 58.9179C51.3162 59.1876 51.5474 59.4958 51.8171 59.6885C52.2024 59.9582 52.7033 59.8811 53.0115 59.5343C53.2812 59.2261 53.3583 58.8408 53.3583 58.4555C53.3583 58.1473 53.0886 57.8776 52.7803 57.8776C52.5106 57.8005 52.2409 58.1087 52.2409 58.417ZM51.3547 76.4107C52.0868 77.6822 53.3583 78.4914 54.7839 78.6455C56.0554 78.7611 57.3654 78.2602 58.2516 77.3355C58.6369 76.9502 58.9452 76.2951 59.4461 76.064C59.9855 75.8328 60.5249 76.4107 60.9488 76.6804C63.2221 78.106 66.343 76.6804 66.7283 74.0218C66.8439 73.2897 65.7265 72.9815 65.611 73.7136C65.3798 75.1392 64.2239 76.218 62.7212 76.1024C61.3726 75.9868 60.3708 74.3686 58.9452 75.0236C58.3673 75.2934 57.9819 75.8327 57.5966 76.2951C57.1343 76.8345 56.5563 77.2198 55.8628 77.374C54.4371 77.7207 53.0115 77.0272 52.3179 75.7943C51.9712 75.1778 50.9694 75.7557 51.3547 76.4107Z" fill="black"/>
<path d="M53.1274 186.686C55.8246 184.913 58.5602 183.141 61.2573 181.369C61.8738 180.945 61.2959 179.982 60.6794 180.367C57.9823 182.139 55.2466 183.912 52.5495 185.684C51.933 186.108 52.5109 187.11 53.1274 186.686ZM64.4939 178.633C62.683 179.211 60.7564 179.442 58.8684 179.327C58.1363 179.288 58.1363 178.132 58.8684 178.171C61.1032 178.286 63.338 177.901 65.4186 177.092C65.8039 176.938 66.3048 177.4 66.1122 177.785C65.1104 180.213 63.7618 182.448 62.105 184.451C61.9123 184.682 61.4885 184.644 61.2959 184.451C61.0647 184.22 61.1032 183.873 61.2959 183.642C62.5674 182.139 63.6462 180.444 64.4939 178.633ZM85.493 51.4438C87.4966 50.2493 89.5002 49.0935 91.5038 47.899C92.1588 47.5137 92.7367 48.5155 92.0817 48.9008C90.0781 50.0953 88.0746 51.2512 86.071 52.4456C85.416 52.8309 84.838 51.8291 85.493 51.4438ZM95.7806 45.8569C93.1606 46.2807 90.5405 46.3964 87.9204 46.1267C87.1883 46.0496 87.1883 44.8937 87.9204 44.9707C90.8487 45.279 93.8541 45.1248 96.7439 44.5469C97.2448 44.4313 97.6301 44.9322 97.3989 45.3945C95.9348 48.0531 94.4706 50.6732 93.045 53.3318C92.6982 53.9869 91.6964 53.4089 92.0432 52.7539C93.2762 50.4421 94.5091 48.1687 95.7806 45.8569ZM17.3711 23.7404C12.9401 26.8999 8.47058 30.0209 4.03958 33.1804C3.4231 33.6042 2.84514 32.6024 3.46162 32.1785C7.89262 29.019 12.3622 25.8981 16.7932 22.7386C17.4097 22.3147 17.9876 23.3166 17.3711 23.7404ZM22.226 19.2324C22.4571 18.5388 23.5745 18.8085 23.3433 19.5406C22.226 23.1625 20.415 26.5146 18.0261 29.4044C17.5638 29.9823 16.7546 29.1732 17.217 28.5953C19.4903 25.8596 21.1856 22.6616 22.226 19.2324ZM15.9069 19.9259C15.9069 19.5792 16.1767 19.3865 16.4849 19.348C19.0279 19.0783 21.4939 18.192 23.613 16.7663C24.2295 16.3425 24.8075 17.3443 24.191 17.7682C21.8792 19.3094 19.2206 20.1956 16.4849 20.5039C16.1767 20.5424 15.9069 20.2342 15.9069 19.9259ZM0.263565 88.934C2.72952 87.3542 5.1955 85.736 7.69997 84.1562C8.31647 83.7709 8.89442 84.7341 8.27792 85.158C5.81198 86.7377 3.34601 88.3561 0.841522 89.9358C0.225037 90.3596 -0.352921 89.3578 0.263565 88.934ZM14.019 82.1141C10.9751 82.8847 7.93114 83.6167 4.88722 84.3874C4.15515 84.58 3.84694 83.4627 4.57901 83.27C8.12383 82.3838 11.6686 81.4977 15.2134 80.6114C15.6758 80.4959 16.1767 81.0353 15.8684 81.4591C14.1346 84.0406 12.4007 86.5836 10.6283 89.1652C10.2045 89.7817 9.20267 89.2037 9.6265 88.5872C11.0907 86.4295 12.5548 84.2718 14.019 82.1141ZM163.363 32.4098C167.101 29.7897 170.838 27.2081 174.575 24.5881C175.192 24.1642 175.77 25.1661 175.153 25.5899C171.416 28.21 167.679 30.7915 163.941 33.4116C163.363 33.8354 162.785 32.8336 163.363 32.4098ZM178.313 22.8928C175.115 23.8175 171.878 24.7808 168.68 25.7055C167.948 25.8982 167.679 24.7807 168.372 24.5881C171.994 23.5092 175.654 22.4689 179.276 21.39C179.777 21.2359 180.162 21.8139 179.931 22.2378C178.313 25.4358 176.695 28.5952 175.076 31.7932C174.73 32.4483 173.728 31.8703 174.075 31.2153C175.5 28.4411 176.887 25.667 178.313 22.8928ZM97.2063 5.39986C94.8944 6.82548 92.6212 8.21258 90.3093 9.63821C89.6929 10.0235 89.0764 9.02178 89.7314 8.63647C92.0432 7.21085 94.3165 5.82375 96.6283 4.39812C97.2833 4.01281 97.8613 5.01455 97.2063 5.39986ZM103.178 1.97068C100.867 2.97247 98.3622 3.43488 95.8577 3.35782C95.1256 3.31928 95.1256 2.16337 95.8577 2.2019C98.8631 2.31749 101.791 1.58541 104.373 0.0827236C104.874 -0.22552 105.452 0.390911 105.182 0.891807C103.602 3.55041 102.061 6.209 100.481 8.8676C100.096 9.52262 99.0943 8.94466 99.4796 8.28964C100.713 6.13194 101.946 4.05133 103.178 1.97068Z" fill="#1D4DD8"/>
</svg>
