<svg width="15" height="14" viewBox="0 0 15 14" fill="none" xmlns="http://www.w3.org/2000/svg">
<path d="M9.80455 2.27123C9.42172 2.75677 8.89112 3.10972 8.28994 3.27874C8.21149 3.30202 8.12849 3.30637 8.04796 3.29143C7.96744 3.2765 7.89177 3.24271 7.82738 3.19293C7.76299 3.14316 7.71178 3.07886 7.67808 3.00551C7.64439 2.93216 7.62921 2.8519 7.63384 2.77156C7.7049 2.18226 7.9472 1.6255 8.33182 1.16777C8.7157 0.718726 9.21437 0.378087 9.77663 0.180828C9.86162 0.148129 9.95392 0.138131 10.0441 0.151852C10.1343 0.165574 10.2192 0.202525 10.2902 0.258943C10.3611 0.315361 10.4155 0.38923 10.4479 0.473027C10.4803 0.556825 10.4895 0.647557 10.4746 0.735985C10.3795 1.29792 10.1392 1.82651 9.77663 2.27123H9.80455ZM12.2335 5.69813C12.3061 5.62896 12.3624 5.54514 12.3987 5.45247C12.435 5.3598 12.4504 5.26048 12.4438 5.16141C12.4371 5.06233 12.4087 4.96585 12.3603 4.87864C12.3119 4.79144 12.2449 4.71559 12.1637 4.65635C11.6789 4.2653 11.0855 4.02649 10.4606 3.97098C9.5114 3.90929 8.74362 4.51928 7.82927 4.51928C6.91492 4.51928 6.34956 3.97098 5.33749 3.97098C4.77957 4.00525 4.23897 4.17466 3.76398 4.46408C3.28898 4.7535 2.89437 5.15392 2.61538 5.62959C1.65217 7.05518 1.81968 9.74187 3.34825 12.0859C3.89966 12.9152 4.63253 13.8541 5.59574 13.8541C6.44728 13.8541 6.68459 13.3127 7.84323 13.3127C9.00188 13.3127 9.23919 13.861 10.0698 13.8541C11.033 13.8541 11.8008 12.8124 12.3522 11.9831C12.5659 11.6722 12.7571 11.347 12.9245 11.0098C12.991 10.8611 13.0015 10.694 12.9542 10.5383C12.9069 10.3827 12.8049 10.2486 12.6663 10.16C12.2988 9.92478 11.9901 9.61127 11.763 9.24276C11.536 8.87425 11.3965 8.46021 11.3549 8.03144C11.3133 7.60268 11.3707 7.17023 11.5228 6.76625C11.6749 6.36228 11.9179 5.99719 12.2335 5.69813Z" fill="black"/>
</svg>
