<svg width="99" height="99" viewBox="0 0 99 99" fill="none" xmlns="http://www.w3.org/2000/svg">
<g filter="url(#filter0_d_372_3118)">
<path d="M77.625 8H21.375C16.1973 8 12 12.1973 12 17.375V73.625C12 78.8027 16.1973 83 21.375 83H77.625C82.8027 83 87 78.8027 87 73.625V17.375C87 12.1973 82.8027 8 77.625 8Z" fill="#003B99"/>
</g>
<mask id="mask0_372_3118" style="mask-type:luminance" maskUnits="userSpaceOnUse" x="31" y="29" width="37" height="33">
<path d="M67.0781 29.875H31.9219V61.125H67.0781V29.875Z" fill="white"/>
</mask>
<g mask="url(#mask0_372_3118)">
<path d="M35.8281 32.4995C34.7295 32.5402 33.814 32.9268 33.0815 33.6592C32.3491 34.3916 31.9626 35.3071 31.9219 36.4058V38.3589H67.0781V36.4058C67.0374 35.3071 66.6508 34.3916 65.9184 33.6592C65.186 32.9268 64.2705 32.5402 63.1719 32.4995H35.8281ZM67.0781 44.2183H31.9219V55.937C31.9626 57.0356 32.3491 57.9512 33.0815 58.6836C33.814 59.416 34.7295 59.8026 35.8281 59.8433H63.1719C64.2705 59.8026 65.186 59.416 65.9184 58.6836C66.6508 57.9512 67.0374 57.0356 67.0781 55.937V44.2183ZM38.7578 52.0308H42.6641C43.2744 52.0714 43.5999 52.397 43.6406 53.0073C43.5999 53.6177 43.2744 53.9432 42.6641 53.9839H38.7578C38.1475 53.9432 37.8219 53.6177 37.7812 53.0073C37.8219 52.397 38.1475 52.0714 38.7578 52.0308ZM45.5938 53.0073C45.6344 52.397 45.96 52.0714 46.5703 52.0308H54.3828C54.9931 52.0714 55.3186 52.397 55.3594 53.0073C55.3186 53.6177 54.9931 53.9432 54.3828 53.9839H46.5703C45.96 53.9432 45.6344 53.6177 45.5938 53.0073Z" fill="#99F6EC"/>
</g>
<defs>
<filter id="filter0_d_372_3118" x="0" y="0" width="99" height="99" filterUnits="userSpaceOnUse" color-interpolation-filters="sRGB">
<feFlood flood-opacity="0" result="BackgroundImageFix"/>
<feColorMatrix in="SourceAlpha" type="matrix" values="0 0 0 0 0 0 0 0 0 0 0 0 0 0 0 0 0 0 127 0" result="hardAlpha"/>
<feOffset dy="4"/>
<feGaussianBlur stdDeviation="6"/>
<feComposite in2="hardAlpha" operator="out"/>
<feColorMatrix type="matrix" values="0 0 0 0 0.156863 0 0 0 0 0.517647 0 0 0 0 0.937255 0 0 0 0.35 0"/>
<feBlend mode="normal" in2="BackgroundImageFix" result="effect1_dropShadow_372_3118"/>
<feBlend mode="normal" in="SourceGraphic" in2="effect1_dropShadow_372_3118" result="shape"/>
</filter>
</defs>
</svg>
