<svg width="20" height="20" viewBox="0 0 20 20" fill="none" xmlns="http://www.w3.org/2000/svg">
<path d="M2.08337 9.99967C2.08337 6.26772 2.08337 4.40175 3.24274 3.24237C4.40212 2.08301 6.26809 2.08301 10 2.08301C13.732 2.08301 15.598 2.08301 16.7574 3.24237C17.9167 4.40175 17.9167 6.26772 17.9167 9.99967C17.9167 13.7316 17.9167 15.5976 16.7574 16.757C15.598 17.9163 13.732 17.9163 10 17.9163C6.26809 17.9163 4.40212 17.9163 3.24274 16.757C2.08337 15.5976 2.08337 13.7316 2.08337 9.99967Z" stroke="white" stroke-width="1.5"/>
<path d="M6.25 14.1663C8.19308 12.1312 11.786 12.0353 13.75 14.1663M12.0792 7.91634C12.0792 9.06692 11.1452 9.99967 9.99292 9.99967C8.84075 9.99967 7.90664 9.06692 7.90664 7.91634C7.90664 6.76575 8.84075 5.83301 9.99292 5.83301C11.1452 5.83301 12.0792 6.76575 12.0792 7.91634Z" stroke="white" stroke-width="1.5" stroke-linecap="round"/>
</svg>
