<svg width="180" height="180" viewBox="0 0 180 180" fill="none" xmlns="http://www.w3.org/2000/svg">
<rect width="180" height="180" fill="white"/>
<path d="M69.2606 114.407C64.4522 116.776 58.5124 115.75 53.9514 113.028C49.3552 110.306 45.8903 106.027 42.7436 101.714C40.9405 99.2038 39.208 96.6227 38.1827 93.7236C34.8946 84.3542 39.703 73.8889 46.6328 66.747C53.5272 59.6051 62.4015 54.6907 69.8262 48.0792C72.9729 45.286 75.8367 42.21 79.1955 39.6997C87.6456 33.3003 98.9241 30.7901 109.319 33.0175C114.905 34.2196 120.35 36.8359 124.204 41.0433C127.209 44.296 129.153 48.3619 131.558 52.0743C133.891 55.6806 136.649 59.0041 139.796 61.9386C142.589 64.555 145.665 66.8884 148.21 69.7522C156.802 79.4751 157.226 95.4207 149.2 105.603C143.897 112.321 135.836 116.245 127.775 118.968C121.269 121.195 124.416 101.608 117.557 100.936C112.571 100.441 95.6714 108.432 90.6862 116.493C88.5648 119.922 84.711 119.922 80.7158 119.675C75.7307 119.392 70.8162 117.801 66.5735 115.149" fill="#DBE4FE"/>
<path d="M54.8348 155.03C55.0469 153.298 56.638 151.989 57.0622 150.292C57.239 149.585 57.2036 148.807 57.1682 148.065C56.8854 142.832 56.8854 137.564 57.1682 132.332C57.2743 130.104 57.4511 127.806 58.6179 125.897C59.5018 124.447 60.916 123.245 61.0928 121.548C61.1989 120.523 60.8099 119.533 60.8099 118.507C60.8099 117.482 61.411 116.28 62.4363 116.28L61.9767 116.068C62.3302 113.946 60.9868 111.896 59.3604 110.482C57.734 109.067 55.754 108.077 54.1984 106.628C52.3952 104.966 51.1932 102.809 50.0618 100.653C47.9758 96.7282 45.9958 92.6269 45.6423 88.2074C45.5362 86.8993 45.6069 85.5557 46.0665 84.3536C47.1272 81.6312 49.9556 80.1462 52.572 78.8734L52.6781 78.237C53.5266 75.55 56.4612 73.9943 59.2543 73.8529C62.0474 73.7115 64.7698 74.7014 67.4215 75.6914C71.8056 77.3178 76.4372 79.1563 79.0182 83.0454C81.5285 86.7932 81.0689 90.8237 81.281 95.0664C81.4578 98.3192 82.4831 101.042 82.2002 104.436C82.0942 105.567 81.9527 106.699 82.0941 107.795C82.4123 109.987 83.9327 112.037 83.6852 114.229L83.4024 113.098C85.7712 117.411 87.2561 122.184 87.7511 127.099C87.9279 128.69 87.9986 130.387 88.8118 131.766C89.625 133.145 91.0746 134.029 92.206 135.195C95.7416 138.943 95.2466 144.848 94.398 149.974" fill="white"/>
<path d="M93.5496 136.079C92.8425 135.054 91.9232 134.24 90.9686 133.392C89.9787 132.508 89.1301 131.589 88.7412 130.281C88.3523 128.937 88.3523 127.558 88.1755 126.179C87.9988 124.73 87.7159 123.315 87.3977 121.901C86.6905 119.002 85.5945 116.209 84.2156 113.557C84.1449 111.648 83.0489 109.951 82.66 108.112C82.4125 106.981 82.5893 105.779 82.6954 104.648C82.8015 103.481 82.766 102.314 82.6246 101.183C82.3771 99.026 81.8468 96.8692 81.7761 94.6771C81.67 92.5558 81.7407 90.3991 81.4225 88.2778C81.1397 86.1564 80.3972 84.1058 79.1244 82.3733C77.993 80.8177 76.5081 79.5802 74.8817 78.5549C73.22 77.5296 71.3815 76.7164 69.5783 76.0093C67.4923 75.1961 65.371 74.3475 63.2143 73.8171C60.9515 73.2515 58.5119 73.1454 56.3199 74.0293C54.4106 74.8071 52.8196 76.186 52.1832 78.1659C52.1479 78.3074 52.1478 78.4488 52.2185 78.5549C49.885 79.6863 47.4102 80.9944 46.0666 83.2925C44.4756 86.0149 45.0767 89.5506 45.8899 92.4144C46.7738 95.5611 48.2941 98.5309 49.8144 101.395C50.5569 102.774 51.2993 104.117 52.2539 105.319C53.2085 106.557 54.3399 107.582 55.6127 108.466C57.027 109.456 58.512 110.34 59.7141 111.577C60.8101 112.744 61.7293 114.3 61.4465 115.961C61.4465 116.032 61.4465 116.067 61.4465 116.103C60.8808 116.456 60.4918 117.128 60.3504 117.8C60.0675 119.143 60.81 120.452 60.5272 121.795C60.2797 122.997 59.3605 123.952 58.6534 124.906C57.8756 125.967 57.3452 127.169 57.0624 128.477C56.7795 129.821 56.6734 131.2 56.638 132.579C56.5673 134.134 56.4966 135.725 56.4966 137.316C56.4259 140.498 56.4967 143.68 56.6027 146.862C56.6381 147.676 56.7088 148.524 56.6734 149.373C56.6381 150.08 56.4259 150.716 56.0724 151.353C55.436 152.519 54.5167 153.58 54.3399 154.924C54.3045 155.206 54.4106 155.489 54.6935 155.56C54.9409 155.631 55.2945 155.489 55.3299 155.206C55.5067 154.075 56.1784 153.191 56.7795 152.237C57.4513 151.105 57.7694 149.974 57.6987 148.666C57.5926 145.66 57.4513 142.655 57.4866 139.614C57.4866 136.645 57.5219 133.639 57.8048 130.669C57.9109 129.361 58.1584 128.018 58.7241 126.851C59.2544 125.755 60.0676 124.871 60.7393 123.881C61.0929 123.351 61.3758 122.785 61.5525 122.184C61.7293 121.477 61.6586 120.734 61.5525 120.027C61.4465 119.32 61.2697 118.613 61.4465 117.906C61.5525 117.588 61.7293 117.234 62.0122 117.022C65.2649 117.765 68.553 118.542 71.9118 118.295C74.7403 118.083 77.5334 117.199 79.9376 115.714C81.0336 115.042 82.0589 114.3 82.9782 113.416C83.0489 113.557 83.1196 113.699 83.1903 113.84C83.1903 113.982 83.1903 114.123 83.1549 114.264C83.1196 114.618 83.4025 114.795 83.65 114.759C84.6753 116.845 85.5238 119.002 86.1249 121.229C86.4785 122.573 86.7967 123.952 87.0088 125.331C87.2209 126.71 87.2916 128.124 87.5037 129.503C87.7159 130.811 88.1755 131.978 89.0594 132.968C89.8726 133.922 90.9333 134.629 91.7818 135.513C93.3728 137.175 94.1506 139.402 94.3981 141.665C94.681 144.388 94.3628 147.11 93.9032 149.797C93.7971 150.469 94.8224 150.752 94.9285 150.08C95.6709 145.554 96.3074 140.145 93.5496 136.079ZM76.1545 116.28C73.3968 117.234 70.5329 117.411 67.6337 117.057C66.0427 116.845 64.4517 116.492 62.8961 116.138C62.8607 115.961 62.7193 115.82 62.5071 115.82C62.7193 113.027 60.6686 110.799 58.5119 109.208C57.2744 108.289 55.931 107.511 54.7642 106.486C53.5975 105.461 52.7136 104.259 51.9004 102.95C51.0872 101.642 50.38 100.228 49.6729 98.8491C48.9305 97.3995 48.2234 95.95 47.6577 94.4297C47.092 92.9447 46.6324 91.389 46.3495 89.8334C46.102 88.3131 45.9252 86.616 46.3495 85.0957C47.1627 82.1612 50.1326 80.6409 52.6429 79.4388C52.7489 79.6156 52.961 79.757 53.2085 79.7217C53.7742 79.6156 54.4106 79.5094 54.9763 79.6509C55.6481 79.8277 55.8956 80.3227 56.0017 80.9944C56.1785 82.1258 56.0016 83.3633 55.5067 84.3886C55.3299 84.7422 55.1178 85.0604 54.9056 85.3786C54.6228 85.414 54.446 85.6261 54.446 85.9089C54.0217 86.2978 53.5621 86.616 52.9964 86.8281C51.6176 87.3585 49.8498 87.4999 48.4002 87.1464C47.7284 86.9696 47.4455 87.9949 48.1173 88.1717C49.5315 88.5252 51.0872 88.4545 52.5014 88.101C53.2439 87.9242 53.9156 87.6414 54.5167 87.2171C54.7995 88.6667 55.6835 89.9748 56.9563 90.7173C56.9916 90.7526 57.027 90.7527 57.0624 90.7527C57.2038 91.283 57.3806 91.778 57.5927 92.273C58.2291 93.7226 59.4311 95.5257 61.2343 95.3489C61.3757 95.3489 61.4818 95.2782 61.5878 95.2075C62.295 96.0206 63.2142 96.6924 64.2395 97.0813C62.5778 98.637 61.8001 101.041 62.3657 103.269C62.5425 103.94 63.5678 103.658 63.391 102.986C62.8961 100.97 63.7092 98.6724 65.4063 97.4349L65.4417 97.3996C65.5124 97.3996 65.5831 97.4349 65.6538 97.4349C67.1034 97.647 68.5884 97.4703 69.9673 96.94C71.2047 96.445 72.5128 95.6317 73.0078 94.3236C73.326 93.475 73.1493 92.6618 72.6897 92.0254C72.725 91.9901 72.7604 91.9901 72.7957 91.9547C72.9018 91.884 73.0078 91.8487 73.1139 91.778C73.1493 91.778 73.1846 91.7427 73.1846 91.7427C73.2553 91.7073 73.2907 91.7072 73.3614 91.6719C73.4674 91.6365 73.5735 91.6012 73.7149 91.6012C73.7503 91.6012 73.7857 91.6012 73.821 91.6012C73.8917 91.6012 73.9271 91.6012 73.9978 91.6012C74.0685 91.6012 74.1392 91.6012 74.1746 91.6012C74.2099 91.6012 74.2453 91.6012 74.2453 91.6012C74.2806 91.6012 74.2806 91.6012 74.316 91.6012C74.2806 91.6012 74.2806 91.6012 74.2453 91.6012C74.2806 91.6012 74.3867 91.6366 74.4221 91.6366C74.4928 91.6366 74.5635 91.6719 74.6342 91.6719C74.9171 91.7426 75.2353 91.5658 75.2706 91.3183C75.3414 91.0355 75.1999 90.7527 74.9171 90.682C73.8918 90.3638 72.725 90.6112 71.9118 91.283C71.7351 91.1769 71.5936 91.0709 71.3815 91.0001C71.0279 90.8587 70.6744 90.7526 70.3208 90.7173C70.3562 90.7173 70.3562 90.682 70.3915 90.682C70.7451 90.3991 71.0279 90.0455 71.2754 89.6566C71.8765 88.7727 72.4422 87.8888 73.0432 87.0403C73.22 86.7928 73.0786 86.4392 72.8664 86.2978C72.6189 86.1564 72.3007 86.2624 72.1239 86.4746C71.5936 87.2524 71.0633 88.0303 70.5683 88.8081C70.3562 89.1263 70.1794 89.4091 69.9319 89.6566C69.8965 89.692 69.7905 89.798 69.7551 89.8334C69.7905 89.798 69.6844 89.9041 69.6844 89.9041C69.649 89.9394 69.6137 89.9395 69.5783 89.9749C69.5783 89.9749 69.5429 89.9748 69.5429 90.0102C69.5076 90.0102 69.4723 90.0456 69.4369 90.0456C69.4369 90.0456 69.2601 90.0456 69.3661 90.0456C69.0833 90.0102 68.8005 90.1163 68.7298 90.3991C68.6945 90.5405 68.7297 90.7173 68.8358 90.8588C68.7651 90.8588 68.7297 90.8941 68.659 90.8941C68.6944 90.8234 68.7298 90.7527 68.7298 90.6466C68.6945 89.197 67.5984 87.8181 66.1488 87.5706C65.866 87.5353 65.5477 87.6414 65.5124 87.9242C65.4417 88.1717 65.5831 88.5253 65.8659 88.5606C66.0074 88.596 66.1488 88.6313 66.2902 88.6666C66.3256 88.6666 66.3609 88.702 66.3963 88.702C66.3256 88.6667 66.3255 88.6666 66.3609 88.6666C66.3609 88.6666 66.3963 88.6667 66.3963 88.702C66.467 88.7374 66.5377 88.7727 66.5731 88.8081C66.6438 88.8435 66.6791 88.8788 66.7498 88.9142C66.7852 88.9495 66.8205 88.9495 66.8205 88.9849C66.7145 88.9142 66.7852 88.9849 66.8205 88.9849C66.9266 89.0909 67.0327 89.197 67.1388 89.303C67.1742 89.3384 67.2095 89.3737 67.2095 89.3737L67.1741 89.3384C67.1741 89.3738 67.2095 89.3738 67.2095 89.4091C67.2448 89.4798 67.2802 89.5152 67.3156 89.5859C67.3509 89.6566 67.3862 89.7273 67.4216 89.7627C67.4216 89.798 67.457 89.8334 67.457 89.8688C67.4923 90.0102 67.563 90.1162 67.563 90.2576C67.563 90.293 67.563 90.3284 67.5984 90.3637C67.5984 90.4344 67.5984 90.5052 67.5984 90.5759C67.5984 90.7527 67.7044 90.9648 67.8812 91.0355C67.4216 91.2123 66.9619 91.4244 66.5377 91.6366C65.9366 91.9194 66.467 92.8386 67.068 92.5558C68.164 92.0254 69.5076 91.3891 70.7451 91.8133C71.0279 91.9194 71.2754 92.0254 71.4522 92.2022C71.4876 92.2376 71.4875 92.2729 71.5229 92.3083C71.5582 92.3437 71.5936 92.3436 71.629 92.379C72.0532 92.8386 72.23 93.4397 71.9118 94.0761C71.3815 95.1014 70.144 95.7025 69.1187 96.0561C67.9519 96.445 66.6438 96.551 65.4417 96.2681C63.1789 95.7378 61.5172 94.0407 61.0222 91.778C60.7747 90.5759 60.7394 89.3031 60.8454 88.101C60.9515 86.9696 61.3404 85.8028 62.1536 84.9896C63.0728 84.0704 64.381 83.6462 65.5831 83.2572C67.1387 82.7623 68.6944 82.2672 70.25 81.7722C70.8864 81.5601 70.6037 80.5348 69.9673 80.7469C68.3409 81.2773 66.6791 81.7722 65.0527 82.3026C63.7799 82.7268 62.4364 83.2218 61.4465 84.1764C60.4565 85.1311 59.9968 86.4746 59.8201 87.8181C59.6433 89.2677 59.6787 90.788 60.0322 92.2022C60.209 92.9093 60.4918 93.5811 60.8807 94.1822C59.714 94.0761 58.9716 92.7326 58.5473 91.7427C57.9816 90.4698 57.7694 89.0556 57.7341 87.6767C57.6987 86.2625 57.8755 84.7775 58.2644 83.3986C58.4412 82.6562 58.7594 82.0198 59.3251 81.4894C59.8201 81.0298 60.4919 80.6762 61.0929 80.358C62.4011 79.7216 63.7093 80.1105 65.0881 80.1459C65.7599 80.1813 65.7599 79.1206 65.0881 79.0852C63.7093 79.0145 62.3657 78.6609 61.0222 79.2266C59.5019 79.863 58.0523 80.853 57.4512 82.444C56.8855 83.9643 56.7088 85.7321 56.6734 87.3585C56.6734 87.9242 56.7088 88.4899 56.7795 89.0556C56.0017 88.3131 55.5421 87.2524 55.4713 86.1564C55.5067 86.0857 55.5774 86.0503 55.6127 85.9796C56.3199 85.0957 56.8148 84.0351 56.9916 82.9037C57.1684 81.7723 57.2391 80.3227 56.532 79.3681C56.2138 78.9085 55.7896 78.6609 55.2946 78.5195C55.3299 78.4488 55.3653 78.3781 55.3653 78.3074C55.3653 78.166 55.4006 78.0246 55.4713 77.8478C55.5067 77.7417 55.5067 77.7063 55.542 77.671C55.5774 77.6003 55.6127 77.4942 55.6834 77.4235C55.8602 77.1407 56.1431 76.8578 56.3552 76.681C57.0624 76.1507 57.8755 75.9385 58.7241 75.7617C59.0069 75.691 59.1837 75.3729 59.0776 75.1254C59.0069 74.8425 58.7241 74.7011 58.4412 74.7718C57.4159 74.984 56.4259 75.3021 55.6127 75.9385C54.8703 76.5396 54.3753 77.3881 54.3046 78.3427C54.3046 78.3781 54.3046 78.4135 54.3046 78.4488C53.845 78.4488 53.3853 78.5195 52.961 78.5902C52.961 78.5902 52.961 78.5549 52.9257 78.5549C52.9964 78.4842 53.0671 78.4135 53.1024 78.3074C53.6328 76.681 55.0117 75.5142 56.5673 74.8778C58.4412 74.1354 60.4212 74.1708 62.3657 74.595C64.4871 75.0547 66.5377 75.8678 68.5883 76.6456C70.3561 77.3174 72.0886 78.0599 73.7149 78.9791C75.306 79.8984 76.791 81.0298 77.9223 82.444C79.1952 84.0351 79.9376 85.9089 80.2912 87.9242C80.6094 89.9041 80.574 91.9194 80.6447 93.9347C80.7154 96.0207 81.069 98.0713 81.4225 100.122C81.5993 101.289 81.7054 102.491 81.67 103.693C81.6347 105.001 81.3518 106.309 81.5286 107.617C81.7054 109.067 82.4479 110.446 82.8722 111.86C80.9983 113.911 78.7002 115.396 76.1545 116.28ZM73.1493 91.778C73.1493 91.778 73.1847 91.778 73.1493 91.778V91.778ZM69.4369 90.0102C69.4016 90.0102 69.4016 90.0102 69.4369 90.0102V90.0102ZM86.231 124.27C84.4632 125.083 82.6954 125.896 80.8922 126.568C77.6395 127.77 74.316 128.301 70.8865 127.735C67.4569 127.205 64.2396 125.755 61.0929 124.376C60.4565 124.093 61.0222 123.174 61.6232 123.457C63.3203 124.199 65.0527 124.977 66.8205 125.578C69.9319 126.674 73.22 127.24 76.5081 126.674C79.7608 126.109 82.7661 124.73 85.7006 123.351C86.3017 123.068 86.832 123.987 86.231 124.27ZM79.9729 121.336C80.1851 121.583 80.4679 121.76 80.7861 121.866C81.3872 122.078 82.1296 121.901 82.5539 121.406C82.9428 120.911 83.1197 120.204 82.8722 119.603C82.7307 119.249 82.5539 119.002 82.2357 118.79C81.9883 118.613 81.6347 118.542 81.3518 118.542C80.9983 118.542 80.6447 118.648 80.3619 118.825C80.0083 119.037 79.7962 119.32 79.6547 119.709C79.6194 119.815 79.6194 119.957 79.6901 120.063C79.6194 120.169 79.5487 120.275 79.584 120.381C79.6194 120.734 79.7254 121.053 79.9729 121.336ZM81.2458 120.911C81.2458 120.911 81.2811 120.911 81.3165 120.911C81.2811 120.911 81.2458 120.911 81.2458 120.911ZM81.6347 120.876C81.6347 120.841 81.6347 120.841 81.6347 120.876V120.876ZM81.7761 120.77C81.7761 120.77 81.8115 120.734 81.8115 120.699C81.8115 120.734 81.7761 120.734 81.7761 120.77ZM81.8822 120.593L81.9175 120.522C81.8821 120.558 81.8822 120.593 81.8822 120.593ZM81.9529 120.346C81.9529 120.31 81.9529 120.31 81.9529 120.31C81.9529 120.31 81.9529 120.31 81.9529 120.346ZM81.9175 119.957C81.9175 119.957 81.9175 119.957 81.9175 119.921C81.9175 119.957 81.9175 119.957 81.9175 119.957ZM81.8468 119.851C81.8468 119.851 81.8115 119.815 81.8115 119.78C81.8468 119.815 81.8468 119.851 81.8468 119.851ZM81.0336 119.674C80.9982 119.674 80.9983 119.674 80.9983 119.674C80.9983 119.674 80.9982 119.674 81.0336 119.674ZM80.7508 119.886C80.7862 119.851 80.8215 119.815 80.8215 119.78C80.8215 119.78 80.8568 119.78 80.8568 119.745C80.8922 119.709 80.9275 119.709 80.9629 119.674C80.9629 119.674 80.9983 119.674 80.9983 119.638C81.0336 119.638 81.1043 119.603 81.1397 119.603C81.175 119.603 81.175 119.603 81.2104 119.603C81.2457 119.603 81.2811 119.603 81.3518 119.603C81.3872 119.603 81.3872 119.603 81.4225 119.603C81.4579 119.603 81.5286 119.638 81.5286 119.638C81.564 119.638 81.564 119.638 81.5993 119.674C81.6347 119.709 81.67 119.709 81.7054 119.745L81.7407 119.78L81.7761 119.815C81.7761 119.815 81.7761 119.851 81.8115 119.851C81.8115 119.886 81.8468 119.886 81.8468 119.921C81.8468 119.921 81.8468 119.921 81.8822 119.957C81.8822 119.992 81.9175 120.063 81.9175 120.098V120.133C81.9175 120.169 81.9175 120.239 81.9175 120.275C81.9175 120.31 81.9175 120.346 81.9175 120.346C81.9175 120.381 81.8822 120.452 81.8822 120.452C81.8822 120.452 81.8822 120.487 81.8822 120.522V120.558C81.8822 120.593 81.8468 120.593 81.8468 120.628C81.8468 120.628 81.8115 120.664 81.8115 120.699C81.8115 120.699 81.8115 120.734 81.7761 120.734C81.7407 120.77 81.7408 120.77 81.7054 120.805L81.67 120.84C81.6347 120.876 81.5993 120.876 81.5639 120.911H81.5286C81.4933 120.911 81.4933 120.911 81.4579 120.911C81.4226 120.911 81.3872 120.911 81.3165 120.911C81.3165 120.911 81.3165 120.911 81.2812 120.911H81.2458C81.175 120.911 81.1397 120.876 81.069 120.876C81.069 120.876 81.0336 120.876 81.0336 120.84C80.9982 120.805 80.9276 120.77 80.8922 120.734C80.8568 120.699 80.8569 120.699 80.8215 120.664C80.7862 120.628 80.7862 120.628 80.7508 120.593L80.7154 120.558C80.7154 120.522 80.68 120.522 80.68 120.487C80.68 120.487 80.68 120.487 80.68 120.452V120.416C80.68 120.381 80.6447 120.346 80.6447 120.31V120.275C80.6447 120.204 80.6093 120.169 80.6093 120.133C80.6447 120.098 80.68 120.063 80.68 119.992C80.68 119.957 80.7154 119.957 80.7154 119.921C80.7154 119.921 80.7155 119.886 80.7508 119.886Z" fill="black"/>
<path d="M104.368 178.647C102.671 174.192 105.429 169.419 107.585 165.141C110.591 159.13 112.535 152.554 113.207 145.872C113.56 142.336 113.773 138.412 116.389 136.008V136.043C117.98 123.032 116.495 109.42 120.95 97.0808C121.551 95.4544 122.258 93.7927 123.566 92.626C124.733 91.53 126.289 90.9289 127.809 90.3986C130.496 89.5147 133.289 88.8076 136.118 88.3833C138.592 87.9944 141.173 87.7822 143.542 88.5247C145.345 89.0904 147.184 90.2924 148.068 92.0249C148.386 92.6613 148.351 93.5099 148.952 93.8281C149.588 94.1463 150.79 93.6159 151.603 94.0755C152.346 94.4998 152.912 95.1716 153.477 95.8433C154.255 96.7979 154.998 97.788 155.669 98.8133C156.094 99.4143 156.483 100.051 156.624 100.758C156.765 101.43 156.659 102.101 156.553 102.773C155.457 109.243 152.098 115.289 147.149 119.602C145.77 120.805 144.249 121.901 142.729 122.926C141.244 123.916 139.123 124.764 137.85 126.037C136.86 127.027 136.789 128.76 136.507 130.103C136.082 132.154 135.764 134.24 135.552 136.326L136.118 136.892C138.274 137.563 139.087 140.25 138.875 142.478C138.663 144.705 137.779 146.862 137.779 149.125C137.815 152.554 139.901 155.559 141.598 158.565C145.169 164.929 147.007 172.247 146.866 179.531" fill="white"/>
<path d="M156.235 98.6726C155.599 97.718 154.892 96.7634 154.185 95.8442C153.548 95.031 152.912 94.2178 152.028 93.6875C151.639 93.4754 151.25 93.3693 150.79 93.3339C150.331 93.3339 149.906 93.44 149.447 93.3692C149.093 93.3339 148.987 93.0864 148.881 92.7682C148.74 92.3439 148.634 91.9196 148.386 91.4954C147.927 90.6468 147.219 89.9751 146.477 89.374C142.871 86.6516 138.027 87.3941 133.89 88.2073C131.628 88.667 129.365 89.268 127.173 90.0458C125.263 90.7176 123.46 91.6368 122.223 93.2985C120.985 94.9956 120.314 97.0816 119.713 99.0616C119.041 101.218 118.546 103.41 118.157 105.638C116.637 114.547 116.955 123.634 116.177 132.65C116.071 133.675 115.965 134.7 115.859 135.726C113.985 137.529 113.313 140.11 112.995 142.585C112.818 143.928 112.712 145.307 112.535 146.651C112.359 148.242 112.076 149.797 111.758 151.353C111.086 154.5 110.167 157.576 109 160.545C107.833 163.48 106.277 166.202 105.005 169.066C103.661 172.107 102.6 175.501 103.802 178.754C104.05 179.39 105.075 179.107 104.828 178.471C103.767 175.642 104.58 172.673 105.712 170.021C106.914 167.228 108.434 164.611 109.636 161.818C110.838 158.954 111.793 156.02 112.5 153.015C113.172 150.08 113.561 147.146 113.879 144.14C114.162 141.524 114.551 138.66 116.425 136.68C116.425 136.68 116.425 136.68 116.46 136.68C122.117 138.519 128.375 140.499 134.279 138.413C134.951 138.165 135.693 137.953 136.259 137.458C138.416 138.377 138.628 141.383 138.274 143.398C137.992 144.953 137.532 146.474 137.355 148.029C137.214 149.514 137.426 150.964 137.886 152.378C138.84 155.207 140.643 157.646 141.987 160.298C143.401 163.091 144.462 166.061 145.204 169.102C146.017 172.496 146.406 175.996 146.371 179.496C146.371 180.168 147.432 180.168 147.432 179.496C147.538 173.097 146.159 166.697 143.436 160.899C142.765 159.485 141.987 158.106 141.209 156.727C140.431 155.419 139.653 154.075 139.088 152.626C138.522 151.176 138.239 149.691 138.381 148.171C138.522 146.545 139.052 144.954 139.335 143.363C139.724 140.888 139.229 137.706 136.79 136.539C136.825 136.256 136.754 136.008 136.507 135.761C136.401 135.655 136.33 135.62 136.224 135.62C136.365 134.347 136.577 133.109 136.79 131.836C136.825 131.766 136.825 131.695 136.825 131.589C136.966 130.882 137.072 130.175 137.178 129.468C137.32 128.619 137.426 127.7 137.85 126.922C138.274 126.109 139.123 125.614 139.865 125.154C140.714 124.624 141.598 124.2 142.446 123.705C143.366 123.139 144.285 122.503 145.133 121.866C146.831 120.629 148.422 119.25 149.836 117.659C152.488 114.724 154.538 111.295 155.846 107.582C156.165 106.663 156.447 105.744 156.66 104.789C156.907 103.799 157.155 102.739 157.19 101.713C157.331 100.617 156.872 99.6272 156.235 98.6726ZM145.735 105.956C145.628 105.956 145.522 105.956 145.416 105.956H145.346C146.336 104.931 147.043 103.552 147.502 102.138C147.644 102.491 147.821 102.845 147.997 103.128C147.821 103.976 147.538 104.825 146.901 105.39C146.654 105.638 146.3 105.815 145.947 105.885C145.911 105.885 145.876 105.885 145.841 105.921C145.841 105.956 145.735 105.956 145.735 105.956ZM133.996 137.423C133.254 137.67 132.511 137.882 131.769 138.024C130.178 138.307 128.516 138.342 126.89 138.201C123.496 137.918 120.208 136.822 116.955 135.761C117.238 133.215 117.45 130.67 117.591 128.124C121.763 131.094 126.89 132.685 132.016 132.614C133.219 132.614 134.421 132.473 135.623 132.296C135.587 132.544 135.552 132.756 135.517 133.003C135.34 134.099 135.198 135.231 135.092 136.362C135.057 136.645 135.234 136.786 135.446 136.857C135.375 136.892 135.269 136.963 135.199 136.998C134.81 137.14 134.421 137.281 133.996 137.423ZM155.988 103.128C155.811 104.082 155.599 105.001 155.316 105.956C154.22 109.633 152.417 113.062 149.977 115.997C147.361 119.144 144.037 121.654 140.467 123.634C138.946 124.482 137.249 125.366 136.648 127.134C136.365 127.983 136.259 128.867 136.082 129.751C135.976 130.245 135.906 130.705 135.8 131.2C130.956 132.084 125.829 131.377 121.374 129.185C120.066 128.548 118.829 127.806 117.697 126.922L117.662 126.887C117.945 121.124 118.051 115.361 118.723 109.633C119.218 105.32 120.101 101.006 121.622 96.9048C122.329 95.031 123.284 93.2985 125.016 92.2025C126.819 91.1064 129.011 90.5408 131.027 90.0104C133.219 89.4447 135.446 88.9498 137.673 88.7023C139.795 88.4548 142.022 88.4548 144.073 89.2326C145.664 89.869 147.113 91.0004 147.75 92.5914C147.396 92.6268 147.078 92.9803 147.326 93.3692C147.644 93.8642 147.75 94.4299 147.785 95.031C146.795 96.5159 146.583 98.4252 146.937 100.193C146.866 100.511 146.795 100.829 146.689 101.148C146.088 103.304 144.957 105.673 142.729 106.451C142.765 106.38 142.835 106.31 142.871 106.239C143.649 104.931 144.108 103.446 144.603 102.031C145.169 100.405 145.664 98.7787 145.911 97.0816C146.194 95.2077 146.123 93.3339 145.558 91.5661C145.346 90.9297 144.32 91.2125 144.532 91.8489C145.487 94.7481 144.886 97.7887 143.967 100.617C143.542 101.996 143.047 103.375 142.482 104.683C141.951 105.85 141.28 106.946 140.113 107.547C139.052 108.077 137.815 108.113 136.719 107.724C137.391 107.193 138.062 106.663 138.628 106.027C139.406 105.178 139.901 104.153 140.254 103.057C140.643 101.855 141.032 100.653 141.28 99.4504C141.845 96.9755 141.881 94.2532 140.396 92.0965C140.007 91.5308 139.088 92.0611 139.477 92.6268C140.573 94.1825 140.749 96.1623 140.502 98.0362C140.36 99.0615 140.078 100.052 139.795 101.077C139.512 101.996 139.264 102.951 138.875 103.799C138.451 104.718 137.85 105.426 137.108 106.062C136.401 106.663 135.658 107.299 134.88 107.794C133.572 108.643 131.168 109.456 130.461 107.441C130.107 106.416 130.425 105.32 130.85 104.33C131.133 103.622 131.628 102.597 132.511 102.597C132.865 102.597 133.112 102.244 133.006 101.925C132.582 100.511 132.688 99.0262 133.36 97.6826C133.431 97.5412 133.431 97.3645 133.395 97.2584C134.032 96.5513 134.562 95.7381 134.986 94.8896C135.092 94.6421 135.057 94.2885 134.81 94.1471C134.562 94.0056 134.208 94.0763 134.067 94.3238C133.82 94.8542 133.501 95.3846 133.148 95.8795C133.113 95.9149 133.077 95.9856 133.042 96.0209L133.006 96.0563C132.971 96.0917 132.971 96.0917 132.936 96.127C132.83 96.2331 132.759 96.3745 132.653 96.4806C132.582 96.5513 132.511 96.622 132.441 96.6927C130.92 96.0917 130.567 94.1471 130.319 92.6975C130.284 92.4147 129.93 92.2732 129.683 92.344C129.4 92.4147 129.259 92.6975 129.329 92.9804C129.506 94.0057 129.683 95.0664 130.213 95.9856C130.602 96.6574 131.168 97.2231 131.875 97.5766C131.875 97.6827 131.946 97.8241 132.016 97.8948C132.052 97.9302 132.087 97.9655 132.158 97.9655C131.769 99.1323 131.663 100.37 131.91 101.572C131.239 101.784 130.744 102.35 130.355 102.951C129.789 103.905 129.365 105.072 129.329 106.203C129.294 107.158 129.577 108.219 130.284 108.891C131.097 109.668 132.229 109.774 133.254 109.562C134.173 109.385 135.057 108.926 135.835 108.36C137.037 108.997 138.451 109.138 139.759 108.784C140.679 108.537 141.457 108.007 142.093 107.335C142.199 107.512 142.411 107.618 142.659 107.547C143.366 107.37 144.002 107.087 144.568 106.698C145.593 107.193 146.795 106.946 147.679 106.239C148.351 105.673 148.775 104.895 149.023 104.047C149.058 104.082 149.129 104.117 149.164 104.153C150.402 104.895 151.922 104.719 153.23 105.249C153.866 105.496 154.149 104.471 153.513 104.223C152.417 103.764 151.144 103.87 150.048 103.41C148.917 102.915 148.492 101.536 148.209 100.44C147.644 98.2837 147.962 95.6674 149.977 94.3946C150.225 94.3946 150.437 94.3592 150.684 94.3592C151.179 94.3592 151.533 94.4653 151.922 94.7482C152.735 95.3846 153.371 96.3038 154.008 97.117C154.68 98.0009 155.351 98.8848 155.882 99.8394C156.341 100.935 156.2 101.961 155.988 103.128ZM121.056 132.614C121.092 132.862 121.091 133.145 120.95 133.357C120.809 133.569 120.632 133.71 120.384 133.781C119.96 133.887 119.536 133.746 119.218 133.463C119.076 133.321 118.935 133.145 118.899 132.968C118.829 132.756 118.864 132.544 118.935 132.331C118.935 132.296 118.97 132.261 118.97 132.225C119.076 131.978 119.324 131.801 119.571 131.766C119.677 131.73 119.783 131.73 119.889 131.73C119.995 131.73 120.137 131.766 120.243 131.801C120.455 131.872 120.632 131.978 120.773 132.119C120.879 132.225 121.021 132.438 121.056 132.614ZM137.497 111.613C139.088 113.805 139.264 116.881 137.956 119.285C137.638 119.886 136.719 119.356 137.037 118.755C138.168 116.669 137.956 114.088 136.577 112.179C136.188 111.578 137.108 111.047 137.497 111.613Z" fill="black"/>
<path d="M87.2207 120.063C87.6803 115.997 89.5188 112.143 92.3473 109.208C92.7009 108.82 93.1252 108.395 93.1605 107.865C93.1959 107.264 92.7009 106.734 92.4888 106.168C91.9231 104.789 92.807 103.233 92.9484 101.748C93.0899 100.157 92.312 98.6371 92.3473 97.0461C92.3473 94.3591 94.9636 91.9548 97.6507 92.1316L96.8022 91.2831C99.7014 83.1159 92.5948 76.3275 89.3421 69.3977C88.2107 66.9935 87.1854 64.4125 87.4683 61.7962C87.7511 59.1799 89.8371 56.5636 92.4888 56.5989C92.0645 53.8058 95.0344 51.048 97.7922 51.7198C98.5346 50.4823 99.3124 49.1388 100.585 48.5024C101.858 47.866 103.767 48.1842 104.298 49.5277C105.217 48.5024 106.384 47.5479 107.763 47.5479C109.071 47.5479 110.237 48.4671 110.909 49.5631C111.581 50.6592 111.864 51.9673 112.147 53.2401C114.303 51.7905 117.485 52.9926 118.9 55.1847C120.314 57.3767 120.349 60.1699 119.925 62.7509C119.465 65.5086 118.546 68.1956 117.203 70.6352C115.718 73.2869 113.455 75.8679 112.606 78.8024C111.616 82.1259 112.854 85.909 113.844 89.091L113.738 88.3131C115.329 90.788 116.107 93.758 115.93 96.6571C115.894 97.1521 115.859 97.7178 116.071 98.1775C116.319 98.7078 116.884 99.026 117.309 99.4502C117.733 99.8745 118.016 100.582 117.591 101.041" fill="white"/>
<path d="M117.168 71.7668C118.794 69.0798 119.925 66.0745 120.456 62.9632C120.915 60.1701 120.951 56.9527 119.148 54.5838C117.663 52.6393 114.87 51.4725 112.536 52.4625C112.076 50.5179 111.369 48.4319 109.46 47.4773C107.763 46.5934 106.101 47.2298 104.758 48.3612C104.581 48.1844 104.298 48.2198 104.086 48.3966C103.273 47.6894 102.106 47.5127 101.01 47.7955C99.3836 48.2552 98.3584 49.7401 97.5452 51.1189C97.5099 51.1189 97.4745 51.1543 97.4391 51.1543C94.646 50.8361 92.0296 53.2403 91.9236 55.9981C91.8529 56.0334 91.7822 56.0688 91.7115 56.1042C91.6761 56.1042 91.6761 56.1395 91.6407 56.1395C89.5194 56.5284 87.8576 58.3669 87.2212 60.4176C86.2666 63.3521 87.4334 66.5341 88.6708 69.1858C90.8276 73.8882 94.3278 77.8834 96.0602 82.7625C97.0502 85.4849 97.227 88.3487 96.2724 91.1065C96.2017 91.354 96.2724 91.5307 96.4491 91.6721C94.8935 91.955 93.4792 92.945 92.6307 94.2885C92.1004 95.1017 91.7822 96.0917 91.7822 97.0463C91.7822 98.3191 92.2418 99.5565 92.3832 100.794C92.4893 101.996 92.065 103.057 91.8529 104.223C91.7468 104.754 91.7114 105.249 91.8175 105.779C91.9236 106.38 92.2771 106.84 92.5246 107.405C92.7367 107.9 92.4892 108.254 92.171 108.643C91.7821 109.067 91.3933 109.492 91.0044 109.916C90.2619 110.8 89.5901 111.754 89.0244 112.78C87.7516 115.042 86.9737 117.517 86.6909 120.063C86.6202 120.735 87.6808 120.735 87.7516 120.063C87.9991 117.906 88.6709 115.75 89.6608 113.84C90.1558 112.886 90.7569 111.931 91.4286 111.083C91.7468 110.694 92.065 110.305 92.4186 109.916C92.7722 109.527 93.2318 109.138 93.4793 108.643C93.7268 108.219 93.7621 107.724 93.5853 107.229C93.4439 106.769 93.0903 106.38 92.9136 105.885C92.5246 104.825 93.0904 103.658 93.3025 102.597C93.55 101.466 93.4085 100.37 93.161 99.2383C92.9489 98.1777 92.6661 97.117 92.9489 96.0563C93.4793 94.041 95.4945 92.5207 97.5805 92.6268C97.7573 92.6268 97.8634 92.5914 97.9341 92.4853C101.045 93.1217 104.263 93.1571 107.374 92.556C108.859 92.2732 110.379 91.8843 111.758 91.2833C112.571 90.9297 113.349 90.3994 113.844 89.6923C114.693 91.3893 115.223 93.2278 115.329 95.137C115.365 95.7027 115.365 96.233 115.329 96.7987C115.294 97.3998 115.294 98.0009 115.612 98.5312C115.86 98.9555 116.213 99.2384 116.602 99.5212C116.814 99.698 117.451 100.264 117.168 100.617C116.743 101.148 117.486 101.89 117.91 101.36C118.688 100.37 117.981 99.3091 117.168 98.6373C116.673 98.2484 116.355 97.8948 116.355 97.2231C116.355 96.5513 116.425 95.9149 116.39 95.2431C116.284 92.6621 115.471 90.1519 114.092 87.9952C114.056 87.9244 113.986 87.8537 113.915 87.8184C113.102 85.1667 112.289 82.3736 112.819 79.6158C113.526 76.7166 115.612 74.2771 117.168 71.7668ZM109.177 48.5026C110.627 49.3865 111.157 51.0836 111.511 52.6747C111.193 52.71 110.839 52.7807 110.556 52.8514C110.026 52.9575 109.46 53.1696 109 53.4525C107.975 54.1242 107.586 55.2909 107.834 56.493C108.187 58.3315 109.814 59.4983 111.581 59.9226C111.511 60.064 111.511 60.2407 111.581 60.3822C111.546 60.4175 111.511 60.4882 111.475 60.559C111.405 60.8418 111.299 61.1247 111.228 61.4075C111.193 61.549 111.157 61.6904 111.086 61.8318C111.051 61.9379 111.051 62.044 110.98 62.1147C110.874 62.2207 110.662 62.2561 110.521 62.2914C110.309 62.3268 110.097 62.3621 109.884 62.3621C109.107 62.3975 108.364 62.1853 107.728 61.7964C107.728 61.6903 107.763 61.6197 107.763 61.5136C107.834 60.064 107.339 58.6144 107.197 57.1648C107.056 55.7506 106.879 54.3364 106.526 52.9221C106.207 51.6847 105.783 50.4472 105.288 49.2805C106.349 48.3258 107.728 47.6187 109.177 48.5026ZM101.045 48.8915C101.929 48.5026 103.414 48.6441 103.838 49.6694C103.945 49.9169 104.192 50.0936 104.44 50.0583C104.899 51.1543 105.253 52.2857 105.536 53.4525C105.889 54.9728 106.031 56.493 106.207 58.0133C106.349 59.2508 106.808 60.5236 106.667 61.7611L106.632 61.7964C106.561 61.9378 106.526 62.0793 106.596 62.1854C106.596 62.2207 106.561 62.2914 106.561 62.3267C106.42 62.8571 106.101 63.3875 105.536 63.5996C105.005 63.8117 104.44 63.7411 104.086 63.2814C103.98 63.14 103.839 63.1046 103.697 63.1046C103.273 60.2408 102.283 57.3769 100.939 54.8313C100.303 53.6292 99.6311 52.321 98.5351 51.4725C99.1715 50.4825 99.914 49.3511 101.045 48.8915ZM97.6866 52.2503C97.722 52.2503 97.7219 52.2503 97.7573 52.2503C98.6412 52.8867 99.2069 53.8767 99.7373 54.8313C100.374 55.9981 100.939 57.2001 101.399 58.4376C101.859 59.7104 102.212 61.0186 102.495 62.3267C102.707 63.2814 102.99 64.4835 102.601 65.4735C102.354 66.1099 101.788 66.2512 101.151 66.2159C100.515 66.1805 99.9141 66.0745 99.313 65.8977C99.2069 65.0138 98.7826 64.0592 98.5351 63.3167C97.8987 61.5136 97.1916 59.6044 96.237 57.9426C95.5652 56.7759 94.3278 55.6799 92.9842 55.7152C93.2317 53.5585 95.5652 51.7553 97.6866 52.2503ZM113.243 88.8791C112.819 89.7276 111.9 90.2226 111.051 90.5408C109.708 91.0711 108.293 91.4246 106.879 91.6721C103.98 92.1671 101.01 92.0964 98.1462 91.4953C97.9341 91.46 97.7927 91.5308 97.6866 91.6368C97.5452 91.6368 97.4038 91.6368 97.2623 91.6368C97.2977 91.6015 97.3331 91.5308 97.3684 91.46C97.9695 89.763 98.1462 87.9952 98.0048 86.2627C98.0755 86.3335 98.2169 86.4041 98.3583 86.4041C103.061 86.5456 107.798 85.3435 111.829 82.9039C112.006 84.9192 112.642 86.9345 113.243 88.8791ZM111.935 79.333C111.758 80.1108 111.723 80.8886 111.723 81.7018C107.728 84.2121 103.025 85.4849 98.323 85.3081C98.1109 85.3081 97.9695 85.4142 97.8988 85.5202C97.8281 85.0606 97.7573 84.601 97.6512 84.1414C97.0502 81.7372 95.9188 79.5097 94.6813 77.3884C93.4085 75.1963 91.9943 73.1103 90.7922 70.9182C89.4487 68.4433 88.0344 65.6149 88.0344 62.7511C88.0344 60.2055 89.6962 57.1294 92.56 57.1294C92.8075 57.1294 92.9842 56.988 93.0549 56.7759C94.0449 56.7052 94.9642 57.6951 95.4239 58.5437C96.1663 59.8872 96.7673 61.3722 97.2976 62.8218C97.5805 63.5996 97.8281 64.3421 98.0755 65.1199C98.1816 65.4381 98.323 65.8623 98.3583 66.2159C98.3583 66.2512 98.3583 66.2866 98.3583 66.322C98.3583 66.5695 98.2877 66.7816 98.0755 66.9584C97.1563 67.7362 95.5652 66.9937 94.752 66.3927C93.4085 65.4027 92.5954 63.8117 91.8529 62.3621C91.5347 61.7611 90.6154 62.2914 90.9336 62.8925C91.2518 63.5289 91.57 64.1299 91.959 64.731C91.8882 64.7663 91.8176 64.7663 91.7115 64.8017C91.5701 64.837 91.4286 64.8724 91.2871 64.8724C91.1811 64.9078 91.1458 64.9077 90.969 64.9077C90.4033 64.9431 89.9083 64.9431 89.4134 64.8017C89.1305 64.7309 88.8123 64.8724 88.7769 65.1552C88.7062 65.4381 88.8476 65.7563 89.1305 65.7916C90.2619 66.0391 91.464 65.9685 92.56 65.5796C92.9843 66.1806 93.5146 66.7109 94.0803 67.1706C95.2471 68.0545 97.0855 68.7262 98.4644 67.913C98.8887 67.6655 99.1362 67.3119 99.2776 66.923C100.48 67.2766 102 67.4887 102.955 66.7462C103.662 66.1805 103.874 65.2967 103.874 64.4128C104.581 64.8371 105.536 64.8017 106.243 64.4128C106.844 64.0592 107.268 63.4935 107.48 62.8571C108.293 63.2814 109.213 63.4581 110.132 63.3874C110.662 63.3521 111.369 63.246 111.758 62.7864C112.006 62.5035 112.076 62.1854 112.183 61.8318C112.218 61.6904 112.289 61.5136 112.324 61.3722C113.031 62.15 113.986 62.6803 115.046 62.8925C115.329 62.9278 115.647 62.8218 115.683 62.5389C115.753 62.2914 115.612 61.9378 115.329 61.9025C115.188 61.8671 115.011 61.8318 114.87 61.7964C114.799 61.7611 114.728 61.7611 114.657 61.7257C114.622 61.7257 114.551 61.6904 114.516 61.6904C114.233 61.549 113.95 61.4075 113.667 61.2308C113.632 61.1954 113.632 61.1954 113.597 61.1601L113.561 61.1247C113.491 61.0893 113.455 61.0186 113.385 60.9833C113.279 60.8772 113.172 60.7711 113.066 60.665C113.031 60.5943 112.96 60.559 112.925 60.4883L112.89 60.453C112.854 60.4176 112.854 60.4175 112.819 60.3822C112.748 60.3115 112.713 60.2408 112.677 60.1347C112.854 60.1347 113.031 60.1701 113.208 60.1347C114.799 60.0993 116.319 59.4983 117.663 58.7559C118.264 58.4376 117.733 57.5184 117.132 57.8366C114.976 59.0387 111.97 59.8165 109.92 57.978C109.107 57.2709 108.47 55.9627 109.107 54.902C109.389 54.4424 109.849 54.1949 110.344 54.0535C110.627 53.9474 110.91 53.912 111.193 53.8413C111.475 53.806 111.758 53.6999 112.006 53.7706C112.147 53.8414 112.289 53.806 112.395 53.7706C112.43 53.7706 112.465 53.7353 112.501 53.7353C114.445 52.4979 117.097 53.5232 118.37 55.291C120.032 57.5891 119.855 60.7711 119.324 63.4228C118.723 66.4281 117.557 69.2565 115.93 71.8375C114.41 74.171 112.501 76.5045 111.935 79.333ZM105.253 78.0601C101.258 76.8227 100.515 71.6961 101.116 68.1605C101.222 67.4887 102.248 67.7716 102.141 68.4433C101.611 71.3779 102.141 76.0095 105.536 77.0348C106.207 77.247 105.924 78.2722 105.253 78.0601Z" fill="black"/>
<path d="M35.4953 24.3899C35.1064 23.8242 36.0256 23.2939 36.4145 23.8596C39.4905 28.3144 43.0261 32.3803 47.0213 36.022C47.5163 36.4816 46.7739 37.2241 46.2789 36.7645C42.213 33.0875 38.6067 28.9155 35.4953 24.3899ZM146.442 17.9198C142.411 23.7889 138.628 29.7994 135.057 35.9513C134.032 37.7191 133.042 39.4869 132.052 41.2547C131.734 41.8557 132.653 42.3861 132.972 41.785C136.401 35.5624 140.078 29.4458 143.967 23.506C145.063 21.809 146.195 20.1119 147.361 18.4501C147.75 17.8844 146.831 17.3541 146.442 17.9198ZM111.475 0.241846C109.884 2.61069 111.157 6.14625 113.809 7.10085C114.41 7.31299 114.657 6.46447 114.233 6.14626C112.147 4.62596 108.93 5.72199 108.046 8.09084C107.798 8.72724 108.823 9.01011 109.071 8.3737C110.026 5.93414 108.399 2.89356 105.854 2.29251C105.818 2.64606 105.747 2.99959 105.712 3.31779C107.833 3.56528 109.955 2.85815 111.546 1.44391C112.041 0.984286 111.298 0.241864 110.803 0.70149C109.425 1.93895 107.551 2.46925 105.712 2.25711C105.111 2.1864 105.005 3.17633 105.571 3.2824C107.586 3.77738 108.788 6.11087 108.046 8.05545C108.399 8.16151 108.717 8.23224 109.071 8.33831C109.743 6.57052 112.218 5.93413 113.703 7.03016C113.844 6.71196 113.985 6.39377 114.127 6.07557C112.076 5.36845 111.228 2.57534 112.43 0.772185C112.783 0.20649 111.864 -0.323848 111.475 0.241846ZM22.8379 49.0683C23.1561 49.7047 23.7572 50.0583 24.3582 50.3765C24.9239 50.6947 25.3835 51.0482 25.631 51.6493C26.0906 52.71 25.8785 54.0535 24.9946 54.8313C25.3128 54.9727 25.5957 55.0788 25.9139 55.2203C26.0199 54.0889 27.2928 53.3817 28.3181 53.3464C29.803 53.2757 31.1465 54.1242 32.3486 54.8667C32.49 54.5485 32.6314 54.2303 32.7729 53.9121C31.4647 53.3818 30.5455 52.0382 30.5455 50.624C30.5455 49.1744 31.4648 47.9016 32.7376 47.3359C33.2679 47.0884 32.9497 46.3812 32.4547 46.3459C31.5354 46.2752 30.793 46.8409 30.192 47.442C29.5556 48.043 28.9898 48.5733 28.1766 48.8208C26.6209 49.2804 24.8886 48.7855 23.8986 47.5127C23.4743 46.9823 22.7318 47.7248 23.1561 48.2552C24.2875 49.634 26.1613 50.235 27.9291 49.9522C28.7777 49.8108 29.5909 49.4572 30.2273 48.8915C30.899 48.3258 31.5354 47.3359 32.5254 47.4066C32.4193 47.0884 32.3486 46.7348 32.2425 46.4166C30.5808 47.1591 29.4494 48.9269 29.5201 50.7654C29.5909 52.6392 30.8283 54.2656 32.5254 54.9374C33.0911 55.1495 33.4446 54.2656 32.9496 53.9828C31.4293 53.0635 29.7323 52.0736 27.8938 52.3918C26.4089 52.6393 25.0653 53.6999 24.9239 55.2556C24.8885 55.7505 25.525 55.892 25.8432 55.6445C26.9392 54.6899 27.2574 53.0635 26.8331 51.72C26.621 51.0482 26.2321 50.4472 25.6664 49.9876C25.0653 49.5279 24.1815 49.3158 23.8279 48.6087C23.4743 47.9016 22.5551 48.4319 22.8379 49.0683ZM83.049 6.11087C82.8722 12.0507 83.3318 17.9905 84.4279 23.8242C84.5693 24.496 85.5592 24.2131 85.4531 23.5413C84.3925 17.7783 83.9329 11.9446 84.1097 6.11087C84.145 5.43911 83.0844 5.43911 83.049 6.11087ZM145.947 57.3062C146.477 57.8012 147.326 57.6598 147.786 57.1294C148.033 56.8112 148.175 56.4577 148.175 56.0335C148.175 55.6445 148.068 55.2556 147.962 54.902C147.892 54.6545 147.68 54.5131 147.467 54.5131C146.866 54.4778 146.265 54.4778 145.7 54.4424C145.417 54.4424 145.169 54.6899 145.169 54.9728C145.169 55.2556 145.417 55.5031 145.7 55.5031C146.301 55.5385 146.902 55.5385 147.467 55.5738C147.291 55.4324 147.114 55.3263 146.972 55.1849C147.008 55.3263 147.043 55.4677 147.078 55.6091C147.078 55.6798 147.114 55.7506 147.114 55.8213V55.8567C147.114 55.786 147.114 55.7505 147.114 55.7859C147.114 55.8213 147.114 55.8566 147.114 55.892C147.114 55.9627 147.114 56.0334 147.114 56.1042V56.1395C147.114 56.2102 147.114 56.1749 147.114 56.1042C147.114 56.1042 147.114 56.1749 147.078 56.2102C147.078 56.2456 147.079 56.2809 147.043 56.3162V56.3516C147.008 56.4223 147.043 56.3869 147.078 56.3162C147.043 56.3516 147.043 56.387 147.008 56.4223C147.078 56.3163 147.079 56.3517 147.043 56.387C147.043 56.4224 147.008 56.4223 147.008 56.4223C147.008 56.4223 146.972 56.4577 146.937 56.4577C147.043 56.3516 147.008 56.387 146.972 56.4223C146.937 56.4577 146.902 56.4577 146.831 56.493C146.76 56.5284 146.937 56.4577 146.866 56.493C146.831 56.493 146.831 56.493 146.796 56.5284C146.76 56.5284 146.76 56.5284 146.725 56.5284C146.619 56.5638 146.866 56.5284 146.76 56.5284C146.725 56.5284 146.725 56.5284 146.69 56.5284C146.584 56.5284 146.725 56.5284 146.76 56.5284C146.76 56.5284 146.69 56.5284 146.69 56.493C146.584 56.4577 146.76 56.5284 146.725 56.5284C146.725 56.5284 146.69 56.493 146.654 56.493C146.619 56.493 146.76 56.5991 146.69 56.493C146.477 56.2809 146.124 56.2809 145.947 56.493C145.77 56.7759 145.735 57.1294 145.947 57.3062ZM76.1546 18.9805C76.8971 21.42 77.6395 23.895 78.382 26.3345C78.5941 26.9709 79.6195 26.7234 79.4073 26.0516C78.6649 23.6121 77.9224 21.1372 77.1799 18.6976C77.0031 18.0612 75.9778 18.3441 76.1546 18.9805ZM45.501 29.9761C46.491 30.9661 47.4456 31.9207 48.4355 32.9107C48.6477 33.1228 49.0013 33.1228 49.1781 32.9107C49.3548 32.6985 49.3902 32.3804 49.1781 32.1682C48.1881 31.1783 47.2335 30.2236 46.2435 29.2337C46.0314 29.0215 45.6778 29.0215 45.501 29.2337C45.3242 29.4105 45.2889 29.764 45.501 29.9761ZM133.431 27.8547C132.264 29.6225 131.133 31.3903 129.966 33.1581C129.577 33.7238 130.497 34.2542 130.885 33.6885C132.052 31.9207 133.184 30.1529 134.35 28.3851C134.739 27.8194 133.82 27.2537 133.431 27.8547Z" fill="#003B99"/>
</svg>
