<svg width="20" height="20" viewBox="0 0 20 20" fill="none" xmlns="http://www.w3.org/2000/svg">
<path d="M1.66663 15.0003C1.66663 13.7167 1.66663 13.0747 1.95557 12.6032C2.11724 12.3394 2.33907 12.1176 2.6029 11.9559C3.07441 11.667 3.71626 11.667 4.99996 11.667C6.28366 11.667 6.92551 11.667 7.39702 11.9559C7.66085 12.1176 7.88268 12.3394 8.04435 12.6032C8.33329 13.0747 8.33329 13.7167 8.33329 15.0003C8.33329 16.284 8.33329 16.9259 8.04435 17.3974C7.88268 17.6612 7.66085 17.8831 7.39702 18.0447C6.92551 18.3337 6.28366 18.3337 4.99996 18.3337C3.71626 18.3337 3.07441 18.3337 2.6029 18.0447C2.33907 17.8831 2.11724 17.6612 1.95557 17.3974C1.66663 16.9259 1.66663 16.284 1.66663 15.0003Z" stroke="#171717" stroke-width="1.5"/>
<path d="M11.6666 15.0003C11.6666 13.7167 11.6666 13.0747 11.9555 12.6032C12.1172 12.3394 12.339 12.1176 12.6029 11.9559C13.0744 11.667 13.7163 11.667 15 11.667C16.2836 11.667 16.9255 11.667 17.397 11.9559C17.6609 12.1176 17.8827 12.3394 18.0444 12.6032C18.3333 13.0747 18.3333 13.7167 18.3333 15.0003C18.3333 16.284 18.3333 16.9259 18.0444 17.3974C17.8827 17.6612 17.6609 17.8831 17.397 18.0447C16.9255 18.3337 16.2836 18.3337 15 18.3337C13.7163 18.3337 13.0744 18.3337 12.6029 18.0447C12.339 17.8831 12.1172 17.6612 11.9555 17.3974C11.6666 16.9259 11.6666 16.284 11.6666 15.0003Z" stroke="#171717" stroke-width="1.5"/>
<path d="M1.66663 5.00033C1.66663 3.71663 1.66663 3.07478 1.95557 2.60327C2.11724 2.33943 2.33907 2.11761 2.6029 1.95593C3.07441 1.66699 3.71626 1.66699 4.99996 1.66699C6.28366 1.66699 6.92551 1.66699 7.39702 1.95593C7.66085 2.11761 7.88268 2.33943 8.04435 2.60327C8.33329 3.07478 8.33329 3.71663 8.33329 5.00033C8.33329 6.28403 8.33329 6.92588 8.04435 7.39738C7.88268 7.66122 7.66085 7.88304 7.39702 8.04472C6.92551 8.33366 6.28366 8.33366 4.99996 8.33366C3.71626 8.33366 3.07441 8.33366 2.6029 8.04472C2.33907 7.88304 2.11724 7.66122 1.95557 7.39738C1.66663 6.92588 1.66663 6.28403 1.66663 5.00033Z" stroke="#171717" stroke-width="1.5"/>
<path d="M11.6666 5.00033C11.6666 3.71663 11.6666 3.07478 11.9555 2.60327C12.1172 2.33943 12.339 2.11761 12.6029 1.95593C13.0744 1.66699 13.7163 1.66699 15 1.66699C16.2836 1.66699 16.9255 1.66699 17.397 1.95593C17.6609 2.11761 17.8827 2.33943 18.0444 2.60327C18.3333 3.07478 18.3333 3.71663 18.3333 5.00033C18.3333 6.28403 18.3333 6.92588 18.0444 7.39738C17.8827 7.66122 17.6609 7.88304 17.397 8.04472C16.9255 8.33366 16.2836 8.33366 15 8.33366C13.7163 8.33366 13.0744 8.33366 12.6029 8.04472C12.339 7.88304 12.1172 7.66122 11.9555 7.39738C11.6666 6.92588 11.6666 6.28403 11.6666 5.00033Z" stroke="#171717" stroke-width="1.5"/>
</svg>
