<svg width="99" height="99" viewBox="0 0 99 99" fill="none" xmlns="http://www.w3.org/2000/svg">
<g filter="url(#filter0_d_372_3088)">
<path d="M77.625 8H21.375C16.1973 8 12 12.1973 12 17.375V73.625C12 78.8027 16.1973 83 21.375 83H77.625C82.8027 83 87 78.8027 87 73.625V17.375C87 12.1973 82.8027 8 77.625 8Z" fill="#003B99"/>
</g>
<mask id="mask0_372_3088" style="mask-type:luminance" maskUnits="userSpaceOnUse" x="33" y="29" width="33" height="33">
<path d="M65.125 29.875H33.875V61.125H65.125V29.875Z" fill="white"/>
</mask>
<g mask="url(#mask0_372_3088)">
<path d="M37.7812 34.4526C37.7812 33.8829 37.5981 33.415 37.2319 33.0489C36.8657 32.6826 36.3978 32.4995 35.8281 32.4995C35.2585 32.4995 34.7905 32.6826 34.4243 33.0489C34.0581 33.415 33.875 33.8829 33.875 34.4526V54.9604C33.9157 56.3439 34.3836 57.5036 35.2788 58.4395C36.2147 59.3346 37.3744 59.8026 38.7578 59.8433H63.1719C63.7416 59.8433 64.2095 59.6602 64.5756 59.2939C64.9419 58.9277 65.125 58.4598 65.125 57.8901C65.125 57.3205 64.9419 56.8525 64.5756 56.4863C64.2095 56.1201 63.7416 55.937 63.1719 55.937H38.7578C38.1475 55.8963 37.8219 55.5708 37.7812 54.9604V34.4526ZM62.6225 39.7626C62.9887 39.3558 63.1719 38.8878 63.1719 38.3589C63.1719 37.8299 62.9887 37.362 62.6225 36.9551C62.2156 36.5889 61.7477 36.4058 61.2188 36.4058C60.6898 36.4058 60.2219 36.5889 59.815 36.9551L53.4062 43.4248L49.9272 39.8848C49.5203 39.5186 49.0524 39.3354 48.5234 39.3354C47.9945 39.3354 47.5265 39.5186 47.1196 39.8848L40.2837 46.7207C39.9175 47.1276 39.7344 47.5955 39.7344 48.1245C39.7344 48.6535 39.9175 49.1214 40.2837 49.5283C40.6906 49.8945 41.1585 50.0776 41.6875 50.0776C42.2165 50.0776 42.6844 49.8945 43.0913 49.5283L48.5234 44.0351L52.0025 47.5752C52.4094 47.9414 52.8773 48.1245 53.4062 48.1245C53.9352 48.1245 54.4031 47.9414 54.81 47.5752L62.6225 39.7626Z" fill="#99F6EC"/>
</g>
<defs>
<filter id="filter0_d_372_3088" x="0" y="0" width="99" height="99" filterUnits="userSpaceOnUse" color-interpolation-filters="sRGB">
<feFlood flood-opacity="0" result="BackgroundImageFix"/>
<feColorMatrix in="SourceAlpha" type="matrix" values="0 0 0 0 0 0 0 0 0 0 0 0 0 0 0 0 0 0 127 0" result="hardAlpha"/>
<feOffset dy="4"/>
<feGaussianBlur stdDeviation="6"/>
<feComposite in2="hardAlpha" operator="out"/>
<feColorMatrix type="matrix" values="0 0 0 0 0.156863 0 0 0 0 0.517647 0 0 0 0 0.937255 0 0 0 0.35 0"/>
<feBlend mode="normal" in2="BackgroundImageFix" result="effect1_dropShadow_372_3088"/>
<feBlend mode="normal" in="SourceGraphic" in2="effect1_dropShadow_372_3088" result="shape"/>
</filter>
</defs>
</svg>
