<svg width="16" height="14" viewBox="0 0 16 14" fill="none" xmlns="http://www.w3.org/2000/svg">
<path d="M8 9.50698C7.50325 9.50698 7.01765 9.35967 6.60461 9.08369C6.19158 8.80771 5.86966 8.41545 5.67956 7.95651C5.48946 7.49757 5.43972 6.99256 5.53663 6.50535C5.63354 6.01815 5.87275 5.57062 6.22401 5.21936C6.57527 4.8681 7.0228 4.62889 7.51001 4.53198C7.99721 4.43507 8.50222 4.48481 8.96116 4.67491C9.4201 4.86501 9.81236 5.18693 10.0883 5.59996C10.3643 6.013 10.5116 6.4986 10.5116 6.99535C10.5098 7.66091 10.2446 8.29868 9.77396 8.7693C9.30333 9.23993 8.66556 9.50514 8 9.50698ZM8 5.53023C7.71023 5.53023 7.42696 5.61616 7.18602 5.77715C6.94509 5.93814 6.7573 6.16696 6.64641 6.43467C6.53552 6.70239 6.5065 6.99697 6.56304 7.28118C6.61957 7.56538 6.75911 7.82644 6.96401 8.03134C7.16891 8.23624 7.42997 8.37578 7.71417 8.43231C7.99837 8.48885 8.29296 8.45983 8.56068 8.34894C8.82839 8.23805 9.05721 8.05026 9.2182 7.80932C9.37919 7.56839 9.46512 7.28512 9.46512 6.99535C9.46512 6.60678 9.31076 6.23412 9.03599 5.95935C8.76123 5.68459 8.38857 5.53023 8 5.53023ZM8 13.4907C6.1094 13.4041 4.31138 12.6473 2.92791 11.3558C1.40698 10.0233 0.5 8.3907 0.5 6.99535C0.5 3.89767 4.42791 0.5 8 0.5C11.5721 0.5 15.5 3.98837 15.5 6.99535C15.5 10.1488 11.6419 13.4907 8 13.4907ZM8 1.54651C5.04884 1.54651 1.54651 4.49767 1.54651 6.99535C1.54651 8.08372 2.34186 9.45116 3.63953 10.5674C4.83059 11.681 6.37251 12.3446 8 12.4442C11.3209 12.4442 14.4535 9.37442 14.4535 6.99535C14.4535 4.74186 11.1186 1.54651 8 1.54651Z" fill="#99A1B7"/>
</svg>
