<svg width="134" height="40" viewBox="0 0 134 40" fill="none" xmlns="http://www.w3.org/2000/svg">
<g clip-path="url(#clip0_383_1725)">
<path d="M0.000226397 26.0966V15.9406C0.000226397 13.7465 0.903021 11.5141 2.35747 9.68522C3.81192 7.85623 5.82096 6.42704 8.03331 5.83915L29.0059 0.265945C31.0831 -0.286092 32.9692 0.053318 34.3347 1.04445C35.4337 1.8425 36.1971 3.06437 36.4531 4.58524C26.9886 7.10025 17.507 9.50545 8.03331 12.0229C7.5421 12.1534 7.09331 12.4742 6.76601 12.8859C6.43864 13.2975 6.23549 13.7965 6.23549 14.2836V24.4396C6.23549 27.7196 7.59078 30.3436 9.77415 31.9287C11.9575 33.5139 14.9665 34.0584 18.2738 33.1795C21.581 32.3007 24.59 30.157 26.7734 27.4114C28.9568 24.6658 30.3121 21.3216 30.3121 18.0417V14.7547L12.2723 19.5173C10.5504 19.9749 9.15465 18.9614 9.15465 17.2539C9.15465 15.5463 10.5505 13.7911 12.2723 13.3335L33.4298 7.74247C35.1517 7.28496 36.5474 8.29832 36.5474 10.0058C36.5474 10.0249 36.5471 10.0439 36.5467 10.063L36.5474 10.0628V16.3848C36.5474 21.3717 34.4926 26.4492 31.182 30.6121C27.8715 34.7751 23.3022 38.0272 18.2738 39.3634C13.2452 40.6997 8.67597 39.876 5.36545 37.4725C2.05493 35.0691 0 31.0837 0 26.0967L0.000226397 26.0966Z" fill="#003B99"/>
<path d="M51.5558 28.8217C49.8528 28.8217 48.3181 28.436 46.9515 27.6645C45.5849 26.893 44.5074 25.7306 43.719 24.1772C42.9306 22.6238 42.5364 20.6691 42.5364 18.3129C42.5364 16.5822 42.7624 15.0393 43.2144 13.684C43.6665 12.3287 44.3444 11.1767 45.2485 10.228C46.1525 9.27932 47.2616 8.5547 48.5756 8.0543C49.8896 7.55391 51.4087 7.30371 53.1326 7.30371C54.4361 7.30371 55.6188 7.44973 56.6805 7.74161C57.7422 8.03357 58.662 8.45052 59.44 8.99268C60.2179 9.53484 60.8223 10.1812 61.2534 10.9318C61.6844 11.6824 61.9103 12.5269 61.9314 13.4652L57.1378 14.9352C57.1168 14.1637 56.917 13.5173 56.5385 12.9961C56.1601 12.4748 55.6556 12.0734 55.0248 11.7919C54.3941 11.5104 53.6897 11.3697 52.9118 11.3697C51.8186 11.3697 50.8988 11.6147 50.1523 12.1046C49.4061 12.5947 48.8383 13.34 48.4494 14.3408C48.0604 15.3417 47.8659 16.5928 47.8659 18.094C47.8659 19.22 47.9763 20.2052 48.197 21.0497C48.4178 21.8941 48.749 22.5979 49.1905 23.1608C49.632 23.7238 50.1733 24.146 50.8146 24.4275C51.4558 24.709 52.218 24.8497 53.101 24.8497C53.984 24.8497 54.7462 24.7142 55.3874 24.4431C56.0286 24.172 56.5385 23.7551 56.9169 23.1921C57.2954 22.6291 57.4951 21.9097 57.5162 21.0341H53.8264V17.4686H62.562V21.4719V28.3839H59.093L59.03 23.2233H58.3993C58.0418 24.4327 57.5794 25.4544 57.0116 26.2884C56.444 27.1224 55.7186 27.7532 54.8357 28.1806C53.9526 28.608 52.8594 28.8217 51.5558 28.8217Z" fill="#003B99"/>
<path d="M75.083 28.8211C74.0318 28.8211 73.112 28.623 72.3236 28.2268C71.5352 27.8306 70.8939 27.2364 70.3998 26.444C69.9057 25.6517 69.5746 24.6717 69.4064 23.504H68.8072L68.7126 28.3831H64.5497V20.2826V5.86426H69.6271V11.3376C69.6271 11.8381 69.5903 12.3645 69.5168 12.9171C69.4432 13.4697 69.3486 14.0483 69.2329 14.653C69.1173 15.2576 68.9964 15.9041 68.8702 16.5921H69.5955C69.8899 15.4662 70.2787 14.5279 70.7624 13.7772C71.246 13.0266 71.8504 12.4584 72.5758 12.0726C73.3011 11.6868 74.1579 11.494 75.146 11.494C76.5336 11.494 77.7373 11.8484 78.757 12.5573C79.7766 13.2662 80.5704 14.2723 81.138 15.5755C81.7057 16.8787 81.9894 18.4373 81.9894 20.2513C81.9894 22.0028 81.7109 23.5196 81.1538 24.802C80.5965 26.0843 79.803 27.0747 78.7727 27.7733C77.7425 28.4717 76.5126 28.821 75.083 28.821L75.083 28.8211ZM73.1908 24.7551C73.8846 24.7551 74.4944 24.5623 75.02 24.1765C75.5456 23.7907 75.9504 23.2486 76.2342 22.5501C76.518 21.8516 76.66 21.0332 76.66 20.0949C76.66 19.1358 76.5233 18.3173 76.25 17.6397C75.9766 16.9621 75.593 16.4356 75.0989 16.0603C74.6047 15.6849 74.0108 15.4973 73.317 15.4973C72.8545 15.4973 72.4288 15.5807 72.0397 15.7475C71.6508 15.9143 71.3092 16.1437 71.0148 16.4355C70.7204 16.7275 70.4682 17.0558 70.258 17.4207C70.0477 17.7856 69.89 18.1713 69.7849 18.5779C69.6798 18.9846 69.6272 19.3859 69.6272 19.7821V20.4388C69.6272 20.8767 69.6903 21.3458 69.8164 21.8463C69.9426 22.3467 70.1476 22.8158 70.4314 23.2537C70.7153 23.6916 71.0831 24.0512 71.5353 24.3327C71.9873 24.6143 72.5391 24.755 73.1909 24.755L73.1908 24.7551Z" fill="#003B99"/>
<path d="M91.325 28.8213C89.9374 28.8213 88.697 28.6388 87.6038 28.2739C86.5105 27.909 85.5801 27.3721 84.8127 26.6631C84.0453 25.9542 83.4619 25.0785 83.0624 24.0359C82.6629 22.9934 82.4631 21.7945 82.4631 20.4391C82.4631 19.1255 82.6577 17.9162 83.0466 16.8111C83.4356 15.706 83.9927 14.7521 84.7181 13.9493C85.4434 13.1466 86.337 12.5262 87.3987 12.0884C88.4604 11.6505 89.6535 11.4316 90.9781 11.4316C92.3237 11.4316 93.5063 11.6454 94.526 12.0727C95.5457 12.5002 96.3867 13.1309 97.0489 13.9649C97.7112 14.7989 98.2 15.8154 98.5154 17.0144C98.8308 18.2133 98.936 19.5843 98.8308 21.1272L85.8062 21.2211V18.5939L95.9295 18.5L94.1318 19.7198C94.2791 18.6773 94.216 17.8277 93.9426 17.1708C93.6693 16.514 93.2699 16.0344 92.7442 15.7321C92.2185 15.4297 91.651 15.2785 91.0412 15.2785C90.3053 15.2785 89.6588 15.4766 89.1017 15.8729C88.5446 16.269 88.1083 16.8424 87.7929 17.593C87.4776 18.3436 87.3199 19.2611 87.3199 20.3454C87.3199 22.0552 87.6931 23.2958 88.4394 24.0673C89.1857 24.8387 90.1372 25.2245 91.2935 25.2245C91.8612 25.2245 92.3342 25.1463 92.7127 24.9899C93.0912 24.8335 93.4012 24.6354 93.643 24.3956C93.8848 24.1558 94.074 23.89 94.2107 23.5981C94.3474 23.3061 94.4578 23.0246 94.5418 22.7536L98.9569 23.6919C98.7887 24.4634 98.5207 25.1619 98.1528 25.7874C97.7848 26.4129 97.2908 26.9551 96.6706 27.4138C96.0504 27.8726 95.304 28.2218 94.4314 28.4616C93.559 28.7014 92.5235 28.8213 91.3251 28.8213H91.325Z" fill="#003B99"/>
<path d="M106.747 34.1386C105.906 34.1386 105.044 34.0656 104.161 33.9196C103.278 33.7737 102.442 33.5599 101.654 33.2785C100.865 32.997 100.187 32.627 99.6197 32.1682L100.85 27.6958C101.585 28.3838 102.474 28.8946 103.514 29.2283C104.555 29.5619 105.559 29.7288 106.526 29.7288C107.641 29.7288 108.56 29.515 109.286 29.0876C110.011 28.6602 110.568 28.0034 110.957 27.1172C111.346 26.2311 111.572 25.1312 111.635 23.8176L111.793 21.0965H111.036C110.847 22.4518 110.516 23.557 110.043 24.4118C109.57 25.2667 108.97 25.8974 108.245 26.304C107.52 26.7106 106.663 26.9139 105.675 26.9139C104.455 26.9139 103.436 26.6116 102.616 26.0069C101.796 25.4022 101.181 24.49 100.771 23.2702C100.361 22.0505 100.156 20.5336 100.156 18.7195V11.8701H105.265V17.4685C105.265 19.3868 105.459 20.7577 105.848 21.5814C106.237 22.4049 106.852 22.8168 107.693 22.8168C108.135 22.8168 108.534 22.6916 108.892 22.4414C109.249 22.1912 109.554 21.8367 109.806 21.3781C110.058 20.9193 110.253 20.3616 110.39 19.7048C110.526 19.048 110.594 18.3129 110.594 17.4998V11.8701H115.672V24.0053C115.672 25.3189 115.551 26.5178 115.309 27.602C115.067 28.6863 114.71 29.635 114.237 30.4482C113.764 31.2614 113.17 31.9442 112.455 32.4968C111.74 33.0494 110.91 33.4612 109.964 33.7322C109.018 34.0032 107.945 34.1388 106.747 34.1388L106.747 34.1386Z" fill="#003B99"/>
<path d="M121.854 28.8213C120.929 28.8213 120.109 28.6389 119.394 28.2739C118.679 27.9091 118.122 27.3774 117.723 26.6788C117.323 25.9804 117.123 25.1306 117.123 24.1298C117.123 23.1915 117.307 22.4148 117.675 21.7998C118.043 21.1847 118.579 20.6946 119.284 20.3297C119.988 19.9649 120.834 19.6626 121.823 19.4228C122.811 19.183 123.935 18.9692 125.197 18.7816C125.807 18.6774 126.316 18.5783 126.726 18.4845C127.136 18.3906 127.447 18.2394 127.657 18.0309C127.867 17.8224 127.972 17.5201 127.972 17.1239C127.972 16.6026 127.783 16.1544 127.404 15.7791C127.026 15.4037 126.416 15.216 125.575 15.216C124.987 15.216 124.456 15.3203 123.983 15.5288C123.51 15.7374 123.105 16.0398 122.769 16.4358C122.432 16.832 122.18 17.3116 122.012 17.8746L117.533 16.561C117.807 15.6852 118.19 14.9242 118.685 14.2778C119.179 13.6315 119.773 13.0945 120.466 12.6671C121.16 12.2396 121.954 11.9269 122.847 11.7288C123.741 11.5307 124.692 11.4316 125.702 11.4316C127.384 11.4316 128.755 11.6975 129.817 12.2292C130.879 12.7608 131.667 13.5845 132.182 14.7C132.697 15.8155 132.955 17.249 132.955 19.0004V21.5338C132.955 22.2844 132.971 23.0403 133.002 23.8014C133.034 24.5624 133.076 25.3234 133.128 26.0845C133.181 26.8455 133.249 27.6118 133.333 28.3833H128.855C128.771 27.9037 128.687 27.3251 128.603 26.6474C128.519 25.9698 128.456 25.2765 128.414 24.5676H127.814C127.52 25.3599 127.094 26.0845 126.537 26.7412C125.98 27.398 125.307 27.9089 124.519 28.2738C123.731 28.6387 122.842 28.8212 121.854 28.8212V28.8213ZM124.156 25.2558C124.535 25.2558 124.918 25.188 125.307 25.0525C125.696 24.917 126.069 24.7293 126.427 24.4895C126.784 24.2497 127.11 23.9526 127.404 23.5982C127.699 23.2437 127.92 22.858 128.067 22.4409L128.004 19.9701L128.697 20.1265C128.298 20.3767 127.857 20.5748 127.373 20.7208C126.889 20.8668 126.401 20.9814 125.906 21.0648C125.412 21.1483 124.929 21.2369 124.456 21.3307C123.983 21.4246 123.562 21.5445 123.194 21.6904C122.826 21.8364 122.537 22.0345 122.327 22.2847C122.117 22.5349 122.012 22.879 122.012 23.3168C122.012 23.9007 122.211 24.3698 122.611 24.7242C123.01 25.0788 123.525 25.256 124.156 25.256L124.156 25.2558Z" fill="#003B99"/>
</g>
<defs>
<clipPath id="clip0_383_1725">
<rect width="133.333" height="40" fill="white"/>
</clipPath>
</defs>
</svg>
