<svg width="15" height="14" viewBox="0 0 15 14" fill="none" xmlns="http://www.w3.org/2000/svg">
<path d="M13.9166 7.14436C13.9166 6.72193 13.8784 6.32089 13.8128 5.93054H7.63928V8.34214H11.174C11.0156 9.13353 10.5512 9.80193 9.86285 10.2564V11.8606H11.9717C13.2064 10.743 13.9166 9.0961 13.9166 7.14436Z" fill="#4285F4"/>
<path d="M7.63942 13.4168C9.40954 13.4168 10.8901 12.8393 11.9718 11.8607L9.86299 10.2566C9.27295 10.6416 8.52448 10.8768 7.63942 10.8768C5.9294 10.8768 4.48162 9.74857 3.96261 8.22461H1.78821V9.8769C2.86448 11.973 5.07713 13.4168 7.63942 13.4168Z" fill="#34A853"/>
<path d="M3.96254 8.22461C3.82596 7.83961 3.75494 7.42787 3.75494 7.00009C3.75494 6.57232 3.83142 6.16058 3.96254 5.77558V4.12329H1.78814C1.34015 4.98954 1.08337 5.96273 1.08337 7.00009C1.08337 8.03746 1.34015 9.01065 1.78814 9.8769L3.96254 8.22461Z" fill="#FBBC05"/>
<path d="M7.63942 3.1233C8.60643 3.1233 9.46963 3.44949 10.1525 4.08581L12.021 2.25706C10.8901 1.21969 9.40954 0.583374 7.63942 0.583374C5.07713 0.583374 2.86448 2.02713 1.78821 4.12324L3.96261 5.77553C4.48162 4.25157 5.9294 3.1233 7.63942 3.1233Z" fill="#EA4335"/>
</svg>
