<svg width="20" height="20" viewBox="0 0 20 20" fill="none" xmlns="http://www.w3.org/2000/svg">
<path d="M9.17204 17.4997H8.00451C5.0168 17.4997 3.52295 17.4997 2.59478 16.5539C1.66663 15.6081 1.66663 14.0858 1.66663 11.0413C1.66663 7.99686 1.66663 6.47461 2.59478 5.52881C3.52295 4.58301 5.0168 4.58301 8.00451 4.58301H11.1735C14.1611 4.58301 15.655 4.58301 16.5832 5.52881C17.2973 6.2565 17.462 7.32542 17.5 9.16632" stroke="#171717" stroke-width="1.5" stroke-linecap="round"/>
<path d="M16.6806 16.6864L18.3332 18.3337M17.544 14.6057C17.544 12.9827 16.2283 11.667 14.6053 11.667C12.9822 11.667 11.6665 12.9827 11.6665 14.6057C11.6665 16.2288 12.9822 17.5446 14.6053 17.5446C16.2283 17.5446 17.544 16.2288 17.544 14.6057Z" stroke="#171717" stroke-width="1.5" stroke-linecap="round" stroke-linejoin="round"/>
<path d="M13.3332 4.58366L13.2503 4.32611C12.8378 3.04273 12.6316 2.40105 12.1405 2.03402C11.6495 1.66699 10.9972 1.66699 9.69275 1.66699H9.4735C8.169 1.66699 7.51675 1.66699 7.02572 2.03402C6.53468 2.40105 6.32842 3.04273 5.91591 4.32611L5.83313 4.58366" stroke="#171717" stroke-width="1.5"/>
</svg>
