<svg width="183" height="181" viewBox="0 0 183 181" fill="none" xmlns="http://www.w3.org/2000/svg">
<path d="M168.676 111.013C160.286 110.053 153.952 118.749 151.71 126.895C149.511 135.048 149.188 144.154 143.92 150.815C139.203 156.77 131.386 159.466 123.814 160.307C116.242 161.149 108.591 160.525 101.013 161.41C89.4916 162.734 78.1338 167.519 66.6462 165.811C52.7091 163.72 41.1027 150.944 40.353 136.871C39.952 129.016 42.5472 121.145 41.66 113.302C39.7139 96.1802 22.1285 84.7584 17.4131 68.1724C14.3667 57.5265 16.997 46.051 20.9541 35.6635C22.8212 30.7604 24.9824 25.9474 28.3387 21.9375C33.3699 15.9442 41.0412 12.2126 48.8331 11.9338C66.6328 11.2824 80.6563 26.9021 97.7976 31.8709C106.053 34.262 115.018 34.0786 123.2 31.3073C129.756 29.0744 135.675 25.289 142.202 22.9634C148.722 20.6808 156.475 20.0878 162.157 24.0137C165.297 26.1774 167.498 29.5591 168.971 33.0912C173.814 44.6343 171.715 57.7778 169.523 70.1141" fill="#DBE4FE"/>
<path d="M182.946 98.9368C182.772 95.0656 182.555 91.1509 182.337 87.2798C181.902 79.4504 181.511 71.6646 181.076 63.8353C180.858 59.9206 180.641 56.0059 180.467 52.1347C180.38 50.1774 180.249 48.22 180.162 46.2627C180.075 44.4794 180.032 42.7395 179.814 40.9562C179.597 39.4338 179.205 37.8244 178.292 36.563C177.465 35.4321 176.378 34.6492 175.073 34.1273C172.42 33.0834 169.419 33.2573 166.635 33.5183C158.849 34.1707 151.107 34.8232 143.321 35.5191C140.494 35.7801 137.666 35.8671 134.796 35.9976C132.012 36.1281 129.185 36.3455 126.444 36.998C123.878 37.6504 121.312 38.7378 119.441 40.6952C117.267 42.957 116.223 46.0452 115.918 49.09C115.527 52.8741 116.31 56.6148 116.31 60.399C116.31 64.2702 116.223 68.0979 116.223 71.9691C116.223 79.7549 116.136 87.4972 116.049 95.2831C116.049 97.1969 116.005 99.1108 116.005 101.025C116.005 103.547 116.005 106.157 117.049 108.506C118.006 110.681 119.833 112.203 122.051 113.03C124.226 113.813 126.618 113.9 128.924 113.9C131.968 113.856 134.97 113.682 138.014 113.552C144.365 113.291 150.715 112.986 157.066 112.638C158.675 112.551 160.241 112.464 161.807 112.334C162.938 112.247 164.069 112.203 165.156 112.551C166.939 113.073 168.114 114.465 169.158 115.9C172.724 121.033 175.9 126.426 178.335 132.168C178.596 132.82 179.51 132.385 179.553 131.82C180.162 124.469 181.641 117.249 182.424 109.941C182.859 106.201 183.12 102.547 182.946 98.9368ZM181.598 105.026C181.206 112.247 179.814 119.337 178.857 126.47C178.727 127.383 178.64 128.253 178.553 129.167C177.64 127.209 176.683 125.296 175.595 123.425C174.247 121.033 172.724 118.728 171.202 116.422C170.158 114.856 169.114 113.204 167.548 112.116C165.721 110.811 163.59 110.811 161.415 110.942C155.152 111.333 148.845 111.638 142.581 111.942C139.406 112.073 136.231 112.203 133.056 112.377C130.489 112.464 127.923 112.682 125.357 112.377C122.921 112.073 120.355 111.246 118.919 109.115C117.31 106.766 117.31 103.721 117.31 100.981C117.354 93.3693 117.397 85.8009 117.484 78.1891C117.528 74.4049 117.528 70.6206 117.528 66.793C117.528 64.9226 117.571 63.0088 117.615 61.1384C117.658 59.3116 117.528 57.4847 117.354 55.7014C117.093 52.2652 116.875 48.7855 118.049 45.4798C119.006 42.7395 120.92 40.6517 123.53 39.3903C125.922 38.2594 128.619 37.7809 131.229 37.5634C133.926 37.3025 136.666 37.259 139.363 37.1285C142.799 36.9545 146.235 36.6066 149.671 36.3021C153.456 35.9976 157.24 35.6497 160.98 35.3452C162.894 35.1712 164.808 35.0407 166.678 34.8667C168.114 34.7362 169.506 34.6492 170.941 34.6927C173.638 34.8232 176.422 35.6496 177.683 38.2159C178.379 39.6078 178.509 41.2172 178.596 42.7396C178.727 44.6099 178.814 46.4802 178.901 48.307C179.118 52.1347 179.292 55.9624 179.51 59.7901C179.901 67.402 180.336 75.0573 180.728 82.6691C180.945 86.4533 181.119 90.2811 181.337 94.0652C181.598 97.7624 181.772 101.373 181.598 105.026ZM168.375 76.6667C165.2 76.1013 161.937 75.5358 159.11 73.8394C156.631 72.3606 154.717 70.0987 154.108 67.2715C153.499 64.5312 153.977 61.7039 154.151 58.9202C154.195 58.1807 154.195 57.3978 154.151 56.6584C154.108 56.0494 154.065 55.4405 153.804 54.9185C153.238 53.8746 151.846 53.8311 150.889 54.2226C148.801 55.049 147.888 57.5718 147.801 59.6596C147.671 62.5304 148.627 65.2706 148.801 68.1414C148.888 70.1857 148.671 72.7085 146.975 74.1439C145.061 75.7533 142.408 75.3182 140.102 75.0573C137.405 74.7528 134.317 74.7963 132.186 76.7537C130.62 78.1891 130.098 80.7553 131.577 82.3647C133.273 83.4956 135.361 83.8871 137.318 83.3651C138.145 83.1476 138.493 84.409 137.666 84.6265C135.666 85.1484 133.491 84.8875 131.664 83.9306C130.402 85.3225 130.663 87.6712 132.534 88.4542C132.708 88.5411 132.838 88.6717 132.925 88.8021C134.839 89.3676 136.84 89.5416 138.797 89.2806C139.145 89.2371 139.45 89.6286 139.45 89.9331C139.45 90.3246 139.145 90.542 138.797 90.5855C136.709 90.8465 134.578 90.6724 132.577 90.0635C131.925 91.6294 132.534 93.4128 133.969 94.2827C134.1 94.2392 134.23 94.1957 134.404 94.2827C136.709 95.0222 139.145 95.1961 141.494 94.7177C142.321 94.5437 142.668 95.8051 141.842 95.979C139.624 96.414 137.362 96.3705 135.231 95.8485C134.535 96.6315 135.144 97.7624 135.883 98.2844C136.883 99.0238 138.232 99.3283 139.406 99.5893C144.234 100.503 148.671 98.3278 153.325 97.3709C158.023 96.414 162.894 96.6315 167.461 97.9799C168.288 98.1974 167.94 99.4587 167.113 99.2413C164.243 98.4148 161.285 98.0233 158.284 98.1103C155.717 98.1973 153.195 98.6758 150.759 99.3718C148.28 100.068 145.844 100.851 143.277 101.112C140.842 101.329 138.188 100.938 135.97 99.8937C135.013 99.4153 134.143 98.6758 133.795 97.6319C133.578 97.023 133.621 96.327 133.839 95.718C131.533 94.6741 130.446 91.9338 131.403 89.6285C131.316 89.5415 131.229 89.3676 131.229 89.2371C130.402 88.6282 129.794 87.7582 129.62 86.7143C129.402 85.4964 129.75 84.1916 130.576 83.2781C128.837 81.3643 129.185 78.276 130.837 76.3622C132.969 73.8829 136.448 73.4479 139.537 73.7524C141.712 73.9699 144.93 74.8398 146.54 72.7955C147.888 71.0556 147.627 68.3153 147.323 66.271C146.888 63.3568 146.018 60.3121 146.931 57.3978C147.584 55.1795 149.236 53.0481 151.672 52.7872C152.847 52.6567 154.108 53.0482 154.847 54.0486C155.63 55.1795 155.63 56.7454 155.587 58.0503C155.543 60.921 154.891 63.8788 155.413 66.7495C155.935 69.4898 157.675 71.5776 160.067 72.926C162.72 74.4484 165.809 74.9703 168.81 75.4922C169.549 75.5357 169.201 76.7972 168.375 76.6667ZM135.144 41.9566C134.709 41.2607 135.84 40.6082 136.275 41.3042C137.884 43.827 139.885 46.0888 142.147 48.0461C142.407 48.2636 142.364 48.742 142.147 48.9595C141.886 49.2204 141.494 49.1769 141.233 48.9595C138.884 46.9586 136.84 44.6099 135.144 41.9566ZM159.632 50.2209C161.415 47.8286 163.242 45.4363 165.026 43.044C165.243 42.783 165.591 42.6091 165.939 42.8265C166.2 43.0005 166.374 43.4354 166.156 43.7399C164.373 46.1322 162.546 48.5245 160.763 50.9168C160.545 51.1778 160.197 51.3518 159.85 51.1343C159.589 50.9603 159.415 50.5254 159.632 50.2209ZM151.063 47.0457C151.063 44.9143 151.063 42.783 151.063 40.6517C151.063 39.8253 152.368 39.8253 152.368 40.6517C152.368 42.783 152.368 44.9143 152.368 47.0457C152.368 47.9156 151.063 47.9156 151.063 47.0457Z" fill="black"/>
<path d="M107.959 29.5568C107.857 27.2246 107.401 24.7403 105.982 22.8137C104.41 20.6843 102.027 19.6704 99.4921 19.3155C96.5009 18.9099 93.4082 19.0113 90.3662 19.0113C87.0201 19.0113 83.6739 19.0113 80.3277 19.062C66.9938 19.2648 53.7105 20.0252 40.4779 21.2927C37.2332 21.5969 33.9884 21.9519 30.7437 22.3575C30.5409 22.3575 30.3888 22.4589 30.2367 22.611C28.4115 23.0673 26.9919 24.3347 26.13 26.1092C25.4709 27.3767 25.2174 28.7455 25.0146 30.1651C24.8118 31.7368 24.609 33.3591 24.4062 34.9308C23.5443 41.5217 22.7332 48.1127 22.0234 54.7036C20.6038 67.9361 19.6912 81.2194 20.0968 94.5534C20.4517 107.634 21.8713 120.664 23.443 133.643C23.6458 135.265 23.7979 136.938 24.0514 138.561C24.2035 139.777 25.2175 140.741 26.485 140.132C27.651 139.524 28.158 138.155 28.7664 137.09C29.4762 135.823 30.2873 134.606 31.0985 133.389C32.7716 131.006 34.5969 128.725 36.6248 126.646C38.3993 124.77 40.3259 122.844 42.5566 121.475C44.2297 120.41 46.0549 120.005 48.0828 120.055C50.8206 120.157 53.5077 120.816 56.1947 121.12C62.228 121.779 68.3119 121.83 74.2944 121.272C80.2262 120.765 86.1581 119.7 91.9378 118.078C94.5235 117.368 97.312 116.658 99.4414 114.935C101.571 113.211 102.331 110.524 102.635 107.938C102.686 107.33 102.788 106.721 102.838 106.062C102.94 105.91 102.94 105.758 102.889 105.555C103.092 103.172 103.193 100.739 103.345 98.3559C103.599 95.0097 103.802 91.6129 104.055 88.2667C104.511 81.6251 104.968 74.9834 105.475 68.3418C105.931 61.5988 106.438 54.9064 106.894 48.1634C107.148 44.8173 107.351 41.4204 107.604 38.0743C107.807 35.2858 108.111 32.3959 107.959 29.5568ZM101.267 106.519C101.064 109.053 100.658 111.791 98.6809 113.616C96.7036 115.391 93.7124 116.05 91.2281 116.709C90.7211 116.861 90.214 116.963 89.7577 117.115C89.707 117.013 89.6564 116.912 89.555 116.81C86.6651 114.377 86.513 109.763 88.1354 106.569C89.8085 103.223 93.6616 101.043 97.3626 102.209C99.0864 102.767 100.607 104.085 101.368 105.758C101.317 106.012 101.317 106.265 101.267 106.519ZM101.52 103.274C99.34 100.739 95.791 99.7247 92.4956 100.84C88.0847 102.31 85.4483 106.721 85.6004 111.284C85.6511 113.566 86.4624 115.948 88.0847 117.571C86.4117 117.976 84.6879 118.331 83.0148 118.636L82.9641 118.585C82.7613 118.483 82.5585 118.382 82.3557 118.23C82.2543 118.179 82.2036 118.129 82.1022 118.078L82.0514 118.027C82.0514 118.027 82.0008 117.976 81.9501 117.976C81.5952 117.672 81.291 117.368 80.9868 117.064C80.9361 117.013 80.936 116.963 80.8853 116.963C80.8346 116.861 80.7333 116.76 80.6826 116.709C80.5812 116.506 80.4291 116.354 80.3277 116.151C80.2263 115.949 80.1249 115.746 80.0235 115.594C79.9728 115.492 79.922 115.391 79.8713 115.289L79.8207 115.188C79.8207 115.137 79.77 115.137 79.77 115.087C79.6686 114.833 79.4658 114.63 79.2123 114.529C79.0602 114.225 78.7053 114.123 78.3504 114.174C77.235 114.326 76.1196 114.478 75.0549 114.63C74.8014 114.681 74.548 114.681 74.2438 114.732C74.0917 114.732 73.9903 114.782 73.8382 114.782C73.8382 114.782 73.7367 114.782 73.686 114.782C73.686 114.732 73.686 114.681 73.686 114.63C73.6353 114.428 73.686 114.225 73.686 114.073C73.7874 112.197 73.8888 110.321 74.0409 108.394C75.5112 108.901 77.0829 109.104 78.6546 108.952C79.0602 108.901 79.4151 108.648 79.4151 108.191C79.4151 108.09 79.3644 107.938 79.3137 107.837C79.8207 105.251 80.8854 102.767 82.5584 100.688C82.8119 100.384 82.8626 99.9275 82.5584 99.6233C82.4063 99.4712 82.1528 99.3699 81.8993 99.4206C80.8346 98.7615 79.77 98.0517 78.7054 97.3926C80.9361 95.7702 83.1161 94.1478 85.3469 92.5762C85.4483 93.8943 85.9553 95.1618 86.7665 96.2265V96.2771C86.8679 96.632 87.3242 96.9869 87.6791 96.7841C89.4536 96.0743 91.3294 95.8209 93.2053 95.9222C93.6109 95.9729 93.9658 95.5674 93.9658 95.1618C93.9658 94.9083 93.8644 94.7562 93.7123 94.6041C94.1686 93.0325 94.7263 91.5621 95.4868 90.1426C95.791 90.3961 96.1966 90.5988 96.6021 90.7509C97.0584 90.903 97.5148 90.9537 97.9711 91.0044C98.3767 91.0551 98.8836 91.1565 99.1371 91.4607C99.7455 92.1198 98.985 93.3366 98.6301 93.945C98.0724 94.959 97.5148 96.1757 97.9711 97.2911C98.1232 97.646 98.4274 97.8996 98.833 97.8489C98.8837 97.8996 98.8837 97.9502 98.9344 97.9502C99.0358 98.0009 99.1372 98.1024 99.2386 98.1531C99.8977 98.6601 100.455 99.2177 100.962 99.8768C101.013 99.9275 101.064 99.9783 101.064 100.029C101.165 100.181 101.317 100.333 101.52 100.384C101.571 100.384 101.621 100.384 101.672 100.384C101.672 101.347 101.571 102.31 101.52 103.274ZM73.7368 114.782C73.7368 114.732 73.7368 114.732 73.7368 114.782C73.7368 114.732 73.7875 114.732 73.7368 114.782ZM106.032 38.6319C105.576 45.1214 105.12 51.5603 104.663 58.0498C103.751 71.0796 102.838 84.1094 101.926 97.1391C101.875 97.5954 101.875 98.0516 101.824 98.4572C101.216 97.7474 100.506 97.0883 99.6949 96.5306C99.5935 96.4799 99.4413 96.4292 99.2892 96.4292C99.1878 95.5674 99.847 94.7561 100.202 93.9956C100.709 93.0324 101.064 91.8664 100.506 90.8017C100.05 89.8384 98.985 89.5342 98.0218 89.3821C97.5148 89.3314 96.1966 89.23 96.1459 88.5202C96.0952 87.7597 95.1319 87.4555 94.7263 88.1146C93.6109 90.0412 92.7491 92.0691 92.1407 94.2491V94.2999C90.6704 94.2999 89.1493 94.5534 87.7298 95.0604C86.9693 93.945 86.5637 92.5254 86.7665 91.2072C86.8679 90.6495 86.2595 89.889 85.6512 90.3453C82.7613 92.4747 79.8207 94.6041 76.9309 96.7335C76.4746 97.0884 76.4239 97.6967 76.9309 98.0516C78.1984 98.8628 79.4658 99.674 80.784 100.485C79.3137 102.564 78.2997 104.947 77.7927 107.431C76.3732 107.431 75.0042 107.178 73.686 106.62C73.1283 106.366 72.5706 106.671 72.5199 107.279C72.4185 108.597 72.3678 109.915 72.2664 111.233C72.2157 111.893 72.1651 112.552 72.1651 113.261C72.1144 113.819 72.0637 114.377 72.1651 114.935C72.2665 115.442 72.52 115.847 72.9255 116.101C73.4832 116.405 74.193 116.202 74.8014 116.101C76.0182 115.949 77.1843 115.746 78.4011 115.594C78.9588 116.912 79.77 118.078 80.8347 118.99C75.6634 119.802 70.4413 120.207 65.2193 120.157C62.3801 120.157 59.4903 119.954 56.6511 119.7C53.964 119.396 51.2769 118.788 48.5898 118.636C46.6126 118.534 44.6859 118.788 42.8608 119.65C40.7314 120.664 38.9063 122.337 37.2332 123.959C33.1773 127.812 29.679 132.324 26.9412 137.242C26.637 137.749 26.4342 138.358 25.9272 138.713C25.8258 138.814 25.7244 138.865 25.623 138.814C25.4709 138.713 25.4709 137.8 25.4202 137.699C25.2174 136.127 25.0146 134.555 24.8625 132.984C24.4569 129.79 24.102 126.595 23.7471 123.351C23.0373 117.064 22.4289 110.777 22.074 104.44C21.8205 100.181 21.6685 95.9729 21.6178 91.7142C27.0933 91.2072 31.9605 93.9956 36.3713 97.0376C33.4815 100.84 30.4395 104.592 27.3468 108.242C26.6877 108.141 26.2314 109.104 26.7891 109.611C26.9412 109.865 27.1948 110.118 27.4989 110.118C30.0339 111.842 32.5689 113.566 35.1039 115.239C35.763 115.695 36.3713 114.935 36.1685 114.326C39.1597 110.524 42.151 106.721 45.193 102.919C46.0042 103.375 46.8154 103.73 47.6266 104.136C50.4658 105.352 53.964 106.366 56.8539 104.845C58.679 103.882 59.8959 101.601 59.4396 99.6233C61.3662 99.9275 63.3941 99.3192 64.763 97.8996C66.3854 96.1758 66.7403 93.4887 65.777 91.3593C67.8557 90.8016 70.0864 89.9397 71.1511 87.9625C71.9116 86.5936 72.013 84.8191 71.2018 83.5009C72.3172 83.0953 73.2297 82.1827 73.7874 81.118C74.5986 79.4957 74.5986 77.6704 73.9395 75.9973C73.7367 75.4397 73.4832 74.9327 73.179 74.4257C75.0042 72.3978 75.1563 69.153 73.5847 66.9222C73.9903 66.3138 74.4466 65.7054 74.8521 65.0463C77.2857 64.9957 79.7192 64.9449 82.1528 64.8942C82.457 65.097 82.9133 65.097 83.1668 64.8435C85.0934 62.4606 87.0707 60.1284 88.9972 57.7456C89.2507 57.4414 89.3015 57.0358 89.048 56.7316C89.3522 54.1966 89.6057 51.611 89.9099 49.076C89.9099 49.0253 89.9606 48.9746 89.9606 48.8732C89.9606 48.7718 89.9605 48.6197 90.0112 48.5183V48.4677C90.5182 47.8086 89.555 46.8452 88.8452 47.5043C87.5271 48.7211 86.2088 49.9379 84.9413 51.2054C85.2455 48.8225 85.3469 46.4396 85.0934 44.0567C85.0427 43.6511 84.7892 43.2962 84.3329 43.2962C84.1808 43.2962 84.0287 43.347 83.9273 43.4483C81.5444 43.2963 79.1616 43.2963 76.7788 43.4483C77.5392 42.2823 78.2997 41.1669 79.0602 40.0008C79.1109 39.8994 79.1616 39.798 79.1616 39.7473C79.77 39.3417 79.3644 38.1756 78.5025 38.3784C75.207 39.2403 71.9116 39.8995 68.5655 40.3558C68.1599 40.4065 67.8557 40.6599 67.805 41.0148C66.3347 43.7018 64.8644 46.3889 63.4448 49.0253C63.3434 49.2281 63.3433 49.4309 63.394 49.583C63.394 49.6844 63.3433 49.8365 63.394 49.9379C63.9517 52.8785 65.0165 55.7683 66.4867 58.4047C65.8277 59.368 65.2192 60.3312 64.5601 61.2945C64.5094 61.2945 64.4081 61.2439 64.3574 61.2439C55.485 60.3313 46.4605 61.2439 37.943 64.0324C37.0304 64.3366 37.436 65.8068 38.3486 65.5026C46.3591 62.9169 54.8766 61.9537 63.242 62.6635C62.7857 63.6775 62.1266 64.5394 61.3154 65.2998C59.1861 64.7422 57.006 64.4379 54.8259 64.3365C53.8626 64.2858 53.8626 65.8068 54.8259 65.8575C56.9046 65.9082 58.9832 66.2631 61.0112 66.7701C61.0112 66.7701 61.0112 66.7701 61.0619 66.8208C63.6476 68.4432 66.3853 69.8121 68.7175 71.7386C70.7961 73.4117 73.4325 76.2002 72.9255 79.1408C72.6721 80.5604 71.7088 81.9799 70.2892 82.2334C67.9063 80.0026 65.0165 78.431 61.8224 77.6198C60.8591 77.3663 60.4535 78.8366 61.4168 79.0901C64.256 79.7999 66.8416 81.1687 68.971 83.146C68.971 83.3488 69.1232 83.6024 69.326 83.7038C70.6441 84.515 70.4413 86.4922 69.6301 87.6076C68.464 89.1793 66.2332 89.6863 64.4588 90.1426C62.0252 88.1653 59.3888 86.4922 56.5496 85.174C56.1947 85.0219 55.7385 85.0726 55.485 85.4275C55.2822 85.7317 55.3836 86.2894 55.7385 86.4922C58.7805 87.9118 61.6196 89.6863 64.1545 91.917C64.2559 91.9677 64.3066 92.0185 64.408 92.0692C65.0671 93.6408 64.8644 95.5674 63.6983 96.8349C62.5829 98.0517 60.8084 98.4572 59.2875 98.0516C59.2875 98.0516 59.2874 98.001 59.2367 98.001C57.0566 95.5167 54.2175 93.6915 51.0742 92.6775C50.1616 92.3733 49.756 93.8436 50.6686 94.1478C53.1528 94.959 55.3836 96.3279 57.2595 98.1531C57.1581 98.4066 57.2087 98.6601 57.4622 98.9136C58.2227 99.6741 58.172 100.789 57.8171 101.753C57.3608 102.919 56.3468 103.629 55.1808 103.933C52.3416 104.643 49.1475 103.324 46.6632 102.057C41.1877 99.2685 36.7262 94.8576 31.1493 92.2719C28.158 90.903 24.964 90.0411 21.6685 90.3453C21.6178 82.2334 21.9219 74.0709 22.581 65.959C23.088 59.5708 23.7979 53.1319 24.5584 46.7438C24.964 43.499 25.3695 40.2544 25.7751 37.0603C25.9779 35.4886 26.1807 33.9169 26.3835 32.3452C26.5863 30.9256 26.6877 29.4553 27.144 28.0864C27.8537 25.8556 29.4254 24.0811 31.859 24.0304C32.0618 24.0304 32.2646 23.9291 32.366 23.8277C44.7367 22.4081 57.2087 21.4448 69.6301 20.9885C76.0689 20.735 82.5078 20.6337 88.9466 20.6844C91.9886 20.6844 95.0812 20.6337 98.1739 20.8365C100.658 21.0393 103.193 21.6476 104.765 23.7263C106.184 25.5515 106.489 27.985 106.539 30.2665C106.539 32.9536 106.235 35.7927 106.032 38.6319ZM37.5881 97.8996C38.1458 98.3052 38.7035 98.7107 39.2612 99.0656C40.7315 100.13 42.2524 101.144 43.7734 102.108C40.8328 105.859 37.8923 109.56 34.9517 113.312C32.8224 111.893 30.7437 110.473 28.6143 109.053C31.707 105.403 34.6982 101.702 37.5881 97.8996ZM67.7035 57.5936C66.2839 55.0586 65.3207 52.3714 64.763 49.5323C66.1826 46.8959 67.6022 44.2595 69.0725 41.6739C71.7088 41.319 74.3451 40.812 76.9815 40.2036C74.7 43.6005 72.4186 46.9467 70.1878 50.3435C69.9343 50.4956 69.7316 50.8505 69.833 51.104C69.833 51.4082 70.1371 51.6617 70.4413 51.7631C73.2805 54.0953 76.3731 56.1232 79.6686 57.7963C80.0742 57.9991 80.4798 57.7963 80.6826 57.5428C80.7333 57.4921 80.8346 57.4414 80.8853 57.3907C83.3189 54.8557 85.8032 52.3715 88.3889 49.9886C88.1354 52.3208 87.882 54.6023 87.5778 56.9344C87.5778 57.0358 87.5777 57.0865 87.6284 57.1879C85.9046 59.2666 84.2316 61.3453 82.5078 63.3732C79.9728 63.4239 77.3871 63.4747 74.8521 63.5254C74.7508 63.5254 74.7001 63.5253 74.6494 63.576C74.3959 63.5253 74.0916 63.6268 73.9395 63.931C72.4692 66.0604 71.0497 68.1897 69.5795 70.3698C68.7176 69.7107 67.8049 69.0516 66.8416 68.4939C65.6248 67.7334 64.408 67.0236 63.1405 66.2631C63.3433 66.0096 63.4955 65.7055 63.6983 65.452C65.1686 63.2212 66.6896 60.9397 68.1599 58.7089C68.312 58.2019 68.0584 57.7964 67.7035 57.5936ZM75.0043 52.3207C75.055 50.2928 75.0549 48.3155 75.1056 46.2876C75.1056 46.0848 75.0549 45.9326 74.9535 45.8312C75.207 45.4763 75.4099 45.1215 75.6634 44.7666C75.7648 44.8173 75.8661 44.8172 75.9675 44.8172C78.5025 44.6144 81.0375 44.6145 83.5724 44.7666C83.7752 47.3016 83.6232 49.8872 83.1162 52.3715V52.4221C80.3784 52.6756 77.6913 52.5742 75.0043 52.3207ZM81.8487 54.0952C81.1389 54.805 80.4798 55.5148 79.77 56.2246C78.4518 55.5148 77.1336 54.7543 75.8661 53.9431C77.8434 54.0952 79.8714 54.1459 81.8487 54.0952ZM73.5339 47.9607C73.4832 49.3803 73.4832 50.8505 73.4325 52.2701C72.8241 51.8138 72.1651 51.3068 71.6074 50.8505C72.2665 49.8872 72.9255 48.924 73.5339 47.9607ZM70.5934 71.2317C71.2525 70.2177 71.9623 69.2037 72.6214 68.2404C73.4326 69.7107 73.2804 71.688 72.2664 73.0569C71.7594 72.3978 71.2018 71.84 70.5934 71.2317C70.5934 71.2824 70.5934 71.2317 70.5934 71.2317ZM44.7367 47.0481C44.9902 47.403 44.7874 47.9099 44.4832 48.1127C44.1284 48.3155 43.672 48.1634 43.4185 47.8592C41.8975 45.6284 40.3765 43.3976 38.8048 41.1669C36.8275 42.4344 34.7997 43.7526 32.8224 45.0201C33.8871 47.0988 34.901 49.1775 35.9657 51.2561C35.9657 51.3068 36.0163 51.3574 36.0163 51.4081C38.095 50.1913 40.1737 48.924 42.2524 47.7072C43.1143 47.2002 43.8748 48.5183 43.0129 49.0253C40.8328 50.3435 38.6527 51.6616 36.422 52.9291C35.915 53.2333 35.408 52.8784 35.3066 52.4221C35.0531 52.4221 34.7489 52.3207 34.6475 52.0672C33.5828 49.9886 32.5688 47.8592 31.5042 45.7806C30.8451 45.7806 30.4395 44.7666 31.1493 44.361C31.1493 44.361 31.1999 44.3609 31.1999 44.3102C31.2506 44.2088 31.352 44.1074 31.4534 44.0567C31.5548 44.006 31.6562 43.9553 31.7576 43.9553C33.887 42.5865 36.0164 41.2176 38.1458 39.798C38.3993 39.5952 38.7035 39.6459 38.9063 39.798C39.2612 39.5952 39.7175 39.7473 39.9203 40.0515C41.492 42.3837 43.1144 44.7159 44.7367 47.0481ZM80.4798 47.7578C80.784 48.2648 80.6826 48.9239 80.277 49.2788C80.0742 49.4309 79.8713 49.583 79.6178 49.583C79.5671 49.583 79.5165 49.6337 79.4658 49.6337C79.263 49.6844 79.1109 49.6844 78.9081 49.6337C78.8067 49.6337 78.6546 49.5831 78.5532 49.4817C78.0462 49.1775 77.8435 48.6197 77.9449 48.062C77.9956 47.8592 78.1476 47.6058 78.2997 47.4537C78.4011 47.3523 78.5025 47.3015 78.6039 47.2508C78.7053 47.2001 78.8068 47.1494 78.9589 47.1494C79.1616 47.0987 79.3137 47.0987 79.5165 47.1494C79.6179 47.1494 79.7699 47.2001 79.8713 47.2508C80.1755 47.3522 80.3784 47.555 80.4798 47.7578ZM36.422 46.0847C36.422 46.034 36.422 45.9834 36.422 45.9327C36.422 45.882 36.3713 45.8819 36.3713 45.8312C36.3206 45.6284 36.3206 45.375 36.3713 45.1722C36.422 44.9694 36.5234 44.7666 36.6755 44.6145C36.8276 44.4624 36.9797 44.3609 37.1825 44.3102C37.2332 44.3102 37.2838 44.2596 37.2838 44.2596C37.3852 44.2596 37.4867 44.2088 37.5881 44.2088C37.6895 44.2088 37.7909 44.2089 37.8923 44.2596C37.943 44.2596 37.943 44.2595 37.9937 44.3102C38.1965 44.4116 38.3486 44.4624 38.5007 44.6145C38.6528 44.7666 38.7541 44.9187 38.8048 45.1215C38.8555 45.2736 38.8555 45.375 38.8048 45.5271C38.7541 45.6792 38.7035 45.7805 38.6021 45.8819C38.5514 45.9326 38.5006 45.9326 38.4499 45.9833C38.4499 46.034 38.4499 46.0847 38.4499 46.1354C38.4499 46.2368 38.3993 46.3383 38.3486 46.4397C38.2472 46.5918 38.0951 46.7439 37.8923 46.7946C37.7402 46.8453 37.5374 46.8452 37.3853 46.8452C37.3346 46.8452 37.3345 46.8959 37.2838 46.8959C37.2331 46.8959 37.1318 46.896 37.0811 46.9467C36.8783 46.9467 36.6754 46.8452 36.5233 46.7438C36.4726 46.6931 36.422 46.5917 36.3713 46.4903C36.422 46.2875 36.422 46.1861 36.422 46.0847Z" fill="black"/>
<path d="M86.9039 131.658C95.9327 125.643 105.21 120.022 114.736 114.796L129.801 136.956C120.249 142.311 111.044 148.26 102.238 154.768L86.582 131.884" fill="#003B99"/>
<path d="M102.237 154.968H102.205C102.179 154.964 102.154 154.954 102.131 154.94C102.108 154.925 102.089 154.906 102.073 154.884L86.415 132.004C86.3852 131.963 86.3721 131.912 86.3786 131.862C86.385 131.811 86.4104 131.765 86.4497 131.733C86.4889 131.7 86.539 131.684 86.5898 131.687C86.6406 131.691 86.6882 131.713 86.7229 131.75C86.7016 131.707 86.6968 131.657 86.7093 131.611C86.7218 131.564 86.7508 131.523 86.7909 131.496C95.7877 125.499 105.158 119.827 114.639 114.627C114.682 114.603 114.733 114.597 114.781 114.609C114.829 114.62 114.871 114.65 114.899 114.69L129.965 136.843C129.981 136.866 129.992 136.892 129.996 136.92C130.001 136.947 130 136.975 129.993 137.002C129.987 137.029 129.975 137.054 129.959 137.076C129.942 137.098 129.921 137.117 129.897 137.13C120.355 142.48 111.157 148.423 102.357 154.924C102.323 154.951 102.281 154.966 102.237 154.968ZM86.7689 131.804L102.285 154.482C110.99 148.063 120.083 142.187 129.512 136.889L114.663 115.06C105.266 120.23 95.9516 125.87 87.0128 131.824C86.9757 131.848 86.9316 131.86 86.8874 131.856C86.8433 131.852 86.8016 131.834 86.7689 131.804Z" fill="#EBEBEB"/>
<path d="M108.679 140.401C108.636 140.401 108.594 140.388 108.56 140.362C108.525 140.337 108.5 140.301 108.487 140.26C108.475 140.219 108.476 140.175 108.49 140.135C108.504 140.094 108.531 140.059 108.567 140.036C113.281 136.839 118.17 133.906 123.21 131.253C123.257 131.228 123.311 131.223 123.362 131.239C123.413 131.255 123.455 131.29 123.48 131.337C123.504 131.384 123.509 131.438 123.493 131.489C123.478 131.54 123.443 131.582 123.396 131.607C118.368 134.253 113.492 137.178 108.791 140.367C108.758 140.39 108.719 140.401 108.679 140.401Z" fill="#EFF3FF"/>
<path d="M110.581 144.009C110.553 144.009 110.526 144.003 110.5 143.991C110.475 143.98 110.452 143.964 110.433 143.943C110.415 143.923 110.402 143.9 110.393 143.876C110.384 143.851 110.38 143.824 110.381 143.798C110.382 143.772 110.389 143.746 110.4 143.722C110.412 143.698 110.428 143.677 110.447 143.659C113.936 140.519 117.691 137.689 121.671 135.202C121.716 135.174 121.771 135.165 121.823 135.177C121.874 135.189 121.919 135.221 121.947 135.266C121.975 135.311 121.984 135.365 121.972 135.417C121.96 135.469 121.928 135.514 121.883 135.542C117.923 138.017 114.186 140.833 110.715 143.959C110.678 143.991 110.631 144.009 110.581 144.009Z" fill="#EFF3FF"/>
<path d="M89.0738 135.42C89.0288 135.42 88.9853 135.404 88.9505 135.375C88.9156 135.347 88.8914 135.308 88.8817 135.264C88.872 135.22 88.8773 135.174 88.897 135.133C88.9166 135.093 88.9493 135.06 88.9898 135.041C98.7904 130.423 108.056 124.746 116.62 118.111C116.662 118.082 116.713 118.071 116.764 118.079C116.814 118.087 116.859 118.114 116.89 118.154C116.921 118.194 116.936 118.245 116.931 118.295C116.926 118.346 116.902 118.393 116.864 118.427C108.277 125.08 98.9868 130.773 89.1597 135.402C89.1326 135.414 89.1033 135.42 89.0738 135.42Z" fill="#EFF3FF"/>
<path d="M108.865 122.121C108.702 122.121 108.541 122.092 108.387 122.037C108.182 121.972 107.996 121.856 107.849 121.698C107.701 121.541 107.597 121.348 107.546 121.139C107.562 121.071 107.553 121 107.52 120.939C107.516 120.727 107.565 120.517 107.664 120.329C107.763 120.141 107.907 119.981 108.084 119.864C108.261 119.746 108.465 119.676 108.676 119.658C108.888 119.64 109.1 119.676 109.294 119.763C109.488 119.849 109.657 119.983 109.786 120.152C109.914 120.321 109.998 120.52 110.029 120.73C110.06 120.94 110.038 121.154 109.964 121.353C109.89 121.552 109.767 121.73 109.607 121.869C109.396 122.036 109.134 122.125 108.865 122.121ZM107.908 120.989C107.922 121.009 107.932 121.031 107.938 121.055C107.985 121.256 108.107 121.43 108.28 121.543C108.452 121.655 108.662 121.696 108.864 121.658C109.067 121.62 109.247 121.505 109.366 121.338C109.486 121.17 109.537 120.963 109.508 120.759C109.479 120.555 109.372 120.371 109.21 120.243C109.048 120.116 108.843 120.056 108.638 120.076C108.433 120.097 108.244 120.195 108.11 120.351C107.975 120.507 107.907 120.709 107.918 120.915C107.922 120.94 107.921 120.965 107.916 120.989H107.908Z" fill="#EFF3FF"/>
<path d="M112.733 119.668C112.587 119.664 112.444 119.632 112.312 119.572C112.179 119.512 112.061 119.425 111.963 119.318C111.864 119.218 111.787 119.099 111.737 118.968C111.687 118.836 111.665 118.696 111.673 118.556C111.622 118.798 111.656 119.05 111.769 119.27C111.781 119.293 111.789 119.318 111.791 119.345C111.794 119.371 111.791 119.397 111.784 119.422C111.776 119.447 111.763 119.471 111.747 119.491C111.73 119.511 111.709 119.528 111.686 119.541C111.663 119.553 111.637 119.561 111.611 119.563C111.585 119.566 111.558 119.563 111.533 119.555C111.508 119.548 111.485 119.535 111.464 119.518C111.444 119.501 111.427 119.481 111.415 119.458C111.259 119.159 111.21 118.815 111.278 118.485C111.346 118.154 111.525 117.857 111.787 117.644C111.93 117.541 112.092 117.469 112.264 117.431C112.436 117.393 112.614 117.391 112.787 117.424C112.949 117.452 113.103 117.513 113.241 117.603C113.378 117.693 113.496 117.811 113.586 117.948C113.678 118.103 113.732 118.277 113.744 118.457C113.756 118.636 113.725 118.816 113.654 118.982C113.596 119.14 113.501 119.283 113.377 119.397C113.253 119.512 113.103 119.595 112.941 119.64C112.873 119.657 112.803 119.666 112.733 119.668ZM111.899 118.232C111.918 118.229 111.938 118.229 111.957 118.232C112.007 118.248 112.05 118.283 112.075 118.33C112.099 118.377 112.104 118.431 112.089 118.482C112.065 118.581 112.068 118.684 112.096 118.781C112.125 118.878 112.179 118.966 112.253 119.036C112.326 119.119 112.421 119.181 112.526 119.216C112.631 119.251 112.744 119.258 112.853 119.236C112.954 119.206 113.047 119.153 113.124 119.08C113.201 119.008 113.259 118.918 113.294 118.818C113.34 118.711 113.361 118.594 113.355 118.478C113.348 118.361 113.315 118.248 113.258 118.146C113.197 118.055 113.118 117.977 113.025 117.918C112.933 117.859 112.829 117.82 112.721 117.802C112.601 117.778 112.477 117.779 112.358 117.804C112.238 117.829 112.125 117.878 112.025 117.948C111.914 118.032 111.825 118.141 111.765 118.266C111.804 118.239 111.852 118.227 111.899 118.232Z" fill="#EFF3FF"/>
<path d="M105.978 124.462C105.701 124.461 105.43 124.385 105.193 124.242C105.032 124.15 104.891 124.028 104.778 123.881C104.666 123.735 104.584 123.567 104.537 123.388C104.531 123.363 104.53 123.336 104.534 123.31C104.538 123.284 104.547 123.259 104.561 123.237C104.574 123.214 104.592 123.195 104.614 123.179C104.635 123.164 104.659 123.152 104.685 123.146C104.71 123.14 104.737 123.139 104.763 123.143C104.789 123.147 104.814 123.156 104.836 123.17C104.859 123.184 104.878 123.202 104.894 123.223C104.909 123.244 104.921 123.269 104.927 123.294C104.998 123.548 105.167 123.764 105.397 123.894C105.519 123.97 105.656 124.021 105.799 124.044C105.942 124.067 106.088 124.06 106.228 124.026C106.445 123.968 106.638 123.841 106.775 123.664C106.913 123.486 106.989 123.269 106.992 123.044C106.982 122.931 106.949 122.821 106.895 122.721C106.84 122.621 106.766 122.534 106.676 122.464C106.601 122.401 106.514 122.353 106.419 122.325C106.325 122.298 106.226 122.29 106.128 122.303C106.024 122.325 105.926 122.374 105.845 122.444C105.763 122.513 105.701 122.602 105.662 122.702C105.622 122.786 105.602 122.878 105.606 122.971C105.609 123.064 105.636 123.154 105.682 123.234C105.697 123.256 105.707 123.281 105.712 123.307C105.717 123.332 105.717 123.359 105.712 123.385C105.707 123.411 105.697 123.435 105.682 123.457C105.667 123.479 105.648 123.498 105.626 123.512C105.582 123.541 105.529 123.551 105.477 123.541C105.425 123.53 105.38 123.5 105.351 123.456C105.266 123.32 105.217 123.166 105.208 123.006C105.198 122.847 105.229 122.687 105.297 122.542C105.362 122.383 105.467 122.241 105.6 122.131C105.734 122.022 105.893 121.946 106.062 121.913C106.215 121.89 106.371 121.9 106.52 121.943C106.669 121.985 106.807 122.057 106.926 122.157C107.059 122.261 107.17 122.393 107.25 122.543C107.329 122.692 107.377 122.857 107.39 123.026C107.395 123.344 107.293 123.655 107.101 123.909C106.909 124.162 106.638 124.344 106.33 124.426C106.215 124.453 106.097 124.465 105.978 124.462Z" fill="#EFF3FF"/>
<path d="M99.8689 144.464C99.8415 144.463 99.8146 144.457 99.7899 144.445C99.7651 144.433 99.743 144.416 99.7249 144.396L92.8894 136.599C92.8721 136.579 92.8588 136.556 92.8504 136.531C92.842 136.506 92.8385 136.48 92.8403 136.453C92.8421 136.427 92.849 136.401 92.8607 136.378C92.8723 136.354 92.8886 136.333 92.9084 136.316C92.9282 136.298 92.9512 136.285 92.9762 136.277C93.0011 136.268 93.0275 136.265 93.0538 136.267C93.08 136.268 93.1057 136.275 93.1293 136.287C93.1529 136.299 93.174 136.315 93.1913 136.335L93.3752 136.535C97.041 134.605 100.521 132.342 103.771 129.773C103.794 129.756 103.819 129.743 103.846 129.736C103.873 129.729 103.902 129.728 103.929 129.733C103.957 129.738 103.983 129.749 104.006 129.764C104.029 129.78 104.049 129.8 104.063 129.823C105.163 131.559 106.102 133.392 106.866 135.299C107.084 135.839 107.284 136.415 107.14 136.997C107.002 137.544 106.582 137.956 106.247 138.286L100.011 144.4C99.9927 144.42 99.9707 144.435 99.9463 144.446C99.922 144.457 99.8956 144.463 99.8689 144.464ZM93.6391 136.867L99.8809 143.978L105.975 138.002C106.357 137.628 106.658 137.308 106.76 136.901C106.876 136.437 106.696 135.929 106.503 135.451C105.77 133.644 104.881 131.905 103.845 130.253C100.648 132.758 97.2325 134.97 93.6391 136.863V136.867Z" fill="#EFF3FF"/>
</svg>
