<svg width="116" height="35" viewBox="0 0 116 35" fill="none" xmlns="http://www.w3.org/2000/svg">
<g clip-path="url(#clip0_92_1931)">
<path d="M0.000196965 22.7034V13.8676C0.000196965 11.9588 0.785628 10.0166 2.051 8.42542C3.31637 6.8342 5.06423 5.5908 6.98898 5.07934L25.2352 0.23065C27.0423 -0.249623 28.6832 0.045664 29.8712 0.907953C30.8273 1.60225 31.4915 2.66528 31.7142 3.98844C23.4801 6.17649 15.231 8.26902 6.98898 10.4592C6.56163 10.5728 6.17118 10.8519 5.88643 11.21C5.60162 11.5681 5.42488 12.0023 5.42488 12.426V21.2618C5.42488 24.1153 6.60398 26.3982 8.50351 27.7773C10.403 29.1564 13.0208 29.6301 15.8982 28.8654C18.7755 28.1009 21.3933 26.2359 23.2929 23.8472C25.1924 21.4585 26.3715 18.5491 26.3715 15.6955V12.8358L10.6769 16.9793C9.17883 17.3775 7.96454 16.4957 7.96454 15.0102C7.96454 13.5245 9.1789 11.9975 10.6769 11.5994L29.0839 6.73522C30.582 6.33719 31.7962 7.21882 31.7962 8.70437C31.7962 8.7209 31.7959 8.73751 31.7956 8.75411L31.7962 8.75392V14.2541C31.7962 18.5927 30.0085 23.0101 27.1283 26.6318C24.2482 30.2536 20.2729 33.0829 15.8982 34.2455C11.5233 35.408 7.5481 34.6914 4.66794 32.6004C1.78779 30.5094 0 27.0421 0 22.7034L0.000196965 22.7034Z" fill="#003B99"/>
<path d="M44.8535 25.0742C43.3719 25.0742 42.0367 24.7386 40.8477 24.0674C39.6588 23.3962 38.7214 22.3849 38.0355 21.0335C37.3496 19.682 37.0066 17.9814 37.0066 15.9315C37.0066 14.4258 37.2033 13.0835 37.5965 11.9044C37.9898 10.7253 38.5796 9.72304 39.3662 8.89767C40.1526 8.0723 41.1175 7.44188 42.2607 7.00653C43.4039 6.57119 44.7255 6.35352 46.2253 6.35352C47.3594 6.35352 48.3883 6.48055 49.312 6.73449C50.2357 6.9885 51.0359 7.35124 51.7127 7.82292C52.3895 8.29459 52.9154 8.85691 53.2904 9.50992C53.6654 10.1629 53.8619 10.8977 53.8803 11.714L49.7099 12.9929C49.6915 12.3217 49.5177 11.7593 49.1885 11.3059C48.8592 10.8524 48.4203 10.5032 47.8715 10.2583C47.3228 10.0134 46.71 9.8909 46.0332 9.8909C45.0822 9.8909 44.2819 10.1041 43.6325 10.5303C42.9832 10.9567 42.4893 11.6051 42.1509 12.4758C41.8125 13.3466 41.6433 14.435 41.6433 15.7411C41.6433 16.7206 41.7393 17.5778 41.9314 18.3125C42.1235 19.0471 42.4116 19.6594 42.7957 20.1492C43.1798 20.639 43.6507 21.0063 44.2087 21.2512C44.7665 21.4961 45.4296 21.6186 46.1978 21.6186C46.9661 21.6186 47.6292 21.5006 48.187 21.2648C48.7449 21.029 49.1884 20.6662 49.5177 20.1764C49.8469 19.6866 50.0207 19.0607 50.039 18.2989H46.8289V15.1969H54.4289V18.6798V24.6933H51.4109L51.356 20.2036H50.8073C50.4963 21.2558 50.094 22.1446 49.6001 22.8702C49.1062 23.5958 48.4751 24.1446 47.707 24.5164C46.9388 24.8883 45.9876 25.0742 44.8535 25.0742Z" fill="#003B99"/>
<path d="M65.3222 25.074C64.4076 25.074 63.6074 24.9017 62.9215 24.5569C62.2356 24.2123 61.6776 23.6953 61.2478 23.006C60.8179 22.3167 60.5299 21.464 60.3836 20.4481H59.8622L59.7799 24.693H56.1582V17.6455V5.10156H60.5755V9.86339C60.5755 10.2988 60.5436 10.7568 60.4795 11.2375C60.4155 11.7183 60.3332 12.2216 60.2326 12.7478C60.132 13.2738 60.0268 13.8362 59.917 14.4348H60.548C60.8042 13.4552 61.1425 12.6389 61.5633 11.9858C61.984 11.3328 62.5098 10.8385 63.1409 10.5028C63.7719 10.1672 64.5173 9.99941 65.377 9.99941C66.5842 9.99941 67.6314 10.3078 68.5185 10.9245C69.4056 11.5413 70.0962 12.4166 70.59 13.5503C71.0839 14.6842 71.3308 16.0401 71.3308 17.6183C71.3308 19.1421 71.0884 20.4617 70.6038 21.5774C70.119 22.693 69.4285 23.5547 68.5322 24.1624C67.6359 24.7701 66.5659 25.0739 65.3221 25.0739L65.3222 25.074ZM63.676 21.5366C64.2796 21.5366 64.8101 21.3688 65.2674 21.0332C65.7247 20.6976 66.0768 20.226 66.3237 19.6183C66.5706 19.0106 66.6941 18.2986 66.6941 17.4822C66.6941 16.6478 66.5752 15.9357 66.3374 15.3462C66.0996 14.7567 65.7658 14.2986 65.336 13.9721C64.9061 13.6455 64.3894 13.4823 63.7857 13.4823C63.3833 13.4823 63.013 13.5548 62.6745 13.7C62.3361 13.8451 62.0389 14.0447 61.7829 14.2986C61.5267 14.5526 61.3073 14.8382 61.1244 15.1557C60.9415 15.4731 60.8043 15.8087 60.7128 16.1625C60.6214 16.5162 60.5756 16.8654 60.5756 17.2101V17.7814C60.5756 18.1624 60.6305 18.5705 60.7403 19.0059C60.85 19.4413 61.0284 19.8494 61.2753 20.2304C61.5223 20.6114 61.8423 20.9242 62.2356 21.1691C62.6289 21.4141 63.109 21.5365 63.676 21.5365L63.676 21.5366Z" fill="#003B99"/>
<path d="M79.4528 25.0743C78.2456 25.0743 77.1664 24.9155 76.2153 24.598C75.2641 24.2806 74.4547 23.8135 73.7871 23.1967C73.1194 22.5799 72.6119 21.818 72.2643 20.911C71.9167 20.004 71.7429 18.961 71.7429 17.7818C71.7429 16.639 71.9122 15.5869 72.2506 14.6254C72.589 13.664 73.0737 12.8341 73.7048 12.1356C74.3358 11.4373 75.1132 10.8976 76.0369 10.5167C76.9606 10.1357 77.9986 9.94531 79.151 9.94531C80.3216 9.94531 81.3505 10.1313 82.2376 10.5031C83.1247 10.875 83.8564 11.4237 84.4326 12.1493C85.0087 12.8749 85.434 13.7592 85.7084 14.8023C85.9828 15.8454 86.0743 17.0381 85.9828 18.3805L74.6514 18.4621V16.1765L83.4587 16.0948L81.8947 17.156C82.0228 16.249 81.9679 15.5099 81.7301 14.9384C81.4923 14.367 81.1448 13.9498 80.6875 13.6867C80.2301 13.4236 79.7364 13.2921 79.2059 13.2921C78.5657 13.2921 78.0032 13.4645 77.5185 13.8092C77.0338 14.1538 76.6542 14.6526 76.3799 15.3057C76.1055 15.9587 75.9683 16.757 75.9683 17.7002C75.9683 19.1878 76.293 20.2671 76.9423 20.9383C77.5916 21.6095 78.4194 21.9451 79.4253 21.9451C79.9193 21.9451 80.3308 21.877 80.6601 21.741C80.9893 21.6049 81.259 21.4326 81.4694 21.224C81.6798 21.0153 81.8444 20.7841 81.9633 20.5301C82.0822 20.2761 82.1783 20.0312 82.2514 19.7954L86.0925 20.6118C85.9462 21.283 85.713 21.8906 85.3929 22.4349C85.0728 22.979 84.643 23.4507 84.1034 23.8498C83.5638 24.2489 82.9145 24.5527 82.1554 24.7613C81.3963 24.97 80.4955 25.0743 79.4529 25.0743H79.4528Z" fill="#003B99"/>
<path d="M92.8698 29.6997C92.1382 29.6997 91.3881 29.6362 90.62 29.5093C89.8518 29.3823 89.1246 29.1963 88.4387 28.9515C87.7528 28.7065 87.1629 28.3846 86.6691 27.9855L87.7391 24.0945C88.3792 24.6931 89.1521 25.1375 90.0575 25.4278C90.963 25.7181 91.8363 25.8632 92.6778 25.8632C93.6472 25.8632 94.4475 25.6772 95.0786 25.3054C95.7096 24.9335 96.1943 24.3621 96.5327 23.5912C96.8711 22.8202 97.0678 21.8633 97.1226 20.7205L97.2597 18.3532H96.6013C96.4367 19.5323 96.1486 20.4937 95.7371 21.2375C95.3255 21.9812 94.8042 22.5299 94.1731 22.8836C93.5421 23.2374 92.7967 23.4143 91.937 23.4143C90.8761 23.4143 89.989 23.1512 89.2756 22.6252C88.5622 22.0991 88.0272 21.3055 87.6705 20.2443C87.3138 19.1831 87.1355 17.8634 87.1355 16.2852V10.3262H91.5803V15.1968C91.5803 16.8656 91.7495 18.0584 92.0878 18.775C92.4263 19.4915 92.9612 19.8498 93.693 19.8498C94.0771 19.8498 94.4246 19.7409 94.7356 19.5232C95.0465 19.3056 95.3117 18.9971 95.5312 18.5981C95.7507 18.199 95.9199 17.7137 96.0388 17.1423C96.1577 16.5709 96.2171 15.9314 96.2171 15.224V10.3262H100.635V20.8838C100.635 22.0266 100.529 23.0697 100.319 24.013C100.109 24.9562 99.7976 25.7816 99.3861 26.4891C98.9745 27.1966 98.4579 27.7907 97.8359 28.2714C97.214 28.7521 96.4915 29.1104 95.6684 29.3461C94.8453 29.582 93.9125 29.6999 92.8699 29.6999L92.8698 29.6997Z" fill="#003B99"/>
<path d="M106.013 25.0743C105.208 25.0743 104.495 24.9156 103.873 24.5981C103.251 24.2807 102.766 23.8181 102.419 23.2104C102.071 22.6027 101.897 21.8634 101.897 20.9927C101.897 20.1764 102.058 19.5007 102.378 18.9656C102.698 18.4305 103.164 18.0041 103.777 17.6866C104.39 17.3692 105.126 17.1062 105.986 16.8976C106.845 16.689 107.824 16.503 108.921 16.3398C109.452 16.2491 109.895 16.1629 110.252 16.0813C110.609 15.9996 110.879 15.8681 111.061 15.6867C111.244 15.5053 111.336 15.2422 111.336 14.8976C111.336 14.4441 111.171 14.0541 110.842 13.7276C110.513 13.401 109.982 13.2377 109.251 13.2377C108.738 13.2377 108.277 13.3284 107.865 13.5098C107.453 13.6913 107.101 13.9544 106.809 14.299C106.516 14.6437 106.296 15.0608 106.15 15.5507L102.254 14.4078C102.492 13.6459 102.826 12.9838 103.256 12.4215C103.686 11.8592 104.202 11.392 104.806 11.0201C105.409 10.6482 106.1 10.3762 106.877 10.2038C107.655 10.0315 108.482 9.94531 109.36 9.94531C110.824 9.94531 112.017 10.1766 112.941 10.6392C113.865 11.1017 114.551 11.8183 114.999 12.7888C115.447 13.7592 115.671 15.0064 115.671 16.5302V18.7342C115.671 19.3872 115.685 20.0448 115.712 20.707C115.739 21.369 115.776 22.0312 115.822 22.6933C115.868 23.3554 115.927 24.0221 116 24.6932H112.104C112.031 24.276 111.958 23.7726 111.885 23.183C111.811 22.5935 111.757 21.9903 111.72 21.3736H111.199C110.943 22.0629 110.572 22.6933 110.087 23.2647C109.603 23.836 109.017 24.2806 108.332 24.598C107.646 24.9155 106.873 25.0742 106.013 25.0742V25.0743ZM108.016 21.9724C108.345 21.9724 108.679 21.9134 109.017 21.7955C109.356 21.6775 109.68 21.5143 109.991 21.3057C110.302 21.0971 110.586 20.8386 110.842 20.5302C111.098 20.2218 111.29 19.8862 111.418 19.5234L111.363 17.3738L111.967 17.5099C111.619 17.7275 111.235 17.8999 110.814 18.0269C110.394 18.1539 109.968 18.2536 109.539 18.3262C109.109 18.3988 108.688 18.4759 108.277 18.5575C107.865 18.6392 107.499 18.7435 107.179 18.8705C106.859 18.9974 106.607 19.1698 106.425 19.3875C106.242 19.6052 106.15 19.9045 106.15 20.2854C106.15 20.7934 106.324 21.2015 106.671 21.5099C107.019 21.8183 107.467 21.9725 108.016 21.9725L108.016 21.9724Z" fill="#003B99"/>
</g>
<defs>
<clipPath id="clip0_92_1931">
<rect width="116" height="34.8" fill="white"/>
</clipPath>
</defs>
</svg>
