<svg width="20" height="20" viewBox="0 0 20 20" fill="none" xmlns="http://www.w3.org/2000/svg">
<path d="M12.4386 2.42521L6.8946 5.08645C6.46793 5.29126 6.01203 5.34257 5.54729 5.23846C5.24314 5.17032 5.09105 5.13626 4.96858 5.12227C3.44786 4.94861 2.5 6.1522 2.5 7.53624V8.29579C2.5 9.67985 3.44786 10.8834 4.96858 10.7098C5.09105 10.6958 5.24315 10.6617 5.54729 10.5936C6.01203 10.4894 6.46793 10.5408 6.8946 10.7456L12.4386 13.4068C13.7112 14.0178 14.3475 14.3232 15.057 14.0851C15.7664 13.847 16.0099 13.3361 16.497 12.3143C17.8343 9.50868 17.8343 6.32339 16.497 3.51765C16.0099 2.4959 15.7664 1.98502 15.057 1.74693C14.3475 1.50885 13.7112 1.8143 12.4386 2.42521Z" stroke="#171717" stroke-width="1.5" stroke-linecap="round" stroke-linejoin="round"/>
<path d="M9.54846 17.3097L8.30566 18.334C5.50434 16.1122 5.84657 15.0527 5.84657 10.834H6.79143C7.17486 13.2181 8.07931 14.3473 9.32729 15.1648C10.096 15.6683 10.2545 16.7277 9.54846 17.3097Z" stroke="#171717" stroke-width="1.5" stroke-linecap="round" stroke-linejoin="round"/>
<path d="M6.25 10.416V5.41602" stroke="#171717" stroke-width="1.5" stroke-linecap="round" stroke-linejoin="round"/>
</svg>
