<svg width="20" height="20" viewBox="0 0 20 20" fill="none" xmlns="http://www.w3.org/2000/svg">
<path d="M7.08329 15.8337H6.66663C3.33329 15.8337 1.66663 15.0003 1.66663 10.8337V6.66699C1.66663 3.33366 3.33329 1.66699 6.66663 1.66699H13.3333C16.6666 1.66699 18.3333 3.33366 18.3333 6.66699V10.8337C18.3333 14.167 16.6666 15.8337 13.3333 15.8337H12.9166C12.6583 15.8337 12.4083 15.9587 12.25 16.167L11 17.8337C10.45 18.567 9.54996 18.567 8.99996 17.8337L7.74996 16.167C7.61663 15.9837 7.30829 15.8337 7.08329 15.8337Z" stroke="#292D32" stroke-width="1.5" stroke-miterlimit="10" stroke-linecap="round" stroke-linejoin="round"/>
<path d="M5.83337 6.66699H14.1667" stroke="#292D32" stroke-width="1.5" stroke-linecap="round" stroke-linejoin="round"/>
<path d="M5.83337 10.833H10.8334" stroke="#292D32" stroke-width="1.5" stroke-linecap="round" stroke-linejoin="round"/>
</svg>
