<svg width="20" height="20" viewBox="0 0 20 20" fill="none" xmlns="http://www.w3.org/2000/svg">
<path d="M17.4522 14.0292C16.9053 10.7385 15.2027 8.28812 13.7225 6.84884C13.2917 6.43002 13.0764 6.22062 12.6007 6.02682C12.1249 5.83301 11.716 5.83301 10.8982 5.83301H9.10183C8.28401 5.83301 7.87508 5.83301 7.39935 6.02682C6.92361 6.22062 6.70826 6.43002 6.27753 6.84884C4.79735 8.28812 3.09467 10.7385 2.54772 14.0292C2.14077 16.4775 4.39939 18.333 6.9236 18.333H13.0764C15.6006 18.333 17.8592 16.4775 17.4522 14.0292Z" stroke="#171717" stroke-width="1.5" stroke-linecap="round" stroke-linejoin="round"/>
<path d="M6.04722 3.70272C5.8753 3.45248 5.62611 3.11282 6.14087 3.03537C6.66997 2.95575 7.21938 3.31794 7.75717 3.3105C8.24368 3.30377 8.49154 3.08798 8.75746 2.77989C9.03746 2.45547 9.47104 1.66699 10 1.66699C10.529 1.66699 10.9626 2.45547 11.2426 2.77989C11.5085 3.08798 11.7564 3.30377 12.2429 3.3105C12.7807 3.31794 13.3301 2.95575 13.8592 3.03537C14.374 3.11282 14.1248 3.45248 13.9529 3.70272L13.1755 4.83419C12.843 5.31821 12.6767 5.56022 12.3287 5.69694C11.9808 5.83366 11.5311 5.83366 10.6319 5.83366H9.36821C8.46896 5.83366 8.01929 5.83366 7.67134 5.69694C7.32339 5.56022 7.15712 5.31821 6.82458 4.83419L6.04722 3.70272Z" stroke="#171717" stroke-width="1.5" stroke-linejoin="round"/>
<path d="M11.3555 10.766C11.1754 10.101 10.2584 9.5008 9.15763 9.9498C8.05687 10.3987 7.88202 11.8433 9.54704 11.9968C10.2995 12.0661 10.7902 11.9163 11.2394 12.3402C11.6886 12.764 11.772 13.9429 10.6237 14.2605C9.47538 14.5782 8.33829 14.0819 8.21448 13.377M9.86804 9.16113V9.7948M9.86804 14.3583V14.9945" stroke="#171717" stroke-width="1.5" stroke-linecap="round" stroke-linejoin="round"/>
</svg>
