<svg width="180" height="149" viewBox="0 0 180 149" fill="none" xmlns="http://www.w3.org/2000/svg">
<path d="M69.7281 149C69.381 141.538 59.8352 137.191 51.4609 136.345C43.0867 135.537 34.0616 136.499 26.6853 132.806C20.09 129.498 16.2283 123.036 14.2324 116.536C12.2365 110.035 11.6725 103.265 9.63315 96.7644C6.55247 86.8788 0.0872988 77.6087 0.000519104 67.3385C-0.0862606 54.8758 10.7179 42.99 24.4725 40.4129C32.1525 38.9897 40.3098 40.1821 47.903 38.3358C64.4779 34.2969 73.0257 17.3722 88.646 10.987C98.6691 6.87123 110.384 7.60206 121.232 9.64072C126.352 10.6023 131.428 11.8333 135.898 14.2181C142.58 17.7954 147.439 23.9883 148.915 30.7582C152.299 46.2212 139.065 60.6072 136.809 76.2625C135.724 83.8017 137.286 91.6101 141.278 98.38C144.489 103.804 149.131 108.458 152.429 113.843C155.683 119.228 157.462 125.921 154.468 131.422C152.82 134.46 149.826 136.845 146.571 138.615C135.941 144.423 122.664 144.384 110.167 144.154" fill="#DBE4FE"/>
<path d="M179.946 96.1048C179.772 92.2337 179.555 88.319 179.337 84.4478C178.902 76.6184 178.511 68.8326 178.076 61.0033C177.858 57.0886 177.641 53.1739 177.467 49.3027C177.38 47.3454 177.249 45.388 177.162 43.4307C177.075 41.6473 177.032 39.9075 176.814 38.1242C176.597 36.6018 176.205 34.9924 175.292 33.731C174.466 32.6001 173.378 31.8172 172.073 31.2952C169.42 30.2513 166.419 30.4252 163.635 30.6862C155.849 31.3387 148.107 31.9912 140.321 32.6871C137.494 32.9481 134.666 33.0351 131.796 33.1656C129.012 33.2961 126.185 33.5135 123.444 34.1659C120.878 34.8184 118.312 35.9058 116.441 37.8631C114.267 40.1249 113.223 43.2132 112.918 46.258C112.527 50.0421 113.31 53.7828 113.31 57.567C113.31 61.4382 113.223 65.2659 113.223 69.1371C113.223 76.9229 113.136 84.6652 113.049 92.4511C113.049 94.3649 113.005 96.2788 113.005 98.1927C113.005 100.715 113.005 103.325 114.049 105.674C115.006 107.849 116.833 109.371 119.051 110.198C121.226 110.981 123.618 111.068 125.924 111.068C128.968 111.024 131.97 110.85 135.014 110.72C141.365 110.459 147.715 110.154 154.066 109.806C155.675 109.719 157.241 109.632 158.807 109.502C159.938 109.415 161.069 109.371 162.156 109.719C163.939 110.241 165.114 111.633 166.158 113.068C169.724 118.201 172.9 123.595 175.335 129.336C175.596 129.988 176.51 129.553 176.553 128.988C177.162 121.637 178.641 114.417 179.424 107.109C179.859 103.369 180.12 99.715 179.946 96.1048ZM178.598 102.194C178.206 109.415 176.814 116.505 175.857 123.638C175.727 124.551 175.64 125.421 175.553 126.335C174.64 124.377 173.683 122.464 172.595 120.593C171.247 118.201 169.725 115.896 168.202 113.59C167.158 112.024 166.114 110.372 164.548 109.284C162.722 107.979 160.59 107.979 158.415 108.11C152.152 108.501 145.845 108.806 139.582 109.11C136.406 109.241 133.231 109.371 130.056 109.545C127.489 109.632 124.923 109.85 122.357 109.545C119.921 109.241 117.355 108.414 115.919 106.283C114.31 103.934 114.31 100.889 114.31 98.1491C114.354 90.5373 114.397 82.969 114.484 75.3571C114.528 71.5729 114.528 67.7886 114.528 63.961C114.528 62.0906 114.571 60.1768 114.615 58.3064C114.658 56.4796 114.528 54.6527 114.354 52.8694C114.093 49.4332 113.875 45.9535 115.049 42.6477C116.006 39.9075 117.92 37.8196 120.53 36.5582C122.922 35.4273 125.619 34.9489 128.229 34.7314C130.926 34.4704 133.666 34.4269 136.363 34.2964C139.799 34.1225 143.235 33.7745 146.671 33.4701C150.456 33.1656 154.24 32.8176 157.98 32.5132C159.894 32.3392 161.808 32.2086 163.678 32.0347C165.114 31.9042 166.506 31.8172 167.941 31.8607C170.638 31.9912 173.422 32.8176 174.683 35.3839C175.379 36.7757 175.51 38.3852 175.597 39.9075C175.727 41.7779 175.814 43.6481 175.901 45.475C176.118 49.3027 176.292 53.1304 176.51 56.9581C176.901 64.57 177.336 72.2253 177.728 79.8371C177.945 83.6213 178.119 87.4491 178.337 91.2333C178.598 94.9305 178.772 98.5406 178.598 102.194ZM165.375 73.8347C162.2 73.2693 158.937 72.7038 156.11 71.0075C153.631 69.5286 151.717 67.2667 151.108 64.4395C150.499 61.6992 150.977 58.8719 151.151 56.0882C151.195 55.3487 151.195 54.5658 151.151 53.8264C151.108 53.2174 151.065 52.6085 150.804 52.0865C150.238 51.0426 148.846 50.9991 147.889 51.3905C145.801 52.217 144.888 54.7398 144.801 56.8276C144.671 59.6984 145.628 62.4386 145.802 65.3094C145.888 67.3537 145.671 69.8765 143.975 71.3119C142.061 72.9213 139.408 72.4862 137.102 72.2253C134.405 71.9208 131.317 71.9644 129.186 73.9217C127.62 75.3571 127.098 77.9233 128.577 79.5327C130.273 80.6636 132.361 81.0551 134.318 80.5331C135.145 80.3156 135.493 81.577 134.666 81.7945C132.666 82.3164 130.491 82.0555 128.664 81.0986C127.402 82.4905 127.663 84.8392 129.534 85.6222C129.708 85.7092 129.838 85.8397 129.925 85.9702C131.839 86.5356 133.84 86.7096 135.797 86.4487C136.145 86.4052 136.45 86.7966 136.45 87.1011C136.45 87.4926 136.145 87.7101 135.797 87.7536C133.71 88.0145 131.578 87.8405 129.577 87.2315C128.925 88.7974 129.534 90.5808 130.969 91.4507C131.1 91.4072 131.23 91.3638 131.404 91.4507C133.709 92.1902 136.145 92.3642 138.494 91.8857C139.321 91.7117 139.669 92.9731 138.842 93.1471C136.624 93.582 134.362 93.5385 132.231 93.0166C131.535 93.7995 132.144 94.9304 132.883 95.4524C133.883 96.1918 135.232 96.4963 136.406 96.7573C141.234 97.6707 145.671 95.4958 150.325 94.5389C155.023 93.582 159.894 93.7996 164.461 95.1479C165.288 95.3654 164.94 96.6268 164.113 96.4093C161.243 95.5829 158.285 95.1914 155.284 95.2783C152.717 95.3653 150.195 95.8439 147.759 96.5398C145.28 97.2357 142.844 98.0187 140.277 98.2797C137.842 98.4971 135.188 98.1057 132.97 97.0617C132.013 96.5833 131.143 95.8439 130.795 94.7999C130.578 94.191 130.621 93.495 130.839 92.886C128.533 91.8421 127.446 89.1019 128.403 86.7966C128.316 86.7096 128.229 86.5356 128.229 86.4051C127.402 85.7962 126.794 84.9262 126.62 83.8823C126.402 82.6644 126.75 81.3596 127.576 80.4461C125.837 78.5323 126.185 75.444 127.837 73.5302C129.969 71.0509 133.449 70.6159 136.537 70.9204C138.712 71.1379 141.93 72.0078 143.54 69.9635C144.888 68.2236 144.627 65.4833 144.323 63.439C143.888 60.5248 143.018 57.4801 143.931 54.5658C144.584 52.3475 146.236 50.2161 148.672 49.9551C149.847 49.8247 151.108 50.2162 151.847 51.2166C152.63 52.3475 152.63 53.9134 152.587 55.2182C152.543 58.089 151.891 61.0468 152.413 63.9175C152.935 66.6578 154.675 68.7456 157.067 70.094C159.72 71.6164 162.809 72.1383 165.81 72.6602C166.549 72.7037 166.201 73.9652 165.375 73.8347ZM132.144 39.1246C131.709 38.4286 132.84 37.7762 133.275 38.4721C134.884 40.9949 136.885 43.2567 139.147 45.2141C139.408 45.4316 139.364 45.91 139.147 46.1274C138.886 46.3884 138.494 46.3449 138.233 46.1274C135.884 44.1266 133.84 41.7779 132.144 39.1246ZM156.632 47.3889C158.415 44.9966 160.242 42.6043 162.026 40.212C162.243 39.951 162.591 39.777 162.939 39.9945C163.2 40.1685 163.374 40.6034 163.157 40.9079C161.373 43.3002 159.546 45.6925 157.763 48.0848C157.546 48.3458 157.198 48.5197 156.85 48.3023C156.589 48.1283 156.415 47.6934 156.632 47.3889ZM148.063 44.2136C148.063 42.0823 148.063 39.951 148.063 37.8197C148.063 36.9933 149.368 36.9933 149.368 37.8197C149.368 39.951 149.368 42.0823 149.368 44.2136C149.368 45.0836 148.063 45.0836 148.063 44.2136Z" fill="black"/>
<path d="M50.5864 79.8376C50.2385 79.0981 51.3694 78.4022 51.7174 79.1851C53.2832 82.5343 57.2414 83.7522 60.6776 82.8823C64.5922 81.9254 67.5065 78.8807 69.7248 75.662C70.2033 74.966 71.3342 75.6185 70.8558 76.3144C69.7249 77.9238 68.507 79.4897 67.0716 80.7946C64.5488 83.0564 61.243 84.7092 57.7633 84.4482C54.8056 84.2307 51.8913 82.5778 50.5864 79.8376ZM4.82827 56.0886C8.52546 56.8715 12.1791 57.698 15.8763 58.4809C16.7027 58.6549 17.0507 57.3934 16.2243 57.2195C12.5271 56.4365 8.87345 55.6101 5.17626 54.8272C4.34983 54.6532 4.00184 55.9146 4.82827 56.0886ZM61.1125 34.8624C61.243 34.9928 61.2866 35.1669 61.2866 35.3409C61.2866 35.5148 61.1995 35.6453 61.1125 35.8193C60.5471 36.5152 59.9816 37.2547 59.3727 37.9506C59.1552 38.2551 58.6768 38.1681 58.4593 37.9506C58.3288 37.8202 58.2853 37.6461 58.2853 37.4721C58.2853 37.2982 58.3723 37.1676 58.4593 36.9936C59.0248 36.2977 59.5902 35.5583 60.1992 34.8624C60.4166 34.5579 60.8516 34.6449 61.1125 34.8624ZM56.0235 37.2111C56.3279 37.3416 56.763 37.2981 56.9369 36.9936C57.1544 36.5152 57.4154 36.0367 57.7199 35.6018C57.8069 35.5148 57.8504 35.3843 57.9374 35.2973C57.9374 35.2538 57.9808 35.2538 57.9808 35.2104C58.0243 35.1669 58.0678 35.1233 58.1113 35.0798C58.2853 34.8624 58.4593 34.6449 58.6768 34.4709C58.9378 34.21 58.9378 33.775 58.6768 33.5575C58.4158 33.2965 58.0243 33.2965 57.7633 33.5575C56.9369 34.3839 56.2845 35.3408 55.806 36.3847C55.719 36.5587 55.6755 36.6892 55.719 36.9067C55.7625 36.9502 55.893 37.1241 56.0235 37.2111ZM63.1134 32.9486C63.3309 33.253 63.5049 33.5574 63.6789 33.8619C63.7224 34.0359 63.8093 34.1664 63.8528 34.3404C63.9398 34.6884 64.3313 34.9059 64.6358 34.7754C64.9837 34.6884 65.2012 34.3404 65.0707 33.9924C64.8098 33.1225 64.3748 32.3396 63.7659 31.7306C63.5484 31.4697 63.0699 31.4697 62.8524 31.7306C62.5914 31.9916 62.5914 32.383 62.8524 32.644C62.9829 32.731 63.0699 32.8181 63.1134 32.9486ZM58.4593 30.4692C58.8508 30.4692 59.2858 30.5128 59.6772 30.5563C59.8077 30.5563 59.9381 30.5997 60.0251 30.5997C60.0686 30.5997 60.1557 30.5997 60.1992 30.6432C60.2427 30.6867 60.2862 30.7302 60.3297 30.7737C60.6342 30.9477 61.0691 30.8607 61.243 30.5563C61.3735 30.2953 61.3735 30.0342 61.243 29.8167C61.1125 29.6428 60.9386 29.5123 60.7211 29.4253C60.5036 29.3818 60.2426 29.3383 60.0251 29.2948C59.5032 29.2078 58.9813 29.1643 58.4593 29.1643C58.1113 29.1643 57.8069 29.4688 57.8069 29.8167C57.8504 30.2082 58.1113 30.4692 58.4593 30.4692ZM48.5421 51.478C48.5421 51.5649 48.5856 51.652 48.6291 51.739C48.6726 51.826 48.7596 51.9129 48.8031 51.9999C48.8901 52.0869 48.9771 52.1739 49.0641 52.2174C49.151 52.2609 49.2815 52.3044 49.3685 52.3479C49.4555 52.3914 49.586 52.3914 49.7165 52.3914C49.76 52.3914 49.76 52.3914 49.8035 52.3914C49.8905 52.3914 49.9775 52.3914 50.0645 52.3479C50.1515 52.3044 50.282 52.2609 50.3689 52.2174C50.5429 52.1304 50.5864 52.0435 50.7169 51.8695C50.8039 51.7825 50.804 51.6954 50.8474 51.5649C50.8909 51.4779 50.8909 51.3475 50.8909 51.217C50.8909 51.13 50.8909 51.043 50.8909 50.956C50.8909 50.869 50.8474 50.782 50.8474 50.695C50.804 50.608 50.804 50.521 50.7605 50.4775C50.717 50.3905 50.6735 50.3471 50.63 50.3036C50.543 50.2166 50.4559 50.1296 50.3689 50.0861C50.282 50.0426 50.2385 49.9991 50.1515 49.9991C50.108 49.9991 50.108 49.9991 50.0645 49.9556C49.9775 49.9121 49.847 49.9121 49.7165 49.9121C49.4555 49.9121 49.2381 49.9991 49.0206 50.1296C48.9771 50.1731 48.8901 50.2166 48.8031 50.3036C48.7596 50.3471 48.6726 50.4341 48.6291 50.5211C48.6291 50.5645 48.5857 50.5645 48.5857 50.608C48.5422 50.695 48.4986 50.7821 48.4986 50.869C48.4986 50.9125 48.4986 50.9995 48.4986 51.043C48.4986 51.0865 48.4551 51.13 48.4986 51.217C48.4986 51.304 48.4986 51.391 48.5421 51.478ZM98.9979 77.1843C98.9544 81.3165 98.65 85.4486 98.2585 89.5373C97.867 93.7564 97.3015 97.9321 96.7795 102.108C96.5186 104.239 96.2577 106.327 95.9967 108.458C95.7792 110.329 95.5617 112.199 95.2572 114.026C94.8657 116.331 94.2133 118.636 93.7783 120.942C93.5174 122.16 93.2999 123.421 93.2129 124.682C93.1694 125.465 93.0824 126.466 93.4304 127.162C93.8218 127.901 92.691 128.554 92.2995 127.814C91.1251 125.552 89.9507 123.291 88.6893 121.116C86.21 116.766 83.3392 112.634 79.642 109.241C77.9022 107.632 75.9884 106.24 73.8136 105.283C72.7696 104.804 71.6822 104.5 70.5948 104.283C69.3334 104.065 68.0285 104.109 66.7671 104.152C61.2865 104.283 55.8061 104.978 50.3255 105.5C44.8885 106.022 39.4078 106.37 33.9273 106.457C28.5772 106.588 23.1837 106.37 17.8772 105.457C15.2674 105.022 12.6576 104.413 10.1348 103.543C8.00348 102.847 5.87216 101.89 4.2628 100.281C0.870079 96.9751 1.04406 91.9731 1.65301 87.6235C2.00098 85.0137 2.47949 82.4473 2.78396 79.8376C3.13193 77.0538 3.34939 74.2266 3.52338 71.3993C3.82785 65.7883 3.78438 60.1772 3.43641 54.6097C3.04494 48.9986 2.21844 43.4311 1.30502 37.9071C-0.260848 28.5989 -1.39171 17.6378 5.48071 10.0694C8.0905 7.19867 11.7007 5.32836 15.3109 4.02347C19.1821 2.67509 23.2708 1.93563 27.3594 1.50066C31.5351 1.0222 35.7107 0.848196 39.8864 0.717707C44.323 0.587218 48.7596 0.326197 53.1962 0.239204C58.9812 0.108715 64.7663 0.152275 70.5513 0.413253C73.1176 0.543742 75.6404 0.717728 78.1632 0.848217C79.6856 0.93521 81.2514 0.935231 82.7737 0.978727C85.862 1.06572 89.0808 1.28318 91.9515 2.58807C94.8658 3.93646 96.4317 6.50277 96.6491 9.678C96.7361 10.7654 96.7796 11.8528 96.8666 12.9402C97.3886 21.509 97.7365 30.0777 97.9975 38.6465C98.2584 47.2588 98.476 55.8711 98.7804 64.4399C98.7804 68.7025 99.0414 72.9652 98.9979 77.1843ZM97.693 74.4876C97.6495 70.1815 97.3885 65.8752 97.258 61.5691C96.9971 52.9133 96.7361 44.2576 96.4751 35.6453C96.1706 26.9895 95.8226 18.3338 95.2572 9.678C95.1702 8.24262 94.7353 6.80716 93.8219 5.67625C92.0385 3.45794 88.9502 2.84901 86.2534 2.54453C83.2522 2.19656 80.2074 2.32705 77.2062 2.10957C71.5517 1.7181 65.8971 1.50062 60.2426 1.45712C55.023 1.41363 49.847 1.67467 44.6274 1.84865C36.6676 2.15313 28.5773 2.10963 20.748 3.80599C16.9638 4.63242 13.2666 5.85028 9.96086 7.89461C6.35066 10.1999 3.87133 13.5926 2.52294 17.6378C1.00057 22.2919 1.04413 27.207 1.60958 31.9916C2.26203 37.4286 3.43636 42.7787 4.04531 48.2157C5.30671 59.1768 5.21972 70.3119 3.82783 81.273C3.52336 83.7523 3.0449 86.1881 2.74042 88.6674C2.47944 90.8422 2.34898 93.1475 2.87093 95.2788C3.43639 97.5406 4.7413 99.324 6.69863 100.542C8.65597 101.803 10.9613 102.456 13.2231 103.065C16.5288 103.935 19.878 104.5 23.2707 104.761C23.2707 104.718 23.2707 104.674 23.2707 104.631C23.2707 100.803 23.2273 96.9752 23.1403 93.1475C22.8793 79.7506 22.2268 66.3972 21.6613 53.0003C16.1808 52.2609 10.7002 51.5215 5.21969 50.7821C4.87172 50.7386 4.69774 50.3036 4.78473 49.9991C4.87172 49.6077 5.21972 49.4772 5.56769 49.5642C11.2222 50.3471 16.8333 51.0865 22.4878 51.8695C22.7923 51.913 22.9662 52.2609 22.9662 52.4784C23.1402 56.3061 23.2708 60.1337 23.4447 63.9614C23.6622 69.1375 23.8797 74.357 24.0536 79.5331L24.0972 79.4897C29.4037 75.662 35.1888 72.4867 41.2782 70.0509C41.3217 70.0509 41.3653 70.0075 41.4088 70.0075C41.6262 68.8765 41.8002 67.7456 42.0177 66.6147C43.1051 60.7427 44.1925 54.8272 45.2799 48.9551C41.9307 47.0848 38.538 45.171 35.1888 43.3006C34.7103 43.0396 34.7973 42.4307 35.1888 42.1698C37.0591 40.7779 38.9294 39.386 40.7997 37.9941C44.2795 35.3843 47.7157 32.731 51.1954 30.1647C52.8918 28.9033 54.5447 27.5114 56.415 26.5545C57.4154 26.0326 58.4158 25.6411 59.5032 25.3801C58.8072 25.0322 58.1113 24.5537 57.4589 23.8578C55.5885 21.9439 54.7186 15.8544 58.5898 12.7662C60.5907 18.1597 63.7658 18.4208 67.4195 19.3342C68.4634 18.8992 69.5073 18.5077 70.5948 18.2032C73.2915 17.4203 76.2928 17.5943 78.2066 19.8996C79.8595 21.9005 80.2075 24.5102 79.7725 27.033C79.2941 29.8168 77.9891 32.4266 76.4668 34.7754C75.8143 35.7758 75.1184 36.7327 74.3789 37.6896C75.5533 37.7331 76.5103 38.429 77.1628 39.3859C77.8587 40.4299 77.9891 41.7783 77.8586 42.9962C77.7281 44.3445 77.3803 45.7365 76.8583 46.9544C75.9449 49.0857 73.9875 50.8255 71.5952 50.695C71.5082 50.869 71.3778 50.956 71.2038 51.043C70.8993 51.4345 70.5513 51.826 70.2033 52.1739C70.2033 52.2174 70.2468 52.261 70.2468 52.3044C71.1167 58.6114 72.2042 64.8749 73.4656 71.0949C73.596 71.0949 73.7266 71.1384 73.8136 71.2254C78.5982 75.053 83.1652 79.1852 87.4278 83.5783C87.9933 84.1872 87.0799 85.1007 86.5145 84.4918C82.4693 80.3161 78.1631 76.4014 73.6395 72.7477C72.4651 74.6616 70.3773 75.7925 68.246 76.5319C65.7667 77.4018 63.1569 78.0108 60.5906 78.5762C57.8068 79.1417 54.8926 79.5331 52.0654 79.1851C51.8479 79.1416 51.5869 79.0982 51.3694 79.0982C51.3694 79.2721 51.3259 79.4462 51.1954 79.5767C48.9336 81.795 45.1494 82.3169 42.4526 80.5771C39.7993 78.8807 38.5379 75.401 39.4949 72.3997C39.5383 72.2693 39.6253 72.1388 39.7123 72.0953C34.4493 74.3571 29.4472 77.2279 24.7931 80.5771C24.5321 80.7511 24.3146 80.7076 24.1406 80.5771C24.3146 85.5792 24.4452 90.5813 24.5321 95.5833C26.3155 93.5825 29.4472 92.9735 31.796 94.3654C32.5355 94.8004 31.883 95.9312 31.1436 95.4963C29.2297 94.3654 26.533 94.9309 25.2716 96.7577C25.0976 96.9752 24.8366 97.1057 24.5756 97.0622C24.6191 99.0195 24.6191 100.933 24.6191 102.891C26.272 101.368 28.7512 100.803 30.8825 101.586C31.2305 101.716 31.448 102.021 31.3175 102.369C31.2305 102.673 30.8391 102.934 30.5347 102.804C28.6208 102.108 26.4025 102.717 25.0976 104.283C24.9671 104.413 24.8366 104.457 24.6627 104.457C24.6627 104.5 24.6627 104.544 24.6627 104.587C24.6627 104.674 24.6626 104.718 24.6191 104.805C31.448 105.283 38.3204 104.892 45.1494 104.457C50.5429 104.109 55.893 103.413 61.2866 102.978C63.9399 102.76 66.6801 102.586 69.3768 102.673C71.5517 102.76 73.6396 103.456 75.5534 104.457C79.6421 106.631 82.9912 110.155 85.7315 113.808C88.1673 117.027 90.1681 120.55 92.0385 124.117C92.169 122.464 92.5604 120.811 92.9084 119.245C93.3869 116.94 94.0393 114.591 94.3438 112.242C95.4312 103.761 96.6491 95.2788 97.345 86.797C97.519 82.8388 97.7365 78.6633 97.693 74.4876ZM41.1042 71.7038V71.6603C40.7127 71.8343 40.3213 71.9647 39.9734 72.1387C40.4083 72.0952 40.8868 72.3997 40.7128 72.9217C39.9298 75.3575 40.8867 78.2282 43.0615 79.6201C45.1929 80.9685 48.1507 80.664 50.0645 78.9676C46.4108 78.0542 42.9746 75.8795 41.4088 72.3997C41.1913 72.2693 41.0172 72.0082 41.1042 71.7038ZM46.5848 48.9117C46.4543 49.6511 46.3238 50.4341 46.1498 51.1735C44.8884 57.9589 43.627 64.7443 42.4091 71.5733C42.4091 71.6168 42.4526 71.6168 42.4526 71.6603C43.4095 73.7917 45.0625 75.401 47.0633 76.4884C51.4564 78.8807 56.5889 78.3587 61.33 77.2713C63.6788 76.7494 66.0276 76.1839 68.2894 75.314C69.8988 74.705 71.4647 73.7916 72.4216 72.3562C72.3346 72.2692 72.2476 72.1822 72.2041 72.0082C70.9427 65.8752 69.8988 59.6988 68.9854 53.4788C66.1147 56.1321 62.5479 58.0459 58.7202 58.9159C58.4158 59.3508 57.9808 59.6118 57.4589 59.7858C56.8499 60.0033 56.067 60.1338 55.4146 60.1338C54.7621 60.1338 54.1097 59.9598 53.5877 59.4813C53.3268 59.2204 53.1527 58.9159 53.0657 58.6114C52.8917 58.6984 52.6308 58.7419 52.4568 58.6114C52.1523 58.4374 52.0218 58.0024 52.2393 57.698C52.9352 56.654 54.0662 56.0016 55.2841 55.8711C56.328 55.7406 57.4153 56.0016 58.2853 56.6541C58.5897 56.8716 58.8072 57.176 58.9377 57.524C63.0264 56.4801 66.7671 54.2183 69.5509 51.0865C68.768 50.8256 68.072 50.3036 67.55 49.6511C66.6801 48.5202 66.4626 47.0848 66.6801 45.6929C66.9411 44.1705 67.724 42.7352 68.7244 41.4738L68.1155 41.3433C65.1142 38.168 66.6366 34.7753 66.3756 31.9046C66.0277 27.9464 64.1574 27.3374 61.8521 26.5545H61.8085C59.6337 26.598 57.5894 27.381 55.7626 28.5554C53.9792 29.6863 52.3263 31.0347 50.6734 32.2961C48.977 33.5575 47.2807 34.8623 45.5843 36.1237C42.6266 38.3855 39.6254 40.6039 36.6242 42.8222C39.8429 44.6491 43.0181 46.4324 46.2368 48.2157C46.5413 48.3462 46.6283 48.6507 46.5848 48.9117ZM75.6838 33.688C77.9021 30.0778 80.3815 24.2927 76.9453 20.6825C74.9879 18.6817 72.1606 19.2036 69.8118 20.0301C69.6813 20.0735 69.5509 20.1171 69.4204 20.1606C70.8123 20.6825 72.2911 21.422 73.77 22.6834C76.5973 25.0322 76.7712 29.4688 75.6838 33.688ZM67.9415 46.3019C67.8111 47.9548 68.8114 49.7817 70.5078 49.9121C70.5513 49.8687 70.5948 49.8251 70.6383 49.7816C70.8558 49.4772 71.2472 49.4337 71.5082 49.5642C73.857 49.8686 75.4229 47.5198 76.0318 45.5625C76.5538 43.8227 77.1627 41.2998 75.7273 39.8209C74.205 38.168 72.1607 39.8644 70.9863 41.0388C69.5509 42.4742 68.072 44.1706 67.9415 46.3019ZM57.5458 57.8285C57.5893 57.8285 57.6329 57.8284 57.6764 57.7849C57.6329 57.7414 57.5893 57.6979 57.5458 57.6544C57.2849 57.4369 57.0239 57.3064 56.7195 57.2195C56.241 57.089 55.7625 57.0455 55.2841 57.1325C55.2841 57.176 55.2841 57.2195 55.2841 57.3065C55.2841 57.6545 54.9796 58.0025 54.6316 57.959C54.5446 57.959 54.5881 57.9155 54.5446 57.959C54.5011 57.959 54.5012 57.959 54.4577 58.0459C54.3707 58.1764 54.3706 58.2199 54.4141 58.3069C54.4576 58.3939 54.5447 58.5244 54.6751 58.6114C54.8056 58.6984 54.9796 58.7854 55.1535 58.7854C55.632 58.8724 56.1105 58.7418 56.5889 58.6549C56.7629 58.6114 56.9369 58.5678 57.1109 58.5243C57.0239 58.2199 57.1109 57.872 57.5458 57.8285ZM71.3777 43.2572C72.2041 43.7356 73.0306 44.2141 73.857 44.649C74.1615 44.823 74.5965 44.736 74.7705 44.4316C74.9444 44.1271 74.8574 43.7356 74.553 43.5181C73.7265 43.0396 72.9001 42.5612 72.0737 42.1262C71.7692 41.9522 71.3342 42.0392 71.1602 42.3437C70.9862 42.6917 71.0732 43.0832 71.3777 43.2572ZM70.3338 45.3885C71.4212 45.9104 72.4651 46.4758 73.5525 46.9978C73.857 47.1718 74.292 47.0848 74.466 46.7803C74.64 46.4758 74.553 46.0409 74.2485 45.867C73.1611 45.345 72.1171 44.7796 71.0297 44.2576C70.7253 44.0836 70.2903 44.1706 70.1164 44.4751C69.9424 44.7796 70.0294 45.2145 70.3338 45.3885ZM16.4418 91.3641C16.3983 94.5393 16.2678 97.6711 16.0938 100.846C16.0503 101.673 17.3552 101.673 17.3987 100.846C17.9641 89.7983 17.9207 78.7067 17.3117 67.6152C17.1377 64.4399 16.9202 61.3082 16.6593 58.1329C16.5723 57.3065 15.2674 57.3065 15.3544 58.1329C16.3113 69.181 16.6593 80.2725 16.4418 91.3641ZM48.6291 102.76C45.4973 100.498 43.0181 97.4972 40.1039 94.9309C37.4071 92.5386 34.2318 90.5812 30.5781 90.1028C28.6208 89.8418 26.6634 90.1463 24.9236 91.0162C24.1841 91.4077 24.8366 92.495 25.576 92.1471C28.6208 90.6247 32.231 91.4077 35.1452 92.9736C38.3204 94.6699 40.7562 97.3231 43.279 99.8459C44.7579 101.325 46.2803 102.717 47.9766 103.935C48.6726 104.37 49.325 103.239 48.6291 102.76ZM32.7095 98.541C30.2737 96.9751 26.9244 97.2796 24.7496 99.1935C24.0972 99.7589 25.054 100.672 25.663 100.107C27.4028 98.5845 30.0997 98.4541 32.057 99.672C32.753 100.15 33.4489 99.0195 32.7095 98.541Z" fill="black"/>
<path d="M109.989 18.8361C109.756 33.2843 88.2669 33.2843 88 18.8361C88.2336 4.38796 109.722 4.38796 109.989 18.8361Z" fill="#003B99"/>
<path d="M102.816 16.0335C101.915 14.3985 99.6123 14.2317 98.311 15.4997C97.677 16.1336 97.4434 17.0012 97.5435 17.8354C97.2766 17.5017 96.9096 17.2348 96.4758 17.1013C95.8084 16.9011 95.0076 17.0346 94.4403 17.435C93.8397 17.8687 93.4059 18.5361 93.4393 19.3036C93.4727 20.3046 94.2068 21.0387 95.0076 21.5726C95.6083 21.973 96.309 22.2399 97.0097 22.4735C97.9774 22.8072 98.945 23.0074 99.946 23.1742C100.28 23.2409 100.58 23.2743 100.914 23.3077C101.181 23.341 101.414 23.0407 101.414 22.8072C101.414 22.707 101.381 22.6403 101.347 22.5736C101.448 21.4391 102.148 20.4714 102.615 19.4704C103.183 18.4026 103.45 17.168 102.816 16.0335ZM101.614 19.3369C101.147 20.2712 100.58 21.2055 100.38 22.2733C99.579 22.1398 98.7447 21.973 97.9439 21.7728C97.5769 21.6727 97.1765 21.5392 96.8095 21.4057C96.7427 21.3723 96.6426 21.339 96.5759 21.3056H96.5425C96.5091 21.2722 96.4424 21.2722 96.4091 21.2389C96.2756 21.1721 96.1421 21.1054 96.0087 21.0387C95.7751 20.9052 95.5415 20.7717 95.3079 20.6049C95.3079 20.6049 95.2078 20.5382 95.2745 20.5715C95.3413 20.6383 95.2746 20.5715 95.2412 20.5382C95.2078 20.5048 95.141 20.4714 95.1077 20.4381C95.0409 20.3713 94.9409 20.3046 94.8741 20.2045C94.8408 20.1711 94.8074 20.1377 94.774 20.1044L94.7407 20.071C94.7073 20.0043 94.6405 19.9375 94.6072 19.8374C94.5738 19.8041 94.5738 19.7707 94.5404 19.7373C94.5071 19.6706 94.4737 19.6039 94.4737 19.5038C94.4737 19.4704 94.4737 19.4704 94.4737 19.437C94.4737 19.437 94.4737 19.437 94.4737 19.4037C94.4737 19.3369 94.4737 19.2702 94.4737 19.2035V19.2368V19.2035C94.4737 19.1367 94.4737 19.1701 94.4737 19.2035C94.4737 19.1701 94.4737 19.1701 94.4737 19.1367C94.4737 19.07 94.5071 19.0032 94.5404 18.9365C94.5404 18.9031 94.5738 18.8698 94.5738 18.8698C94.6072 18.803 94.6406 18.7363 94.674 18.7029C94.7073 18.6696 94.7073 18.6696 94.7407 18.6362C94.7741 18.5695 94.8408 18.5361 94.8741 18.5027C94.9075 18.4694 94.9075 18.4694 94.9408 18.436C95.0076 18.4026 95.0409 18.3693 95.1077 18.3359C95.1744 18.3025 95.2078 18.2692 95.2745 18.2358C95.3079 18.2358 95.3413 18.2024 95.3746 18.2024C95.4414 18.1691 95.5081 18.1691 95.5749 18.1357C95.6082 18.1357 95.6082 18.1357 95.6416 18.1357C95.6416 18.1357 95.6416 18.1357 95.675 18.1357C95.7417 18.1357 95.8084 18.1357 95.8752 18.1357C95.9085 18.1357 95.9419 18.1357 95.9753 18.1357C96.042 18.1357 96.1088 18.1691 96.1755 18.1691C96.2089 18.1691 96.2422 18.2024 96.2755 18.2024C96.3423 18.2358 96.409 18.2692 96.4758 18.3025C96.5092 18.3025 96.5091 18.3359 96.5425 18.3359C96.5425 18.3359 96.5759 18.3359 96.5759 18.3693C96.6426 18.436 96.7094 18.4694 96.7427 18.5361L96.7761 18.5695C96.7761 18.6028 96.8095 18.6362 96.8429 18.6362C96.9096 18.7029 96.9429 18.803 96.9763 18.8698C97.0097 18.9031 97.0096 18.9365 97.043 18.9699C97.043 19.0032 97.0431 19.0032 97.0764 19.0366C97.1098 19.1367 97.1432 19.2368 97.1765 19.3703C97.2433 19.6372 97.5435 19.8041 97.7771 19.704C98.044 19.6372 98.2109 19.3369 98.1108 19.1033C98.0774 19.0032 98.0441 18.9031 98.0107 18.803C98.3444 18.8698 98.7447 18.6028 98.6113 18.2024C98.5445 18.0022 98.5112 17.8354 98.4778 17.6352C98.4778 17.435 98.4779 17.2681 98.5112 17.1347C98.578 16.8344 98.7114 16.534 98.9116 16.3672C99.3454 15.9001 99.9126 15.6665 100.547 15.6999C100.814 15.6999 101.081 15.8 101.347 15.9668C101.614 16.1336 101.815 16.3672 101.981 16.6675C102.449 17.5351 102.048 18.5027 101.614 19.3369Z" fill="white"/>
<path d="M94.7405 20.0372C94.7738 20.0372 94.7738 20.0372 94.7405 20.0372C94.7738 20.0706 94.7738 20.0706 94.7738 20.0706C94.8072 20.0706 94.7738 20.0372 94.7405 20.0372Z" fill="#DCDCDC"/>
</svg>
