<svg width="53" height="52" viewBox="0 0 53 52" fill="none" xmlns="http://www.w3.org/2000/svg">
<circle cx="24" cy="27" r="21" fill="#F5F5F5" stroke="#E5E5E5" stroke-width="2"/>
<path d="M16.1089 29.3073C15.9317 30.469 16.724 31.2753 17.694 31.6772C21.413 33.2178 26.5883 33.2178 30.3072 31.6772C31.2773 31.2753 32.0696 30.469 31.8924 29.3073C31.7835 28.5934 31.245 27.9989 30.846 27.4184C30.3234 26.6488 30.2715 25.8092 30.2714 24.916C30.2714 21.4642 27.4639 18.666 24.0007 18.666C20.5374 18.666 17.7299 21.4642 17.7299 24.916C17.7298 25.8092 17.6779 26.6488 17.1553 27.4184C16.7564 27.9989 16.2178 28.5934 16.1089 29.3073Z" stroke="#171717" stroke-width="1.5" stroke-linecap="round" stroke-linejoin="round"/>
<path d="M20.666 32.834C21.0481 34.2717 22.3956 35.334 23.9993 35.334C25.6031 35.334 26.9506 34.2717 27.3327 32.834" stroke="#171717" stroke-width="1.5" stroke-linecap="round" stroke-linejoin="round"/>
<rect x="31.6719" y="1" width="20" height="20" rx="10" fill="#4CAF50" stroke="#D5FBDF" stroke-width="2"/>
<path d="M39.9333 7.56V6.54H42.3573V15H41.2053V7.56H39.9333Z" fill="white"/>
</svg>
