<svg width="1216" height="328" viewBox="0 0 1216 328" fill="none" xmlns="http://www.w3.org/2000/svg">
<g clip-path="url(#clip0_383_1430)">
<path d="M1 47.5829V0H48.5829V47.5829H1Z" stroke="white" stroke-opacity="0.04" stroke-width="0.594787"/>
<path d="M47.9882 47.5829V0H95.5711V47.5829H47.9882Z" stroke="white" stroke-opacity="0.04" stroke-width="0.594787"/>
<path d="M94.9763 47.5829V0H142.559V47.5829H94.9763Z" stroke="white" stroke-opacity="0.04" stroke-width="0.594787"/>
<path d="M141.964 47.5829V0H189.547V47.5829H141.964Z" stroke="white" stroke-opacity="0.04" stroke-width="0.594787"/>
<path d="M188.953 47.5829V0H236.536V47.5829H188.953Z" stroke="white" stroke-opacity="0.04" stroke-width="0.594787"/>
<path d="M235.941 47.5829V0H283.524V47.5829H235.941Z" stroke="white" stroke-opacity="0.04" stroke-width="0.594787"/>
<path d="M282.929 47.5829V0H330.512V47.5829H282.929Z" stroke="white" stroke-opacity="0.04" stroke-width="0.594787"/>
<path d="M329.917 47.5829V0H377.5V47.5829H329.917Z" stroke="white" stroke-opacity="0.04" stroke-width="0.594787"/>
<path d="M1 94.5712V46.9883H48.5829V94.5712H1Z" stroke="white" stroke-opacity="0.04" stroke-width="0.594787"/>
<path d="M47.9882 94.5712V46.9883H95.5711V94.5712H47.9882Z" fill="#818181" fill-opacity="0.05" stroke="white" stroke-opacity="0.04" stroke-width="0.594787"/>
<path d="M94.9763 94.5712V46.9883H142.559V94.5712H94.9763Z" stroke="white" stroke-opacity="0.04" stroke-width="0.594787"/>
<path d="M141.964 94.5712V46.9883H189.547V94.5712H141.964Z" stroke="white" stroke-opacity="0.04" stroke-width="0.594787"/>
<path d="M188.953 94.5712V46.9883H236.536V94.5712H188.953Z" stroke="white" stroke-opacity="0.04" stroke-width="0.594787"/>
<path d="M235.941 94.5712V46.9883H283.524V94.5712H235.941Z" stroke="white" stroke-opacity="0.04" stroke-width="0.594787"/>
<path d="M282.929 94.5712V46.9883H330.512V94.5712H282.929Z" stroke="white" stroke-opacity="0.04" stroke-width="0.594787"/>
<path d="M329.917 94.5712V46.9883H377.5V94.5712H329.917Z" stroke="white" stroke-opacity="0.04" stroke-width="0.594787"/>
<path d="M1 141.559V93.9761H48.5829V141.559H1Z" stroke="white" stroke-opacity="0.04" stroke-width="0.594787"/>
<path d="M47.9882 141.559V93.9761H95.5711V141.559H47.9882Z" stroke="white" stroke-opacity="0.04" stroke-width="0.594787"/>
<path d="M94.9763 141.559V93.9761H142.559V141.559H94.9763Z" stroke="white" stroke-opacity="0.04" stroke-width="0.594787"/>
<path d="M141.964 141.559V93.9761H189.547V141.559H141.964Z" fill="#818181" fill-opacity="0.05" stroke="white" stroke-opacity="0.04" stroke-width="0.594787"/>
<path d="M188.953 141.559V93.9761H236.536V141.559H188.953Z" stroke="white" stroke-opacity="0.04" stroke-width="0.594787"/>
<path d="M235.941 141.559V93.9761H283.524V141.559H235.941Z" stroke="white" stroke-opacity="0.04" stroke-width="0.594787"/>
<path d="M282.929 141.559V93.9761H330.512V141.559H282.929Z" stroke="white" stroke-opacity="0.04" stroke-width="0.594787"/>
<path d="M329.917 141.559V93.9761H377.5V141.559H329.917Z" stroke="white" stroke-opacity="0.04" stroke-width="0.594787"/>
<path d="M1 188.548V140.965H48.5829V188.548H1Z" stroke="white" stroke-opacity="0.04" stroke-width="0.594787"/>
<path d="M47.9882 188.548V140.965H95.5711V188.548H47.9882Z" stroke="white" stroke-opacity="0.04" stroke-width="0.594787"/>
<path d="M94.9763 188.548V140.965H142.559V188.548H94.9763Z" stroke="white" stroke-opacity="0.04" stroke-width="0.594787"/>
<path d="M141.964 188.548V140.965H189.547V188.548H141.964Z" stroke="white" stroke-opacity="0.04" stroke-width="0.594787"/>
<path d="M188.953 188.548V140.965H236.536V188.548H188.953Z" stroke="white" stroke-opacity="0.04" stroke-width="0.594787"/>
<path d="M235.941 188.548V140.965H283.524V188.548H235.941Z" stroke="white" stroke-opacity="0.04" stroke-width="0.594787"/>
<path d="M282.929 188.548V140.965H330.512V188.548H282.929Z" fill="#818181" fill-opacity="0.05" stroke="white" stroke-opacity="0.04" stroke-width="0.594787"/>
<path d="M329.917 188.548V140.965H377.5V188.548H329.917Z" stroke="white" stroke-opacity="0.04" stroke-width="0.594787"/>
<path d="M1 235.535V187.952H48.5829V235.535H1Z" stroke="white" stroke-opacity="0.04" stroke-width="0.594787"/>
<path d="M47.9882 235.535V187.952H95.5711V235.535H47.9882Z" stroke="white" stroke-opacity="0.04" stroke-width="0.594787"/>
<path d="M94.9763 235.535V187.952H142.559V235.535H94.9763Z" stroke="white" stroke-opacity="0.04" stroke-width="0.594787"/>
<path d="M141.964 235.535V187.952H189.547V235.535H141.964Z" stroke="white" stroke-opacity="0.04" stroke-width="0.594787"/>
<path d="M188.953 235.535V187.952H236.536V235.535H188.953Z" fill="#818181" fill-opacity="0.05" stroke="white" stroke-opacity="0.04" stroke-width="0.594787"/>
<path d="M235.941 235.535V187.952H283.524V235.535H235.941Z" stroke="white" stroke-opacity="0.04" stroke-width="0.594787"/>
<path d="M282.929 235.535V187.952H330.512V235.535H282.929Z" stroke="white" stroke-opacity="0.04" stroke-width="0.594787"/>
<path d="M329.917 235.535V187.952H377.5V235.535H329.917Z" stroke="white" stroke-opacity="0.04" stroke-width="0.594787"/>
<path d="M1 282.523V234.94H48.5829V282.523H1Z" fill="#818181" fill-opacity="0.05" stroke="white" stroke-opacity="0.04" stroke-width="0.594787"/>
<path d="M47.9882 282.523V234.94H95.5711V282.523H47.9882Z" stroke="white" stroke-opacity="0.04" stroke-width="0.594787"/>
<path d="M94.9763 282.523V234.94H142.559V282.523H94.9763Z" stroke="white" stroke-opacity="0.04" stroke-width="0.594787"/>
<path d="M141.964 282.523V234.94H189.547V282.523H141.964Z" stroke="white" stroke-opacity="0.04" stroke-width="0.594787"/>
<path d="M188.953 282.523V234.94H236.536V282.523H188.953Z" stroke="white" stroke-opacity="0.04" stroke-width="0.594787"/>
<path d="M235.941 282.523V234.94H283.524V282.523H235.941Z" stroke="white" stroke-opacity="0.04" stroke-width="0.594787"/>
<path d="M282.929 282.523V234.94H330.512V282.523H282.929Z" stroke="white" stroke-opacity="0.04" stroke-width="0.594787"/>
<path d="M329.917 282.523V234.94H377.5V282.523H329.917Z" stroke="white" stroke-opacity="0.04" stroke-width="0.594787"/>
<path d="M1 329.512V281.929H48.5829V329.512H1Z" stroke="white" stroke-opacity="0.04" stroke-width="0.594787"/>
<path d="M47.9882 329.512V281.929H95.5711V329.512H47.9882Z" stroke="white" stroke-opacity="0.04" stroke-width="0.594787"/>
<path d="M94.9763 329.512V281.929H142.559V329.512H94.9763Z" stroke="white" stroke-opacity="0.04" stroke-width="0.594787"/>
<path d="M141.964 329.512V281.929H189.547V329.512H141.964Z" stroke="white" stroke-opacity="0.04" stroke-width="0.594787"/>
<path d="M188.953 329.512V281.929H236.536V329.512H188.953Z" stroke="white" stroke-opacity="0.04" stroke-width="0.594787"/>
<path d="M235.941 329.512V281.929H283.524V329.512H235.941Z" stroke="white" stroke-opacity="0.04" stroke-width="0.594787"/>
<path d="M282.929 329.512V281.929H330.512V329.512H282.929Z" stroke="white" stroke-opacity="0.04" stroke-width="0.594787"/>
<path d="M329.917 329.512V281.929H377.5V329.512H329.917Z" stroke="white" stroke-opacity="0.04" stroke-width="0.594787"/>
<path d="M377.5 47.5829V0H425.083V47.5829H377.5Z" stroke="white" stroke-opacity="0.04" stroke-width="0.594787"/>
<path d="M424.488 47.5829V0H472.071V47.5829H424.488Z" stroke="white" stroke-opacity="0.04" stroke-width="0.594787"/>
<path d="M471.476 47.5829V0H519.059V47.5829H471.476Z" stroke="white" stroke-opacity="0.04" stroke-width="0.594787"/>
<path d="M518.464 47.5829V0H566.047V47.5829H518.464Z" stroke="white" stroke-opacity="0.04" stroke-width="0.594787"/>
<path d="M565.453 47.5829V0H613.036V47.5829H565.453Z" stroke="white" stroke-opacity="0.04" stroke-width="0.594787"/>
<path d="M612.441 47.5829V0H660.024V47.5829H612.441Z" stroke="white" stroke-opacity="0.04" stroke-width="0.594787"/>
<path d="M659.429 47.5829V0H707.012V47.5829H659.429Z" stroke="white" stroke-opacity="0.04" stroke-width="0.594787"/>
<path d="M706.417 47.5829V0H754V47.5829H706.417Z" stroke="white" stroke-opacity="0.04" stroke-width="0.594787"/>
<path d="M377.5 94.5712V46.9883H425.083V94.5712H377.5Z" stroke="white" stroke-opacity="0.04" stroke-width="0.594787"/>
<path d="M424.488 94.5712V46.9883H472.071V94.5712H424.488Z" fill="#818181" fill-opacity="0.05" stroke="white" stroke-opacity="0.04" stroke-width="0.594787"/>
<path d="M471.476 94.5712V46.9883H519.059V94.5712H471.476Z" stroke="white" stroke-opacity="0.04" stroke-width="0.594787"/>
<path d="M518.464 94.5712V46.9883H566.047V94.5712H518.464Z" stroke="white" stroke-opacity="0.04" stroke-width="0.594787"/>
<path d="M565.453 94.5712V46.9883H613.036V94.5712H565.453Z" stroke="white" stroke-opacity="0.04" stroke-width="0.594787"/>
<path d="M612.441 94.5712V46.9883H660.024V94.5712H612.441Z" stroke="white" stroke-opacity="0.04" stroke-width="0.594787"/>
<path d="M659.429 94.5712V46.9883H707.012V94.5712H659.429Z" stroke="white" stroke-opacity="0.04" stroke-width="0.594787"/>
<path d="M706.417 94.5712V46.9883H754V94.5712H706.417Z" stroke="white" stroke-opacity="0.04" stroke-width="0.594787"/>
<path d="M377.5 141.559V93.9761H425.083V141.559H377.5Z" stroke="white" stroke-opacity="0.04" stroke-width="0.594787"/>
<path d="M424.488 141.559V93.9761H472.071V141.559H424.488Z" stroke="white" stroke-opacity="0.04" stroke-width="0.594787"/>
<path d="M471.476 141.559V93.9761H519.059V141.559H471.476Z" stroke="white" stroke-opacity="0.04" stroke-width="0.594787"/>
<path d="M518.464 141.559V93.9761H566.047V141.559H518.464Z" fill="#818181" fill-opacity="0.05" stroke="white" stroke-opacity="0.04" stroke-width="0.594787"/>
<path d="M565.453 141.559V93.9761H613.036V141.559H565.453Z" stroke="white" stroke-opacity="0.04" stroke-width="0.594787"/>
<path d="M612.441 141.559V93.9761H660.024V141.559H612.441Z" stroke="white" stroke-opacity="0.04" stroke-width="0.594787"/>
<path d="M659.429 141.559V93.9761H707.012V141.559H659.429Z" stroke="white" stroke-opacity="0.04" stroke-width="0.594787"/>
<path d="M706.417 141.559V93.9761H754V141.559H706.417Z" stroke="white" stroke-opacity="0.04" stroke-width="0.594787"/>
<path d="M377.5 188.548V140.965H425.083V188.548H377.5Z" stroke="white" stroke-opacity="0.04" stroke-width="0.594787"/>
<path d="M424.488 188.548V140.965H472.071V188.548H424.488Z" stroke="white" stroke-opacity="0.04" stroke-width="0.594787"/>
<path d="M471.476 188.548V140.965H519.059V188.548H471.476Z" stroke="white" stroke-opacity="0.04" stroke-width="0.594787"/>
<path d="M518.464 188.548V140.965H566.047V188.548H518.464Z" stroke="white" stroke-opacity="0.04" stroke-width="0.594787"/>
<path d="M565.453 188.548V140.965H613.036V188.548H565.453Z" stroke="white" stroke-opacity="0.04" stroke-width="0.594787"/>
<path d="M612.441 188.548V140.965H660.024V188.548H612.441Z" stroke="white" stroke-opacity="0.04" stroke-width="0.594787"/>
<path d="M659.429 188.548V140.965H707.012V188.548H659.429Z" fill="#818181" fill-opacity="0.05" stroke="white" stroke-opacity="0.04" stroke-width="0.594787"/>
<path d="M706.417 188.548V140.965H754V188.548H706.417Z" stroke="white" stroke-opacity="0.04" stroke-width="0.594787"/>
<path d="M377.5 235.536V187.953H425.083V235.536H377.5Z" stroke="white" stroke-opacity="0.04" stroke-width="0.594787"/>
<path d="M424.488 235.536V187.953H472.071V235.536H424.488Z" stroke="white" stroke-opacity="0.04" stroke-width="0.594787"/>
<path d="M471.476 235.536V187.953H519.059V235.536H471.476Z" stroke="white" stroke-opacity="0.04" stroke-width="0.594787"/>
<path d="M518.464 235.536V187.953H566.047V235.536H518.464Z" stroke="white" stroke-opacity="0.04" stroke-width="0.594787"/>
<path d="M565.453 235.536V187.953H613.036V235.536H565.453Z" fill="#818181" fill-opacity="0.05" stroke="white" stroke-opacity="0.04" stroke-width="0.594787"/>
<path d="M612.441 235.536V187.953H660.024V235.536H612.441Z" stroke="white" stroke-opacity="0.04" stroke-width="0.594787"/>
<path d="M659.429 235.536V187.953H707.012V235.536H659.429Z" stroke="white" stroke-opacity="0.04" stroke-width="0.594787"/>
<path d="M706.417 235.536V187.953H754V235.536H706.417Z" stroke="white" stroke-opacity="0.04" stroke-width="0.594787"/>
<path d="M377.5 282.523V234.94H425.083V282.523H377.5Z" fill="#818181" fill-opacity="0.05" stroke="white" stroke-opacity="0.04" stroke-width="0.594787"/>
<path d="M424.488 282.523V234.94H472.071V282.523H424.488Z" stroke="white" stroke-opacity="0.04" stroke-width="0.594787"/>
<path d="M471.476 282.523V234.94H519.059V282.523H471.476Z" stroke="white" stroke-opacity="0.04" stroke-width="0.594787"/>
<path d="M518.464 282.523V234.94H566.047V282.523H518.464Z" stroke="white" stroke-opacity="0.04" stroke-width="0.594787"/>
<path d="M565.453 282.523V234.94H613.036V282.523H565.453Z" stroke="white" stroke-opacity="0.04" stroke-width="0.594787"/>
<path d="M612.441 282.523V234.94H660.024V282.523H612.441Z" stroke="white" stroke-opacity="0.04" stroke-width="0.594787"/>
<path d="M659.429 282.523V234.94H707.012V282.523H659.429Z" stroke="white" stroke-opacity="0.04" stroke-width="0.594787"/>
<path d="M706.417 282.523V234.94H754V282.523H706.417Z" stroke="white" stroke-opacity="0.04" stroke-width="0.594787"/>
<path d="M377.5 329.512V281.929H425.083V329.512H377.5Z" stroke="white" stroke-opacity="0.04" stroke-width="0.594787"/>
<path d="M424.488 329.512V281.929H472.071V329.512H424.488Z" stroke="white" stroke-opacity="0.04" stroke-width="0.594787"/>
<path d="M471.476 329.512V281.929H519.059V329.512H471.476Z" stroke="white" stroke-opacity="0.04" stroke-width="0.594787"/>
<path d="M518.464 329.512V281.929H566.047V329.512H518.464Z" stroke="white" stroke-opacity="0.04" stroke-width="0.594787"/>
<path d="M565.453 329.512V281.929H613.036V329.512H565.453Z" stroke="white" stroke-opacity="0.04" stroke-width="0.594787"/>
<path d="M612.441 329.512V281.929H660.024V329.512H612.441Z" stroke="white" stroke-opacity="0.04" stroke-width="0.594787"/>
<path d="M659.429 329.512V281.929H707.012V329.512H659.429Z" stroke="white" stroke-opacity="0.04" stroke-width="0.594787"/>
<path d="M706.417 329.512V281.929H754V329.512H706.417Z" stroke="white" stroke-opacity="0.04" stroke-width="0.594787"/>
<path d="M754 47.5829V0H801.583V47.5829H754Z" stroke="white" stroke-opacity="0.04" stroke-width="0.594787"/>
<path d="M800.988 47.5829V0H848.571V47.5829H800.988Z" stroke="white" stroke-opacity="0.04" stroke-width="0.594787"/>
<path d="M847.976 47.5829V0H895.559V47.5829H847.976Z" stroke="white" stroke-opacity="0.04" stroke-width="0.594787"/>
<path d="M894.964 47.5829V0H942.547V47.5829H894.964Z" stroke="white" stroke-opacity="0.04" stroke-width="0.594787"/>
<path d="M941.953 47.5829V0H989.536V47.5829H941.953Z" stroke="white" stroke-opacity="0.04" stroke-width="0.594787"/>
<path d="M988.941 47.5829V0H1036.52V47.5829H988.941Z" stroke="white" stroke-opacity="0.04" stroke-width="0.594787"/>
<path d="M1035.93 47.5829V0H1083.51V47.5829H1035.93Z" stroke="white" stroke-opacity="0.04" stroke-width="0.594787"/>
<path d="M1082.92 47.5829V0H1130.5V47.5829H1082.92Z" stroke="white" stroke-opacity="0.04" stroke-width="0.594787"/>
<path d="M754 94.5712V46.9883H801.583V94.5712H754Z" stroke="white" stroke-opacity="0.04" stroke-width="0.594787"/>
<path d="M800.988 94.5712V46.9883H848.571V94.5712H800.988Z" fill="#818181" fill-opacity="0.05" stroke="white" stroke-opacity="0.04" stroke-width="0.594787"/>
<path d="M847.976 94.5712V46.9883H895.559V94.5712H847.976Z" stroke="white" stroke-opacity="0.04" stroke-width="0.594787"/>
<path d="M894.964 94.5712V46.9883H942.547V94.5712H894.964Z" stroke="white" stroke-opacity="0.04" stroke-width="0.594787"/>
<path d="M941.953 94.5712V46.9883H989.536V94.5712H941.953Z" stroke="white" stroke-opacity="0.04" stroke-width="0.594787"/>
<path d="M988.941 94.5712V46.9883H1036.52V94.5712H988.941Z" stroke="white" stroke-opacity="0.04" stroke-width="0.594787"/>
<path d="M1035.93 94.5712V46.9883H1083.51V94.5712H1035.93Z" stroke="white" stroke-opacity="0.04" stroke-width="0.594787"/>
<path d="M1082.92 94.5712V46.9883H1130.5V94.5712H1082.92Z" stroke="white" stroke-opacity="0.04" stroke-width="0.594787"/>
<path d="M754 141.559V93.9761H801.583V141.559H754Z" stroke="white" stroke-opacity="0.04" stroke-width="0.594787"/>
<path d="M800.988 141.559V93.9761H848.571V141.559H800.988Z" stroke="white" stroke-opacity="0.04" stroke-width="0.594787"/>
<path d="M847.976 141.559V93.9761H895.559V141.559H847.976Z" stroke="white" stroke-opacity="0.04" stroke-width="0.594787"/>
<path d="M894.964 141.559V93.9761H942.547V141.559H894.964Z" fill="#818181" fill-opacity="0.05" stroke="white" stroke-opacity="0.04" stroke-width="0.594787"/>
<path d="M941.953 141.559V93.9761H989.536V141.559H941.953Z" stroke="white" stroke-opacity="0.04" stroke-width="0.594787"/>
<path d="M988.941 141.559V93.9761H1036.52V141.559H988.941Z" stroke="white" stroke-opacity="0.04" stroke-width="0.594787"/>
<path d="M1035.93 141.559V93.9761H1083.51V141.559H1035.93Z" stroke="white" stroke-opacity="0.04" stroke-width="0.594787"/>
<path d="M1082.92 141.559V93.9761H1130.5V141.559H1082.92Z" stroke="white" stroke-opacity="0.04" stroke-width="0.594787"/>
<path d="M754 188.548V140.965H801.583V188.548H754Z" stroke="white" stroke-opacity="0.04" stroke-width="0.594787"/>
<path d="M800.988 188.548V140.965H848.571V188.548H800.988Z" stroke="white" stroke-opacity="0.04" stroke-width="0.594787"/>
<path d="M847.976 188.548V140.965H895.559V188.548H847.976Z" stroke="white" stroke-opacity="0.04" stroke-width="0.594787"/>
<path d="M894.964 188.548V140.965H942.547V188.548H894.964Z" stroke="white" stroke-opacity="0.04" stroke-width="0.594787"/>
<path d="M941.953 188.548V140.965H989.536V188.548H941.953Z" stroke="white" stroke-opacity="0.04" stroke-width="0.594787"/>
<path d="M988.941 188.548V140.965H1036.52V188.548H988.941Z" stroke="white" stroke-opacity="0.04" stroke-width="0.594787"/>
<path d="M1035.93 188.548V140.965H1083.51V188.548H1035.93Z" fill="#818181" fill-opacity="0.05" stroke="white" stroke-opacity="0.04" stroke-width="0.594787"/>
<path d="M1082.92 188.548V140.965H1130.5V188.548H1082.92Z" stroke="white" stroke-opacity="0.04" stroke-width="0.594787"/>
<path d="M754 235.536V187.953H801.583V235.536H754Z" stroke="white" stroke-opacity="0.04" stroke-width="0.594787"/>
<path d="M800.988 235.536V187.953H848.571V235.536H800.988Z" stroke="white" stroke-opacity="0.04" stroke-width="0.594787"/>
<path d="M847.976 235.536V187.953H895.559V235.536H847.976Z" stroke="white" stroke-opacity="0.04" stroke-width="0.594787"/>
<path d="M894.964 235.536V187.953H942.547V235.536H894.964Z" stroke="white" stroke-opacity="0.04" stroke-width="0.594787"/>
<path d="M941.953 235.536V187.953H989.536V235.536H941.953Z" fill="#818181" fill-opacity="0.05" stroke="white" stroke-opacity="0.04" stroke-width="0.594787"/>
<path d="M988.941 235.536V187.953H1036.52V235.536H988.941Z" stroke="white" stroke-opacity="0.04" stroke-width="0.594787"/>
<path d="M1035.93 235.536V187.953H1083.51V235.536H1035.93Z" stroke="white" stroke-opacity="0.04" stroke-width="0.594787"/>
<path d="M1082.92 235.536V187.953H1130.5V235.536H1082.92Z" stroke="white" stroke-opacity="0.04" stroke-width="0.594787"/>
<path d="M754 282.523V234.94H801.583V282.523H754Z" fill="#818181" fill-opacity="0.05" stroke="white" stroke-opacity="0.04" stroke-width="0.594787"/>
<path d="M800.988 282.523V234.94H848.571V282.523H800.988Z" stroke="white" stroke-opacity="0.04" stroke-width="0.594787"/>
<path d="M847.976 282.523V234.94H895.559V282.523H847.976Z" stroke="white" stroke-opacity="0.04" stroke-width="0.594787"/>
<path d="M894.964 282.523V234.94H942.547V282.523H894.964Z" stroke="white" stroke-opacity="0.04" stroke-width="0.594787"/>
<path d="M941.953 282.523V234.94H989.536V282.523H941.953Z" stroke="white" stroke-opacity="0.04" stroke-width="0.594787"/>
<path d="M988.941 282.523V234.94H1036.52V282.523H988.941Z" stroke="white" stroke-opacity="0.04" stroke-width="0.594787"/>
<path d="M1035.93 282.523V234.94H1083.51V282.523H1035.93Z" stroke="white" stroke-opacity="0.04" stroke-width="0.594787"/>
<path d="M1082.92 282.523V234.94H1130.5V282.523H1082.92Z" stroke="white" stroke-opacity="0.04" stroke-width="0.594787"/>
<path d="M754 329.512V281.929H801.583V329.512H754Z" stroke="white" stroke-opacity="0.04" stroke-width="0.594787"/>
<path d="M800.988 329.512V281.929H848.571V329.512H800.988Z" stroke="white" stroke-opacity="0.04" stroke-width="0.594787"/>
<path d="M847.976 329.512V281.929H895.559V329.512H847.976Z" stroke="white" stroke-opacity="0.04" stroke-width="0.594787"/>
<path d="M894.964 329.512V281.929H942.547V329.512H894.964Z" stroke="white" stroke-opacity="0.04" stroke-width="0.594787"/>
<path d="M941.953 329.512V281.929H989.536V329.512H941.953Z" stroke="white" stroke-opacity="0.04" stroke-width="0.594787"/>
<path d="M988.941 329.512V281.929H1036.52V329.512H988.941Z" stroke="white" stroke-opacity="0.04" stroke-width="0.594787"/>
<path d="M1035.93 329.512V281.929H1083.51V329.512H1035.93Z" stroke="white" stroke-opacity="0.04" stroke-width="0.594787"/>
<path d="M1082.92 329.512V281.929H1130.5V329.512H1082.92Z" stroke="white" stroke-opacity="0.04" stroke-width="0.594787"/>
<path d="M1130.5 47.5829V0H1178.08V47.5829H1130.5Z" stroke="white" stroke-opacity="0.04" stroke-width="0.594787"/>
<path d="M1177.49 47.5829V0H1225.07V47.5829H1177.49Z" stroke="white" stroke-opacity="0.04" stroke-width="0.594787"/>
<path d="M1130.5 94.5712V46.9883H1178.08V94.5712H1130.5Z" stroke="white" stroke-opacity="0.04" stroke-width="0.594787"/>
<path d="M1177.49 94.5712V46.9883H1225.07V94.5712H1177.49Z" fill="#818181" fill-opacity="0.05" stroke="white" stroke-opacity="0.04" stroke-width="0.594787"/>
<path d="M1130.5 141.559V93.9761H1178.08V141.559H1130.5Z" stroke="white" stroke-opacity="0.04" stroke-width="0.594787"/>
<path d="M1177.49 141.559V93.9761H1225.07V141.559H1177.49Z" stroke="white" stroke-opacity="0.04" stroke-width="0.594787"/>
<path d="M1130.5 188.548V140.965H1178.08V188.548H1130.5Z" stroke="white" stroke-opacity="0.04" stroke-width="0.594787"/>
<path d="M1177.49 188.548V140.965H1225.07V188.548H1177.49Z" stroke="white" stroke-opacity="0.04" stroke-width="0.594787"/>
<path d="M1130.5 235.536V187.953H1178.08V235.536H1130.5Z" stroke="white" stroke-opacity="0.04" stroke-width="0.594787"/>
<path d="M1177.49 235.536V187.953H1225.07V235.536H1177.49Z" stroke="white" stroke-opacity="0.04" stroke-width="0.594787"/>
<path d="M1130.5 282.523V234.94H1178.08V282.523H1130.5Z" fill="#818181" fill-opacity="0.05" stroke="white" stroke-opacity="0.04" stroke-width="0.594787"/>
<path d="M1177.49 282.523V234.94H1225.07V282.523H1177.49Z" stroke="white" stroke-opacity="0.04" stroke-width="0.594787"/>
<path d="M1130.5 329.512V281.929H1178.08V329.512H1130.5Z" stroke="white" stroke-opacity="0.04" stroke-width="0.594787"/>
<path d="M1177.49 329.512V281.929H1225.07V329.512H1177.49Z" stroke="white" stroke-opacity="0.04" stroke-width="0.594787"/>
</g>
<defs>
<clipPath id="clip0_383_1430">
<rect width="1216" height="329.512" fill="white"/>
</clipPath>
</defs>
</svg>
