<svg width="180" height="124" viewBox="0 0 180 124" fill="none" xmlns="http://www.w3.org/2000/svg">
<path d="M61.8501 99.5667C55.8688 102.879 49.0516 105.644 42.3628 104.326C35.6741 103.008 29.7249 96.0938 31.7829 89.598C33.0692 85.5462 37.0568 82.3304 36.8639 78.0856C36.6709 73.9374 32.6834 71.2361 29.5963 68.4706C22.3609 61.9427 18.7592 51.6202 20.3671 42.0373C21.5891 34.5768 27.4739 26.7947 35.0309 27.5665C37.8929 27.8559 40.4655 29.3351 43.231 30.0426C57.3802 33.5799 69.8572 16.5687 84.3602 18.0801C88.1869 18.466 91.8529 20.1703 95.6796 19.9773C102.786 19.6236 107.996 13.1278 114.781 11.0055C119.798 9.39759 125.586 10.4588 129.734 13.7067C133.883 16.9546 136.262 22.3248 135.909 27.5986C135.555 33.0332 132.532 37.8568 130.667 42.9377C128.802 48.0507 128.384 54.4822 132.339 58.2124C134.365 60.1097 137.163 60.978 139.285 62.7788C143.305 66.2196 143.819 72.4903 141.922 77.4104C140.025 82.3626 136.23 86.2858 132.532 90.0482" fill="#DBE4FE"/>
<path d="M170.028 86.8328C168.839 80.7229 169.385 73.8733 165.526 69.0176C161.507 63.9689 153.049 63.3579 148.354 67.7635L147.518 67.6991L146.682 63.0363C146.264 60.5602 145.846 57.9876 145.428 55.2542V55.2221C145.621 55.2543 145.846 55.2864 146.039 55.3186C146.071 55.3186 146.103 55.3186 146.135 55.3186C146.328 55.3507 146.489 55.3507 146.682 55.3507C146.714 55.3507 146.746 55.3507 146.779 55.3507C146.971 55.3507 147.164 55.3507 147.39 55.3186C147.39 55.3186 147.39 55.3186 147.422 55.3186C147.647 55.2864 147.84 55.2543 148.065 55.2221H148.097C148.29 55.1899 148.451 55.1256 148.644 55.0613C148.708 55.0292 148.74 55.0292 148.805 54.997C148.933 54.9648 149.062 54.9005 149.19 54.8362C149.255 54.8041 149.319 54.7719 149.383 54.7397C149.512 54.6754 149.641 54.6111 149.769 54.5468C149.834 54.5146 149.866 54.4825 149.93 54.4503C150.091 54.3538 150.252 54.2252 150.412 54.0966C152.406 52.5209 153.114 49.5624 152.181 47.1828C152.085 46.9255 151.956 46.6682 151.827 46.411C151.731 46.2824 151.666 46.1216 151.57 45.9929C151.538 45.9608 151.506 45.8965 151.474 45.8643C151.409 45.7678 151.345 45.7035 151.248 45.607C151.216 45.5749 151.152 45.5106 151.12 45.4784C151.055 45.4141 150.991 45.3176 150.895 45.2533C150.863 45.2212 150.798 45.1568 150.766 45.1247C150.702 45.0604 150.605 44.9961 150.509 44.9317C150.477 44.8996 150.412 44.8674 150.38 44.8353C150.252 44.7388 150.123 44.6423 149.994 44.578C149.93 44.5459 149.898 44.5137 149.833 44.4815C149.737 44.4172 149.673 44.3851 149.576 44.3208C149.512 44.2886 149.448 44.2564 149.351 44.2243C149.287 44.1921 149.223 44.16 149.126 44.1278C149.03 44.0957 148.965 44.0635 148.869 44.0313C148.804 43.9992 148.74 43.967 148.676 43.967C148.579 43.9349 148.483 43.9027 148.419 43.8705C148.354 43.8705 148.322 43.8384 148.258 43.8384C147.904 43.7419 147.55 43.6776 147.165 43.6455C147.132 43.6455 147.1 43.6455 147.068 43.6455C146.939 43.6455 146.843 43.6454 146.714 43.6133C146.682 43.6133 146.618 43.6133 146.586 43.6133C146.457 43.6133 146.361 43.6133 146.232 43.6133C146.2 43.6133 146.168 43.6133 146.135 43.6133C146.007 43.6133 145.878 43.6455 145.782 43.6455L146.2 29.3997L137.131 26.1519C134.205 26.184 131.343 27.5668 128.996 29.3033C121.921 34.6092 115.007 40.076 108.769 44.7388C108.769 44.7388 108.769 44.7388 108.801 44.771C108.672 44.8674 108.544 44.9639 108.383 45.0604C108.383 45.0604 116.004 49.3051 119.734 51.331C119.734 51.331 117.226 58.3092 114.943 64.7407C111.791 61.8787 107.482 60.11 103.109 60.2708C98.7355 60.4316 94.3943 62.6183 92.1754 66.1877C90.7927 68.4066 90.2139 70.9792 89.1205 73.3267C88.0272 75.6742 86.1298 77.9895 83.4608 78.4397L82.4961 77.7965C82.3674 77.6679 82.2388 77.5393 82.1423 77.4107C82.1101 77.3785 82.078 77.3463 82.0459 77.282C81.9494 77.1856 81.885 77.0891 81.7885 76.9926C81.7564 76.9283 81.6921 76.8961 81.6599 76.8318C81.5956 76.7353 81.4992 76.671 81.4349 76.5746C81.4028 76.5102 81.3383 76.4459 81.3062 76.4138C81.2419 76.3173 81.1777 76.253 81.1134 76.1565C81.0812 76.0922 81.0168 76.0279 80.9846 75.9636C80.9203 75.8671 80.8561 75.7706 80.7918 75.6742C80.7596 75.6098 80.7274 75.5455 80.6952 75.4812C80.6309 75.3848 80.5666 75.2561 80.5344 75.1596C80.5023 75.0953 80.4702 75.0632 80.438 74.9989C80.3415 74.8381 80.2772 74.6773 80.2129 74.5165C79.8913 73.7769 79.7306 73.0051 79.6663 72.2012C79.6341 72.0082 79.6341 71.8153 79.6341 71.5902C79.6341 71.3972 79.6341 71.2043 79.6019 70.9792C79.6019 69.1784 79.8913 67.3132 79.9235 65.4803C79.9235 65.2873 79.9235 65.0622 79.9235 64.8693C79.8592 62.1359 78.8944 59.4669 77.3187 57.2158C74.9391 53.8072 71.1446 51.3311 66.9641 50.913C66.739 50.8808 66.4817 50.8809 66.2244 50.8809C65.6456 50.8809 65.0668 50.9452 64.5201 51.0738C63.3946 51.3632 62.3978 51.942 61.9797 53.0032C61.8833 53.2283 61.8511 53.4534 61.819 53.6785C61.015 53.0675 60.0502 52.5852 59.1176 52.1993C55.323 50.5593 51.5929 48.6941 47.7983 46.9898C45.9332 46.1537 44.0358 45.2855 42.0742 44.6423C41.2381 44.3529 40.4342 44.2243 39.6624 44.2243C34.0992 41.8768 29.4686 36.9246 27.5392 36.2814C25.6098 35.6383 24.3235 36.9246 25.6098 40.4619C26.6066 43.2274 29.9832 44.6102 31.3981 45.0925C30.7549 45.2533 30.1118 45.4463 29.5008 45.7035C26.4137 46.8933 23.6802 48.8549 21.0112 50.7844C20.2715 51.331 19.4998 51.8777 18.9531 52.6173C18.4064 53.357 18.1171 54.3539 18.4065 55.2221C18.6316 55.8652 19.2425 56.4119 19.8857 56.5084C19.6284 56.9586 19.4356 57.441 19.3713 57.9555C19.2748 58.7916 19.6606 59.7563 20.4646 60.0457C21.0756 60.2708 21.7508 60.0779 22.3296 59.8206C24.645 58.8559 26.2529 57.4409 27.5392 55.3507C27.7965 54.9327 28.118 54.579 28.4395 54.2574C27.1854 56.219 26.3172 58.3414 25.9635 60.4637C25.8349 61.2355 25.8027 62.2002 26.4137 62.7148C27.089 63.2936 28.1823 63.0042 28.9541 62.5218C32.1377 60.5602 31.9447 56.7656 34.7746 54.5468C35.4177 54.0644 36.1895 53.6142 36.9934 53.7428C38.1511 53.9358 40.6594 55.0613 40.7559 56.2511C40.8845 57.859 39.759 59.5312 38.4727 60.3673C36.4468 61.6857 34.2601 60.4637 32.202 61.6536C31.2051 62.2324 30.4334 63.4544 30.7871 64.5477C31.2052 65.9305 32.8451 66.4128 34.26 66.6058C38.4083 67.1525 42.6852 66.8952 46.7692 65.8662C49.3418 65.223 51.4 64.7728 53.9404 65.7054C54.1977 65.8019 54.4226 65.8983 54.6156 65.9948C54.5834 66.027 54.5513 66.027 54.5192 66.0591C54.4227 66.1234 54.3263 66.1877 54.2298 66.2842C54.1655 66.3164 54.1012 66.3807 54.069 66.4128C53.9725 66.4772 53.8761 66.5736 53.7796 66.6701C53.7153 66.7344 53.6831 66.7666 53.6188 66.8309C53.5224 66.9274 53.458 67.0238 53.3615 67.1203C53.3293 67.1846 53.265 67.2489 53.2329 67.2811C53.1686 67.3776 53.072 67.474 53.0077 67.5705C52.9756 67.6348 52.9113 67.6991 52.8791 67.7635C52.8148 67.8599 52.7505 67.9886 52.6861 68.085C52.654 68.1493 52.6219 68.2137 52.5897 68.278C52.5254 68.3744 52.4611 68.5031 52.4289 68.5995C52.3968 68.6639 52.3647 68.7282 52.3325 68.8246C52.2682 68.9533 52.2359 69.0497 52.2038 69.1784C52.1716 69.2427 52.1396 69.3392 52.1396 69.4035C52.1074 69.5321 52.0753 69.6286 52.011 69.7572C51.9788 69.8215 51.9787 69.918 51.9466 69.9823C51.9144 70.1109 51.8823 70.2074 51.8502 70.336C51.818 70.4325 51.818 70.4968 51.7858 70.5933C51.7536 70.7219 51.7536 70.8184 51.7214 70.947C51.7214 71.0435 51.6894 71.14 51.6894 71.2365C51.6894 71.3651 51.6572 71.4615 51.6572 71.5902C51.6572 71.6866 51.6572 71.7831 51.625 71.8796C51.625 71.9761 51.5928 72.1047 51.5928 72.2012C51.5928 72.2976 51.5928 72.4263 51.5928 72.5227C51.5928 72.6192 51.5928 72.7478 51.5928 72.8443C51.5928 72.9729 51.5928 73.0694 51.5928 73.198C51.5928 73.2945 51.5928 73.391 51.5928 73.4875C51.5928 73.6161 51.625 73.7447 51.625 73.8734C51.625 73.9698 51.625 74.0341 51.6572 74.1306C51.6894 74.2914 51.6893 74.4843 51.7214 74.6451C51.7214 74.6773 51.7214 74.7094 51.7214 74.7416C51.8179 75.3847 51.9466 75.9957 52.1074 76.6067C52.1717 76.7997 52.2038 77.0248 52.2682 77.2177C52.7184 78.8577 53.2651 80.4978 53.6188 82.1378C53.651 82.3307 53.7153 82.5558 53.7474 82.7488C53.8761 83.3598 53.9403 84.0029 54.0046 84.6461C54.4227 90.6595 50.8855 96.1262 49.1168 101.915C49.0525 102.14 48.9881 102.365 48.9238 102.622C48.5379 104.005 48.2806 105.42 48.2163 106.867C48.1198 109.343 48.6666 111.787 49.76 114.006C50.2102 114.906 50.7246 115.742 51.3034 116.546C52.9756 118.829 55.2267 120.694 57.7993 121.852C58.0565 121.981 58.3138 122.077 58.6032 122.174C58.764 122.238 58.9247 122.302 59.1176 122.367C59.4392 122.463 59.7608 122.592 60.1145 122.656C60.6612 122.785 61.2079 122.913 61.7546 122.978C62.0118 123.01 62.2369 123.042 62.4941 123.074L65.6456 119.794C70.019 115.742 78.4121 109.761 87.4804 112.623C100.665 116.803 131.214 113.266 145.364 102.654C159.513 92.0423 179.418 103.201 179.418 103.201C174.627 98.9882 171.283 93.1356 170.028 86.8328Z" fill="white"/>
<path d="M142.469 49.1763C142.34 48.9191 142.437 48.6618 142.63 48.5011C144.398 47.1826 146.746 46.7646 148.9 47.3434C149.511 47.5042 149.254 48.4367 148.643 48.2759C146.746 47.7614 144.72 48.1795 143.144 49.3371C142.919 49.5301 142.598 49.4015 142.469 49.1763ZM139.028 35.0271C139.028 35.0593 139.06 35.0593 139.06 35.0914C139.092 35.1236 139.093 35.1879 139.125 35.2201C139.157 35.3165 139.189 35.413 139.221 35.5416C139.285 35.7989 139.575 35.9597 139.8 35.8632C140.057 35.7989 140.218 35.5417 140.122 35.2844C139.864 34.4161 139.382 33.58 138.771 32.9369C138.61 32.7439 138.256 32.7439 138.096 32.9369C137.903 33.1298 137.903 33.4193 138.096 33.6122C138.16 33.6765 138.224 33.773 138.289 33.8373C138.321 33.8695 138.353 33.9016 138.385 33.9338L138.417 33.9659C138.417 33.9659 138.417 33.9659 138.417 33.9981C138.546 34.1589 138.642 34.3197 138.739 34.5126C138.835 34.6734 138.932 34.8342 139.028 35.0271ZM134.462 31.329H134.558C134.655 31.329 134.719 31.3612 134.816 31.3612C134.912 31.3612 135.009 31.3933 135.105 31.3933C135.137 31.3933 135.137 31.3933 135.169 31.3933C135.201 31.4577 135.266 31.4898 135.33 31.522C135.555 31.6506 135.877 31.5863 136.005 31.3612C136.102 31.1682 136.102 30.9753 136.005 30.7824C135.909 30.6216 135.748 30.5251 135.555 30.4929C135.298 30.4286 135.041 30.3965 134.783 30.3643C134.237 30.3 133.722 30.2357 133.176 30.2357C132.918 30.2357 132.693 30.4608 132.693 30.718C132.693 30.9753 132.918 31.2004 133.176 31.2004C133.561 31.2004 133.979 31.2326 134.365 31.2647C134.365 31.329 134.398 31.329 134.462 31.329ZM127.902 35.8311C127.966 35.8311 127.998 35.8311 128.063 35.8311C128.159 35.8311 128.256 35.8311 128.352 35.8311C128.352 35.8311 128.416 35.8311 128.448 35.8311C128.481 35.8311 128.513 35.8311 128.577 35.8632C128.673 35.8954 128.77 35.8954 128.867 35.9275C129.059 35.9919 129.124 36.024 129.317 36.1205C129.413 36.1526 129.477 36.2169 129.574 36.2813C129.606 36.2813 129.606 36.3134 129.606 36.3134C129.606 36.3134 129.606 36.3134 129.638 36.3456C129.67 36.3777 129.703 36.4099 129.735 36.442C130.024 36.6993 130.185 36.9566 130.281 37.3103C130.442 37.9213 131.375 37.664 131.214 37.053C130.635 35.0271 127.902 34.2232 126.294 35.5738C126.101 35.7346 126.133 36.0883 126.294 36.2491C126.487 36.4421 126.776 36.4099 126.969 36.2491C127.001 36.217 127.001 36.2169 127.001 36.2169C127.001 36.2169 127.001 36.2169 127.033 36.2169C127.066 36.1848 127.098 36.1526 127.162 36.1526C127.194 36.1205 127.259 36.1205 127.291 36.0883C127.323 36.0883 127.419 36.024 127.419 36.024C127.516 35.9918 127.805 35.8954 127.87 35.8954C127.741 35.8632 127.87 35.8311 127.902 35.8311ZM134.558 39.0468C135.073 38.5323 135.877 38.3393 136.552 38.5644C137.195 38.7574 137.71 39.3362 137.903 39.9794C138.063 40.5903 138.996 40.3331 138.835 39.7221C138.578 38.7252 137.806 37.9213 136.809 37.6319C135.78 37.3103 134.623 37.6319 133.883 38.3715C133.433 38.7895 134.108 39.497 134.558 39.0468ZM125.651 57.6016C125.008 58.2769 124.139 58.6628 123.207 58.5663C122.95 58.5341 122.724 58.7914 122.724 59.0487C122.724 59.3381 122.95 59.4989 123.207 59.531C124.397 59.6596 125.586 59.113 126.39 58.2447C127.226 57.3443 127.644 56.1545 127.451 54.9004C127.419 54.6431 127.098 54.5145 126.873 54.5788C126.583 54.6431 126.487 54.9004 126.551 55.1576C126.615 55.5757 126.551 56.0259 126.39 56.4761C126.23 56.8941 125.94 57.3122 125.651 57.6016ZM124.172 88.1189C123.046 88.0546 121.953 88.344 120.827 88.344C119.766 88.344 118.737 88.1832 117.708 87.8616C116.775 87.5722 115.714 87.0899 115.264 86.1573C114.878 85.3855 115.007 84.3243 115.907 84.0349C116.711 83.7777 117.611 84.1635 118.158 84.7745C118.866 85.5785 119.123 86.6397 119.412 87.6365C119.573 88.2475 120.506 87.9903 120.345 87.3793C119.862 85.6428 119.187 83.6169 117.226 83.1023C116.454 82.9094 115.553 82.9737 114.91 83.4882C114.203 84.0671 113.978 84.9996 114.138 85.8679C114.556 87.926 116.936 88.7942 118.737 89.1158C119.83 89.3087 120.924 89.3409 122.017 89.2122C123.046 89.0836 124.268 88.8264 125.233 89.3409C126.004 89.7589 126.487 90.5629 125.94 91.399C125.361 92.2994 124.204 92.4601 123.207 92.5245C121.728 92.6531 119.605 92.6852 119.059 90.9809C118.769 90.1448 118.512 89.3409 117.611 89.0193C116.872 88.762 116.003 88.9228 115.392 89.3409C114.621 89.8554 114.267 90.7879 114.203 91.6884C114.138 92.7495 114.589 93.6178 114.846 94.6147C115.135 95.708 114.46 96.3833 113.592 96.8979C112.724 97.4124 111.823 97.8304 111.051 98.4736C109.443 99.8563 108.607 102.332 110.119 104.101C110.537 104.583 111.212 103.876 110.794 103.426C109.508 101.914 110.73 99.8885 112.048 98.9238C113.302 98.0234 115.2 97.541 115.778 95.9653C116.132 95.0006 115.682 94.1002 115.392 93.1676C115.135 92.3637 115.071 91.4311 115.489 90.6593C115.843 90.0483 116.647 89.6624 117.322 89.9197C118.094 90.2091 118.094 91.2703 118.415 91.9135C119.187 93.2962 120.988 93.5856 122.435 93.5535C124.139 93.5213 126.358 93.2319 127.033 91.3668C127.741 89.5017 125.812 88.2154 124.172 88.1189ZM116.968 91.8491C118.898 95.097 118.866 99.3097 116.872 102.525C116.55 103.04 117.386 103.522 117.708 103.008C119.895 99.5348 119.927 94.9041 117.804 91.3668C117.483 90.8201 116.647 91.3025 116.968 91.8491ZM179.064 103.587C175.72 100.596 173.051 96.8335 171.314 92.6852C170.542 90.8523 169.963 88.9228 169.578 86.9934C169.192 85.0639 168.999 83.1023 168.774 81.1729C168.356 77.3783 167.873 73.3587 165.687 70.0786C162.021 64.644 153.499 63.6472 148.675 68.117C148.354 68.4064 147.968 68.1813 147.871 67.8919C148.386 70.561 148.9 73.2301 149.479 75.8991C149.608 76.5101 148.675 76.7674 148.547 76.1564C148.225 74.6771 147.936 73.23 147.646 71.7508C146.585 66.3805 145.653 61.0103 144.849 55.5757C143.884 55.2863 142.983 54.8039 142.244 54.0964C142.051 53.9035 142.051 53.6141 142.244 53.4211C142.437 53.2282 142.726 53.2282 142.919 53.4211C144.784 55.2219 148.032 55.3827 150.058 53.7749C152.084 52.167 152.663 48.9513 151.344 46.7324C150.026 44.5135 146.907 43.4845 144.559 44.5135C144.302 44.61 144.045 44.5135 143.916 44.2563C143.82 43.999 143.916 43.7418 144.173 43.6131C144.398 43.5167 144.624 43.4523 144.849 43.388L143.691 43.1308C140.411 39.7221 142.019 36.024 141.729 32.9369C141.311 28.3062 138.964 27.9525 136.231 27.02C134.076 27.1807 132.05 28.0168 130.249 29.1423C128.32 30.3643 126.519 31.8435 124.718 33.2263C122.885 34.6412 121.02 36.0562 119.187 37.4711C115.907 40.0115 112.595 42.5519 109.283 45.0281C109.411 45.0924 109.508 45.1567 109.636 45.221C113.077 47.1504 116.55 49.0477 120.023 50.945C120.184 51.0415 120.313 51.2987 120.248 51.4917C119.991 52.1991 119.734 52.8744 119.509 53.5819C118.319 56.9263 117.097 60.2706 115.907 63.5829C115.778 63.9687 115.65 64.3225 115.489 64.7084C115.489 64.837 115.457 64.9656 115.36 65.0621C114.364 67.8598 113.334 70.6896 112.338 73.4873C112.338 73.5195 112.305 73.5195 112.305 73.5516C112.466 73.5516 112.627 73.6159 112.723 73.7767C114.106 76.4458 116.132 78.7933 118.544 80.5941C122.885 83.842 128.416 85.3212 133.787 84.4208C139.189 83.4882 144.173 80.4011 147.26 75.8669C147.614 75.3524 148.45 75.8348 148.097 76.3493C146.296 79.0184 143.852 81.2372 141.022 82.8451C136.038 85.6749 130.024 86.4467 124.525 84.7424C119.155 83.0702 114.492 79.2756 111.887 74.2912C111.791 74.1305 111.823 73.9697 111.887 73.841C111.598 73.841 111.276 73.6159 111.405 73.2622C111.984 71.59 112.595 69.9179 113.174 68.2457C113.56 67.1202 113.978 65.9946 114.364 64.9013C112.08 62.9075 109.283 61.5248 106.292 60.9781C101.243 60.0777 95.455 61.9107 92.593 66.3805C91.0173 68.8245 90.535 71.7508 89.1522 74.2912C88.0589 76.285 86.3545 78.118 84.1356 78.7611C84.6823 79.3078 85.229 79.8866 85.7435 80.4976C86.5474 81.4623 87.1584 82.5235 87.6086 83.7133C89.4737 88.5691 87.9301 94.1002 86.4509 98.8594C86.2579 99.4383 85.3254 99.2132 85.5183 98.6022C85.8721 97.4124 86.2259 96.2225 86.5474 95.0006C87.1584 92.5566 87.6086 90.0483 87.4478 87.5401C87.287 85.0961 86.4509 82.7808 84.843 80.9156C83.3316 79.147 81.4022 77.6999 80.2124 75.6419C78.8296 73.2301 79.0547 70.4645 79.2799 67.7955C79.3763 66.5092 79.4729 65.1907 79.3442 63.9044C79.2156 62.8111 78.9582 61.7177 78.5723 60.6887C77.8005 58.6628 76.5465 56.7976 74.9708 55.2862C73.3951 53.7748 71.4977 52.6172 69.4075 51.974C67.5424 51.3952 65.0663 50.9772 63.3298 52.1348C62.7509 52.5207 62.4615 53.0031 62.3329 53.5819C62.2364 53.9678 62.2365 54.418 62.2365 54.8361C62.2365 54.9325 62.2365 55.0612 62.2687 55.1576C62.3651 56.3796 62.4294 57.5051 62.2043 58.7271C61.7541 60.9138 60.5321 62.9397 58.8599 64.3868C58.0238 65.1264 57.0592 65.7052 55.998 66.0911C55.9015 66.1233 55.7729 66.1554 55.6764 66.2197C55.387 66.3162 55.0975 66.4449 54.8403 66.5735C54.776 66.6056 54.7116 66.6699 54.6473 66.7021C54.6151 66.7343 54.583 66.7664 54.5187 66.7986C54.1328 67.088 53.779 67.4739 53.4896 67.8598C52.2676 69.5641 51.9461 71.8151 52.1069 73.8732C52.2998 76.5744 53.3932 79.147 54.0363 81.7517C54.6473 84.2922 54.7116 86.8326 54.1649 89.4052C53.1359 94.261 50.5311 98.6022 49.3091 103.394C48.7303 105.645 48.5374 107.992 49.0198 110.307C49.47 112.43 50.3704 114.456 51.6245 116.224C54.1328 119.762 58.1524 122.334 62.5258 122.72C63.1368 122.785 63.1368 123.749 62.5258 123.685C61.4003 123.588 60.3071 123.363 59.2459 123.042C54.9368 121.659 51.3029 118.347 49.3413 114.295C48.3766 112.269 47.7978 110.018 47.7657 107.767C47.7335 105.259 48.3766 102.783 49.2127 100.435C50.8849 95.708 53.554 91.0452 53.5862 85.9322C53.5862 83.038 52.5893 80.3047 51.8497 77.5713C51.2066 75.1917 50.8527 72.7798 51.3994 70.368C51.7209 68.9531 52.4607 67.3453 53.6184 66.3162C52.8144 66.0268 51.9782 65.866 51.11 65.866C49.3735 65.8339 47.7013 66.3805 45.997 66.7343C42.4597 67.506 38.7937 67.7311 35.1921 67.3774C33.8737 67.2488 32.3944 67.088 31.301 66.2519C30.2077 65.3837 29.9504 63.9687 30.6579 62.7467C31.4618 61.3318 33.0376 60.8173 34.5811 60.7852C35.3851 60.753 36.189 60.8173 36.9608 60.6565C37.7325 60.4957 38.4079 60.1099 38.9546 59.5632C39.4691 59.0487 39.9192 58.4377 40.1443 57.7302C40.3051 57.2157 40.498 56.5404 40.1443 56.058C39.8227 55.6078 39.2761 55.3184 38.7938 55.0612C38.2793 54.8039 37.7326 54.5788 37.1859 54.4502C35.8353 54.1286 34.5811 55.3827 33.8736 56.4118C33.134 57.4408 32.6838 58.6306 32.105 59.7561C31.5261 60.9138 30.7866 61.975 29.7575 62.7467C28.7285 63.5185 26.9921 64.2903 25.963 63.0683C25.0626 62.0071 25.5449 60.3028 25.8665 59.113C25.9629 58.7592 26.0594 58.4055 26.188 58.0839C25.1269 59.113 23.8727 59.9169 22.49 60.4636C21.686 60.7852 20.7535 61.0103 19.9496 60.4957C19.3064 60.1098 18.9849 59.3702 18.8884 58.6628C18.8241 58.0839 18.9527 57.5051 19.21 56.9584C18.8241 56.7655 18.5025 56.5082 18.2453 56.1545C17.6664 55.3184 17.7306 54.2251 18.1165 53.3247C18.5024 52.4242 19.2099 51.7489 19.9496 51.138C20.7535 50.527 21.5896 49.916 22.4257 49.3371C24.0979 48.1473 25.8344 46.9897 27.6995 46.1214C28.3748 45.7998 29.0823 45.4783 29.8219 45.2532H29.7897C28.3748 44.5135 27.1207 43.388 26.1238 42.1339C25.0626 40.8155 23.5191 38.5001 24.8375 36.8601C25.6736 35.8311 27.1528 35.6381 28.3427 36.1526C29.7254 36.7636 30.6579 38.0499 31.7834 39.0146C35.0956 41.8123 39.3404 43.1629 43.3922 44.7708C43.8424 44.9316 44.2927 45.1245 44.7107 45.2853C48.5374 46.8932 52.2998 48.7261 56.0622 50.4626C57.7344 51.2344 59.5031 51.8776 61.111 52.778C61.2717 52.8744 61.4325 52.9709 61.5933 53.0674C62.2686 51.3309 64.2302 50.5913 66.1275 50.5591C68.3464 50.527 70.6296 51.2666 72.559 52.3599C74.5528 53.4854 76.2892 55.0611 77.6398 56.8941C78.9582 58.7271 79.923 60.8495 80.2768 63.0683C80.727 65.7695 80.116 68.4708 80.1482 71.172C80.1803 72.5547 80.4054 73.9053 81.0807 75.1273C81.6595 76.1885 82.4635 77.0889 83.3317 77.925C83.3639 77.9572 83.4281 78.0215 83.4603 78.0537C86.4831 77.507 88.2518 74.7093 89.313 72.0402C90.3742 69.339 91.1781 66.5092 93.1719 64.3225C94.9405 62.4252 97.2879 61.0746 99.7962 60.3993C105.038 58.9522 110.73 60.5601 114.846 64.0009C115.65 61.7177 116.486 59.4667 117.29 57.1835C117.965 55.3506 118.608 53.4854 119.284 51.6525C118.415 51.1701 117.547 50.7199 116.711 50.2376C113.881 48.694 111.084 47.1183 108.286 45.5747C107.932 45.3818 107.996 44.9316 108.286 44.7386C110.28 43.2594 112.241 41.7802 114.203 40.2688C117.933 37.4068 121.631 34.5448 125.393 31.6828C127.162 30.3322 128.931 28.8529 130.892 27.7917C132.082 27.1486 133.336 26.6662 134.623 26.3446C133.787 25.9266 132.918 25.3799 132.114 24.576C130.056 22.5501 129.092 15.9257 133.24 12.5813C136.681 21.5532 142.951 17.2441 149.801 22.936C155.107 27.3415 151.923 38.5323 147.904 43.2916C149.737 43.6131 151.409 44.6743 152.373 46.2822C153.949 48.9512 153.274 52.6494 150.83 54.5788C149.704 55.4792 148.29 55.8972 146.875 55.8972C146.585 55.8972 146.296 55.8651 146.006 55.8329C146.231 57.28 146.457 58.7271 146.682 60.142C147.1 62.7146 147.55 65.255 148.032 67.7955C148.032 67.6668 148.064 67.5704 148.193 67.4739C150.991 64.9013 154.946 63.9687 158.644 64.5797C161.988 65.1264 164.979 66.9915 166.844 69.8535C169.031 73.2301 169.481 77.314 169.931 81.2051C170.156 83.1988 170.349 85.1926 170.767 87.1542C171.186 89.1801 171.829 91.1738 172.697 93.0711C174.401 96.8335 176.845 100.21 179.932 102.976C180.222 103.329 179.514 104.005 179.064 103.587ZM30.5615 44.4171C30.7866 44.5135 31.0117 44.5779 31.2368 44.6422C32.2337 44.8673 33.2948 44.7387 34.356 44.7708C35.6101 44.3206 36.9286 43.9669 38.2471 43.8061C35.8996 42.7449 33.6165 41.5551 31.5906 39.9794C31.0439 39.5613 30.5293 39.1111 30.0469 38.6609C29.5324 38.1786 29.0501 37.6319 28.4713 37.246C27.5708 36.635 26.1238 36.3777 25.4163 37.4389C24.9983 38.1142 25.3199 39.0146 25.6415 39.6578C26.0917 40.526 26.7026 41.33 27.3457 42.0696C28.2783 43.0021 29.3395 43.8382 30.5615 44.4171ZM19.5958 55.9616C20.046 55.2541 20.5927 54.611 21.0751 54.0321C22.1684 52.6815 23.3583 51.4595 24.6767 50.334C27.185 48.1795 30.047 46.443 33.1341 45.2532C32.4909 45.3496 31.88 45.4783 31.269 45.639C28.4392 46.4108 25.8343 47.9544 23.4225 49.6266C22.6829 50.1411 21.9433 50.6878 21.2037 51.2344C20.5284 51.7489 19.7887 52.2635 19.2742 52.9709C18.8562 53.5819 18.5346 54.418 18.824 55.1576C18.9527 55.4792 19.2421 55.8008 19.5958 55.9616ZM61.2717 53.9035C60.2427 53.1639 58.9885 52.6815 57.8308 52.167C55.9657 51.3309 54.165 50.4948 52.3321 49.6266C50.5634 48.7905 48.7947 47.9865 46.9939 47.1826C46.8974 47.1826 46.801 47.1826 46.7045 47.1183C44.8394 46.1536 42.7491 45.5104 40.7232 44.803C39.0189 44.5135 37.3145 44.8994 35.6745 45.3818C34.0666 45.8641 32.523 46.4751 31.0116 47.2148C28.0853 48.694 25.4163 50.6878 23.1653 53.0674C22.5865 53.6784 22.0076 54.3215 21.493 54.9968C21.2358 55.3184 20.9786 55.6721 20.7213 56.0259C20.4962 56.3475 20.3033 56.669 20.1103 57.0227C20.1103 57.0549 20.0782 57.0549 20.0782 57.0871C19.7566 57.7624 19.5958 58.5985 20.046 59.2416C20.5926 60.0134 21.5575 59.6597 22.2328 59.3381C23.6477 58.7271 24.9018 57.8588 25.9309 56.7012C26.4454 56.1223 26.8312 55.447 27.2814 54.8039C27.5065 54.5145 27.7316 54.2572 27.9889 54C30.658 49.7873 35.16 46.4108 40.2731 46.443C40.884 46.443 40.884 47.4077 40.2731 47.4077C39.6299 47.4077 38.9866 47.4399 38.3756 47.5685C36.3819 47.9222 34.549 48.7905 32.9411 49.9803C31.2368 51.2344 29.7897 52.8745 28.6642 54.6753C28.0211 55.7043 27.5066 56.7976 27.0885 57.9231C26.8634 58.5341 26.6704 59.1773 26.5418 59.7883C26.4132 60.3993 26.2202 61.1067 26.3488 61.7177C26.6704 63.4221 28.7929 62.0715 29.5003 61.4283C31.3333 59.724 31.7835 57.1192 33.327 55.1898C34.1953 54.1286 35.5781 53.0352 37.0573 53.2603C38.1185 53.4211 39.244 53.9678 40.1123 54.6109C40.5303 54.9325 40.9482 55.3184 41.109 55.8329C41.302 56.4118 41.2056 57.1192 41.0126 57.6659C40.5946 59.0487 39.5655 60.3349 38.2792 60.9781C36.8 61.7177 35.2564 61.364 33.7128 61.5891C32.4587 61.782 30.7865 62.8432 31.1724 64.3546C31.494 65.5444 32.9732 65.8982 34.0344 66.0911C35.7709 66.3805 37.5397 66.4127 39.2761 66.3805C41.0448 66.3484 42.8134 66.1554 44.5499 65.8339C46.2221 65.5123 47.8622 64.9978 49.5665 64.7727C50.8849 64.6119 52.1712 64.6762 53.4254 65.0299C53.747 65.1264 54.0685 65.2229 54.3901 65.3837C54.4544 65.4158 54.4865 65.4158 54.5187 65.448C54.7116 65.3515 54.8724 65.2872 55.0975 65.2229C57.2842 64.5476 59.1493 62.9397 60.2426 60.9459C60.7893 59.9491 61.1753 58.8557 61.3039 57.7302C61.529 56.4761 61.1431 55.1898 61.2717 53.9035Z" fill="black"/>
<path d="M14.066 81.9445L21.655 85.6426C21.0762 86.4144 20.1759 86.9611 19.2112 87.1219C17.5712 87.347 15.8668 86.4787 14.9342 85.096C14.3232 84.1634 14.0339 83.0379 14.066 81.9445ZM34.4216 57.6658C33.8427 57.4728 33.2961 57.9552 32.8781 58.3732C30.2733 61.1066 27.8615 63.9686 25.5783 66.9914C25.1281 66.8306 24.6457 66.702 24.1312 66.6698C22.0732 66.4769 19.9508 67.3451 18.5037 68.8244C16.6064 70.7216 15.6096 73.5836 13.2621 74.9021C11.815 75.7382 9.72471 76.0919 9.30666 77.6998L8.79211 77.539C10.9788 79.0825 13.4229 80.2402 15.8347 81.3657C19.9187 83.2952 24.0347 85.2567 28.1187 87.1862C28.6654 85.0638 27.7649 85.0638 27.2826 82.8449C26.8645 80.8833 28.2474 78.4394 28.6333 76.4778C29.0513 74.3876 29.6301 72.1687 28.8904 70.1428C28.5367 69.2102 27.9258 68.4385 27.154 67.8275C29.5979 65.3835 31.9454 62.8431 34.1964 60.2383C34.518 59.8525 34.8718 59.4344 34.9683 58.9199C35.0648 58.4054 34.9039 57.8587 34.4216 57.6658Z" fill="#003B99"/>
<path d="M8.14817 71.3972C8.0517 71.6223 7.69809 71.6866 7.47299 71.558C7.21573 71.4294 7.18358 71.1399 7.31221 70.8827C8.40556 68.3422 10.5278 66.3163 13.1326 65.3516C13.3898 65.2552 13.6472 65.4481 13.7115 65.6732C13.7758 65.9305 13.615 66.1877 13.3899 66.252C11.0424 67.1846 9.14505 69.0819 8.14817 71.3972ZM0.944959 70.4646C2.6493 66.3485 5.83297 62.9077 9.72401 60.7531C10.8495 60.1421 12.0071 59.6598 13.2291 59.2739C13.808 59.0809 13.5828 58.1484 12.9718 58.3413C8.46975 59.7562 4.51442 62.7469 1.90968 66.6701C1.17006 67.7634 0.559134 68.9532 0.0446166 70.1752C-0.212642 70.7862 0.719858 71.0435 0.944959 70.4646ZM32.5557 76.2851C33.0702 78.5361 33.0058 80.8515 32.2984 83.0382C32.1054 83.617 33.038 83.8743 33.2309 83.2954C33.9705 80.9479 34.0349 78.4396 33.4883 76.0278C33.3596 75.4169 32.4271 75.6741 32.5557 76.2851ZM38.7942 72.0082C40.9809 75.8992 41.4311 80.6585 40.0805 84.9033C39.8876 85.4821 40.8201 85.7394 41.013 85.1605C42.4601 80.6585 41.9457 75.642 39.6303 71.5258C39.3409 70.9791 38.5048 71.4937 38.7942 72.0082Z" fill="black"/>
<path d="M94.7159 3.48093C94.5229 3.28799 94.5551 2.99858 94.7159 2.80564C94.9088 2.61269 95.1982 2.64485 95.3912 2.80564L95.4234 2.83779C95.4555 2.86994 95.4555 2.86995 95.3912 2.80564C95.4234 2.80564 95.4554 2.83779 95.4554 2.83779C95.4876 2.86994 95.5198 2.86994 95.552 2.86994C95.5841 2.90209 95.6163 2.86994 95.5198 2.86994C95.5841 2.86994 95.6485 2.9021 95.7128 2.93425C95.7449 2.93425 95.777 2.93427 95.8092 2.96642C95.7127 2.93427 95.7449 2.96642 95.8092 2.96642C95.8735 2.96642 95.9378 2.96642 95.97 2.96642C96.0021 2.96642 96.0342 2.96642 96.0986 2.96642C95.9699 2.96642 96.0342 2.96642 96.0986 2.96642C96.1629 2.96642 96.2272 2.93425 96.2593 2.93425C96.2915 2.93425 96.3238 2.9021 96.3559 2.9021C96.2594 2.9021 96.2916 2.93426 96.3237 2.9021C96.388 2.86995 96.4202 2.83779 96.4845 2.80564C96.5167 2.80564 96.5489 2.77348 96.5489 2.74132C96.5489 2.74132 96.4524 2.80562 96.5167 2.77347C96.5489 2.74131 96.6131 2.70916 96.6453 2.64485C96.6453 2.64485 96.7096 2.54837 96.6775 2.61268C96.6453 2.677 96.6775 2.61269 96.6775 2.58053C96.7096 2.54837 96.7095 2.51622 96.7417 2.48406C96.7417 2.45191 96.7739 2.4519 96.7739 2.41974C96.7739 2.4519 96.7417 2.45191 96.7417 2.48406C96.7417 2.45191 96.7739 2.38759 96.7739 2.32328C96.7739 2.32328 96.7739 2.22679 96.8061 2.22679C96.8061 2.2911 96.8061 2.32327 96.8061 2.25896V2.22679C96.8061 2.16247 96.8061 2.13032 96.8061 2.066C96.8061 2.00169 96.8061 2.03386 96.8061 2.09817C96.8061 2.06601 96.8061 2.06601 96.8061 2.03385C96.8061 2.0017 96.8061 2.00169 96.8061 1.96953L96.7417 1.7766C96.7417 1.7766 96.806 1.87307 96.7417 1.7766C96.7417 1.74444 96.7097 1.74444 96.7097 1.71228C96.6775 1.64796 96.6453 1.61581 96.6131 1.55149C96.5488 1.45502 96.6774 1.61581 96.6131 1.55149C96.581 1.51934 96.581 1.51933 96.5489 1.48717C96.5167 1.45502 96.4201 1.35856 96.4201 1.35856C96.4201 1.35856 96.5166 1.42286 96.4523 1.39071C96.4202 1.35855 96.3881 1.35854 96.3881 1.32639C96.3559 1.32639 96.3237 1.29424 96.2915 1.29424C96.2594 1.29424 96.2595 1.26207 96.2273 1.26207H96.2593C96.2915 1.26207 96.2915 1.29423 96.2593 1.26207C96.2272 1.26207 96.2273 1.26208 96.1951 1.22992C96.163 1.22992 96.1307 1.19777 96.0986 1.19777C96.0664 1.19777 96.0665 1.19777 96.0343 1.19777C96.0665 1.19777 96.0664 1.19777 96.0986 1.19777H96.0343C96.0022 1.19777 95.9699 1.19777 95.9378 1.19777C95.9056 1.19777 95.9057 1.19777 95.8736 1.19777C95.9057 1.19777 95.9056 1.19777 95.9378 1.19777C95.9056 1.22993 95.8413 1.22992 95.777 1.22992C95.7448 1.22992 95.7449 1.22991 95.7128 1.26207C95.6806 1.29423 95.6806 1.26207 95.745 1.26207C95.745 1.29423 95.6805 1.29424 95.6484 1.29424C95.6162 1.3264 95.5519 1.35856 95.5198 1.35856C95.4233 1.42287 95.5198 1.39071 95.5198 1.35856L95.4554 1.42286C95.4233 1.45501 95.3912 1.48719 95.359 1.51934L95.3268 1.55149C95.359 1.48718 95.3912 1.48719 95.359 1.51934C95.359 1.5515 95.3268 1.55148 95.3268 1.58364C95.2947 1.64796 95.2626 1.68011 95.2304 1.74443C95.2304 1.77659 95.1982 1.77659 95.1982 1.80875C95.1982 1.77659 95.2304 1.77659 95.2304 1.74443L95.1982 1.80875C95.1661 1.87306 95.166 1.93738 95.1338 1.96953C95.1338 2.00169 95.1338 2.0017 95.1338 2.03385C95.1338 1.96954 95.1338 1.93738 95.1338 1.96953C95.1338 2.00169 95.1338 2.03385 95.1338 2.03385C95.1338 2.09817 95.1338 2.16247 95.1338 2.22679C95.1338 2.32326 95.1338 2.19464 95.1338 2.19464C95.1338 2.19464 95.1339 2.25895 95.166 2.29111C95.166 2.32326 95.2625 2.5162 95.1982 2.38758C95.2947 2.64483 95.2625 2.9021 95.0374 3.06289C94.8445 3.19152 94.4907 3.12721 94.3621 2.9021C94.2013 2.51622 94.1371 2.13032 94.2657 1.71228C94.3622 1.35855 94.555 1.00481 94.8445 0.779708C95.3911 0.265191 96.163 0.168723 96.8383 0.522454C97.4493 0.844027 97.8673 1.58365 97.803 2.25896C97.7387 2.99858 97.2562 3.54526 96.5809 3.77036C95.9056 4.05977 95.1982 3.93114 94.7159 3.48093ZM53.9404 10.3304C54.6157 10.9093 55.3232 11.5203 55.9985 12.0991C56.1914 12.2599 56.4808 12.292 56.6738 12.0991C56.8346 11.9062 56.8667 11.5846 56.6738 11.4238C55.9985 10.845 55.2909 10.234 54.6156 9.65515C54.4227 9.49436 54.1334 9.4622 53.9404 9.65515C53.7796 9.81593 53.7475 10.1375 53.9404 10.3304ZM85.5832 36.5065C85.4867 38.5646 85.3903 40.6227 85.2938 42.7129C85.2617 43.3239 86.2264 43.3239 86.2585 42.7129C86.355 40.6548 86.4515 38.5968 86.5479 36.5065C86.5801 35.8955 85.6154 35.8955 85.5832 36.5065Z" fill="black"/>
</svg>
