<svg width="20" height="20" viewBox="0 0 20 20" fill="none" xmlns="http://www.w3.org/2000/svg">
<path d="M2.08337 10.0007C2.08337 6.2687 2.08337 4.40273 3.24274 3.24335C4.40212 2.08398 6.26809 2.08398 10 2.08398C13.732 2.08398 15.598 2.08398 16.7574 3.24335C17.9167 4.40273 17.9167 6.2687 17.9167 10.0007C17.9167 13.7326 17.9167 15.5986 16.7574 16.758C15.598 17.9173 13.732 17.9173 10 17.9173C6.26809 17.9173 4.40212 17.9173 3.24274 16.758C2.08337 15.5986 2.08337 13.7326 2.08337 10.0007Z" stroke="#171717" stroke-width="1.5"/>
<path d="M9.16663 5.83398H14.1666" stroke="#171717" stroke-width="1.5" stroke-linecap="round"/>
<path d="M5.83337 5.83398H6.66671" stroke="#171717" stroke-width="1.5" stroke-linecap="round"/>
<path d="M5.83337 10H6.66671" stroke="#171717" stroke-width="1.5" stroke-linecap="round"/>
<path d="M5.83337 14.166H6.66671" stroke="#171717" stroke-width="1.5" stroke-linecap="round"/>
<path d="M9.16663 10H14.1666" stroke="#171717" stroke-width="1.5" stroke-linecap="round"/>
<path d="M9.16663 14.166H14.1666" stroke="#171717" stroke-width="1.5" stroke-linecap="round"/>
</svg>
