<svg width="20" height="20" viewBox="0 0 20 20" fill="none" xmlns="http://www.w3.org/2000/svg">
<path d="M7.08325 13.7503C7.66544 12.7439 8.75364 12.0667 9.99989 12.0667C11.2462 12.0667 12.3344 12.7439 12.9166 13.7503M11.6666 8.33366C11.6666 9.25416 10.9204 10.0003 9.99997 10.0003C9.07947 10.0003 8.33328 9.25416 8.33328 8.33366C8.33328 7.41318 9.07947 6.66699 9.99997 6.66699C10.9204 6.66699 11.6666 7.41318 11.6666 8.33366Z" stroke="#171717" stroke-width="1.5" stroke-linecap="round"/>
<path d="M18.3333 11.6388V8.36067C15.9527 8.36067 14.4047 5.77502 15.61 3.7221L12.7232 2.08309C11.5031 4.16138 8.49813 4.1613 7.27798 2.08301L4.39123 3.72202C5.59651 5.77497 4.04723 8.36067 1.66663 8.36067V11.6388C4.04719 11.6388 5.59517 14.2244 4.38992 16.2773L7.27667 17.9163C8.49738 15.837 11.5038 15.8369 12.7245 17.9163L15.6113 16.2773C14.4061 14.2243 15.9528 11.6388 18.3333 11.6388Z" stroke="#171717" stroke-width="1.5" stroke-linecap="round" stroke-linejoin="round"/>
</svg>
