<svg width="20" height="20" viewBox="0 0 20 20" fill="none" xmlns="http://www.w3.org/2000/svg">
<path d="M14.1666 9.00375C14.1666 8.71567 14.1666 8.57167 14.21 8.44333C14.336 8.07037 14.6681 7.92563 15.0009 7.77407C15.375 7.60368 15.562 7.51849 15.7473 7.5035C15.9577 7.48648 16.1685 7.53182 16.3483 7.63274C16.5867 7.76653 16.753 8.02078 16.9232 8.22752C17.7094 9.18233 18.1024 9.65983 18.2462 10.1863C18.3623 10.6112 18.3623 11.0555 18.2462 11.4803C18.0365 12.2482 17.3737 12.892 16.8831 13.4878C16.6322 13.7926 16.5067 13.945 16.3483 14.0339C16.1685 14.1348 15.9577 14.1802 15.7473 14.1632C15.562 14.1482 15.375 14.063 15.0009 13.8926C14.6681 13.741 14.336 13.5963 14.21 13.2233C14.1666 13.095 14.1666 12.951 14.1666 12.6629V9.00375Z" stroke="#171717" stroke-width="1.5"/>
<path d="M5.83329 9.00384C5.83329 8.64117 5.82311 8.31518 5.52988 8.06017C5.42323 7.96742 5.28183 7.90301 4.99905 7.77421C4.62497 7.60382 4.43793 7.51863 4.25259 7.50364C3.69655 7.45867 3.39739 7.83818 3.07673 8.22765C2.29058 9.1825 1.89751 9.65992 1.75368 10.1864C1.63761 10.6113 1.63761 11.0557 1.75368 11.4805C1.96346 12.2484 2.62623 12.8921 3.1168 13.488C3.42603 13.8636 3.72143 14.2063 4.25259 14.1633C4.43793 14.1483 4.62497 14.0631 4.99905 13.8928C5.28183 13.7639 5.42323 13.6995 5.52988 13.6068C5.82311 13.3518 5.83329 13.0258 5.83329 12.6631V9.00384Z" stroke="#171717" stroke-width="1.5"/>
<path d="M4.16663 7.5C4.16663 4.73857 6.7783 2.5 9.99996 2.5C13.2216 2.5 15.8333 4.73857 15.8333 7.5" stroke="#171717" stroke-width="1.5" stroke-linecap="square" stroke-linejoin="round"/>
<path d="M15.8334 14.166V14.8327C15.8334 16.3054 14.341 17.4993 12.5 17.4993H10.8334" stroke="#171717" stroke-width="1.5" stroke-linecap="round" stroke-linejoin="round"/>
</svg>
