<svg width="99" height="99" viewBox="0 0 99 99" fill="none" xmlns="http://www.w3.org/2000/svg">
<g filter="url(#filter0_d_372_3133)">
<path d="M77.625 8H21.375C16.1973 8 12 12.1973 12 17.375V73.625C12 78.8027 16.1973 83 21.375 83H77.625C82.8027 83 87 78.8027 87 73.625V17.375C87 12.1973 82.8027 8 77.625 8Z" fill="#003B99"/>
</g>
<mask id="mask0_372_3133" style="mask-type:luminance" maskUnits="userSpaceOnUse" x="37" y="29" width="25" height="33">
<path d="M61.2188 29.875H37.7812V61.125H61.2188V29.875Z" fill="white"/>
</mask>
<g mask="url(#mask0_372_3133)">
<path d="M41.6875 30.5464C40.5889 30.5871 39.6733 30.9737 38.9409 31.7061C38.2085 32.4384 37.8219 33.354 37.7812 34.4526V57.8901C37.8219 58.9888 38.2085 59.9043 38.9409 60.6367C39.6733 61.3691 40.5889 61.7557 41.6875 61.7964H57.3125C58.4111 61.7557 59.3267 61.3691 60.0591 60.6367C60.7915 59.9043 61.178 58.9888 61.2188 57.8901V40.312H53.4062C52.8366 40.312 52.3686 40.1289 52.0024 39.7626C51.6362 39.3965 51.4531 38.9286 51.4531 38.3589V30.5464H41.6875ZM53.4062 30.5464V38.3589H61.2188L53.4062 30.5464ZM41.6875 35.4292C41.7282 34.8189 42.0537 34.4934 42.6641 34.4526H46.5703C47.1807 34.4934 47.5062 34.8189 47.5469 35.4292C47.5062 36.0395 47.1807 36.365 46.5703 36.4058H42.6641C42.0537 36.365 41.7282 36.0395 41.6875 35.4292ZM41.6875 39.3354C41.7282 38.7251 42.0537 38.3996 42.6641 38.3589H46.5703C47.1807 38.3996 47.5062 38.7251 47.5469 39.3354C47.5062 39.9458 47.1807 40.2713 46.5703 40.312H42.6641C42.0537 40.2713 41.7282 39.9458 41.6875 39.3354ZM49.5 43.73C50.1104 43.7707 50.4359 44.0962 50.4766 44.7065V45.7442C51.0055 45.8255 51.4938 45.9273 51.9414 46.0494C52.5111 46.2528 52.7349 46.6597 52.6128 47.27C52.4093 47.8397 52.0228 48.0635 51.4531 47.9414C50.7614 47.738 50.1104 47.6362 49.5 47.6362C48.9303 47.6362 48.4421 47.7583 48.0352 48.0024C47.7096 48.1652 47.5469 48.4093 47.5469 48.7349C47.5062 48.9383 47.6486 49.1418 47.9741 49.3452C48.4217 49.5894 49.0321 49.8131 49.8052 50.0166C50.5376 50.22 51.27 50.5252 52.0024 50.9321C52.8569 51.3797 53.3249 52.1528 53.4062 53.2515C53.3656 54.4315 52.8976 55.286 52.0024 55.8149C51.5142 56.0998 51.0055 56.2829 50.4766 56.3643V57.4019C50.4359 58.0122 50.1104 58.3377 49.5 58.3784C48.8896 58.3377 48.5641 58.0122 48.5234 57.4019V56.3032C47.8317 56.1811 47.201 55.9981 46.6313 55.7539C46.5093 55.7132 46.3872 55.6725 46.2651 55.6318C45.6955 55.3877 45.492 54.9808 45.6548 54.4111C45.8989 53.8822 46.3058 53.6787 46.8755 53.8008C47.0382 53.8415 47.1807 53.8822 47.3027 53.9229C47.3434 53.9229 47.3638 53.9432 47.3638 53.9839C48.1369 54.2687 48.849 54.4315 49.5 54.4722C50.1104 54.4722 50.5986 54.3704 50.9648 54.167C51.2904 53.9635 51.4531 53.6787 51.4531 53.3125C51.4531 53.0277 51.2904 52.7835 50.9648 52.5801C50.5579 52.3359 49.9679 52.1121 49.1948 51.9087L49.1338 51.8477C48.4014 51.6849 47.6893 51.4204 46.9976 51.0542C46.1838 50.6066 45.7158 49.8335 45.5938 48.7349C45.6751 47.5549 46.1634 46.7411 47.0586 46.2935C47.5062 46.0086 47.9945 45.8255 48.5234 45.7442V44.7065C48.5641 44.0962 48.8896 43.7707 49.5 43.73Z" fill="#99F6EC"/>
</g>
<defs>
<filter id="filter0_d_372_3133" x="0" y="0" width="99" height="99" filterUnits="userSpaceOnUse" color-interpolation-filters="sRGB">
<feFlood flood-opacity="0" result="BackgroundImageFix"/>
<feColorMatrix in="SourceAlpha" type="matrix" values="0 0 0 0 0 0 0 0 0 0 0 0 0 0 0 0 0 0 127 0" result="hardAlpha"/>
<feOffset dy="4"/>
<feGaussianBlur stdDeviation="6"/>
<feComposite in2="hardAlpha" operator="out"/>
<feColorMatrix type="matrix" values="0 0 0 0 0.156863 0 0 0 0 0.517647 0 0 0 0 0.937255 0 0 0 0.35 0"/>
<feBlend mode="normal" in2="BackgroundImageFix" result="effect1_dropShadow_372_3133"/>
<feBlend mode="normal" in="SourceGraphic" in2="effect1_dropShadow_372_3133" result="shape"/>
</filter>
</defs>
</svg>
