<svg width="20" height="20" viewBox="0 0 20 20" fill="none" xmlns="http://www.w3.org/2000/svg">
<path d="M1.66663 7.14122C1.66663 6.1444 2.06861 5.53351 2.90048 5.07056L6.32485 3.16486C8.11921 2.16628 9.01638 1.66699 9.99996 1.66699C10.9835 1.66699 11.8807 2.16628 13.675 3.16486L17.0995 5.07056C17.9313 5.53351 18.3333 6.14441 18.3333 7.14122C18.3333 7.41152 18.3333 7.54667 18.3038 7.65778C18.1487 8.24153 17.6197 8.33366 17.1089 8.33366H2.89103C2.38018 8.33366 1.85123 8.24153 1.69614 7.65778C1.66663 7.54667 1.66663 7.41152 1.66663 7.14122Z" stroke="#171717" stroke-width="1.5"/>
<path d="M3.33337 8.33301V15.4163M6.66671 8.33301V15.4163" stroke="#171717" stroke-width="1.5"/>
<path d="M9.16663 15.417H4.16663C2.78592 15.417 1.66663 16.5362 1.66663 17.917C1.66663 18.1471 1.85318 18.3337 2.08329 18.3337H9.16663" stroke="#171717" stroke-width="1.5" stroke-linecap="round"/>
<path d="M17.9167 12.083L12.0834 17.9163" stroke="#171717" stroke-width="1.5" stroke-linecap="round" stroke-linejoin="round"/>
<path d="M12.7084 13.333C13.0536 13.333 13.3334 13.0532 13.3334 12.708C13.3334 12.3628 13.0536 12.083 12.7084 12.083C12.3632 12.083 12.0834 12.3628 12.0834 12.708C12.0834 13.0532 12.3632 13.333 12.7084 13.333Z" stroke="#171717" stroke-width="1.5"/>
<path d="M17.2916 17.917C17.6368 17.917 17.9166 17.6372 17.9166 17.292C17.9166 16.9468 17.6368 16.667 17.2916 16.667C16.9464 16.667 16.6666 16.9468 16.6666 17.292C16.6666 17.6372 16.9464 17.917 17.2916 17.917Z" stroke="#171717" stroke-width="1.5"/>
</svg>
