<svg width="99" height="99" viewBox="0 0 99 99" fill="none" xmlns="http://www.w3.org/2000/svg">
<g filter="url(#filter0_d_372_3103)">
<path d="M77.625 8H21.375C16.1973 8 12 12.1973 12 17.375V73.625C12 78.8027 16.1973 83 21.375 83H77.625C82.8027 83 87 78.8027 87 73.625V17.375C87 12.1973 82.8027 8 77.625 8Z" fill="#003B99"/>
</g>
<mask id="mask0_372_3103" style="mask-type:luminance" maskUnits="userSpaceOnUse" x="37" y="29" width="25" height="33">
<path d="M61.2186 29.875H37.7811V61.125H61.2186V29.875Z" fill="white"/>
</mask>
<g mask="url(#mask0_372_3103)">
<path d="M38.6355 30.6685C39.2052 30.4244 39.7341 30.5057 40.2224 30.9126L42.6638 32.9877L45.1052 30.9126C45.7563 30.4243 46.4073 30.4243 47.0583 30.9126L49.4998 32.9877L51.9412 30.9126C52.5922 30.4243 53.2432 30.4243 53.8943 30.9126L56.3357 32.9877L58.7771 30.9126C59.2653 30.5463 59.7943 30.465 60.364 30.6685C60.893 30.9533 61.1778 31.4009 61.2185 32.0112V60.3315C61.1778 60.9419 60.893 61.3895 60.364 61.6743C59.7943 61.9185 59.2653 61.8371 58.7771 61.4302L56.3357 59.355L53.8943 61.4302C53.2432 61.9185 52.5922 61.9185 51.9412 61.4302L49.4998 59.355L47.0583 61.4302C46.4073 61.9185 45.7563 61.9185 45.1052 61.4302L42.6638 59.355L40.2224 61.4302C39.7341 61.8371 39.2052 61.9185 38.6355 61.6743C38.1065 61.3895 37.8217 60.9419 37.781 60.3315V32.0112C37.8217 31.4009 38.1065 30.9533 38.6355 30.6685ZM43.6404 39.3354C43.03 39.3761 42.7045 39.7017 42.6638 40.312C42.7045 40.9224 43.03 41.2479 43.6404 41.2885H55.3591C55.9694 41.2479 56.295 40.9224 56.3357 40.312C56.295 39.7017 55.9694 39.3761 55.3591 39.3354H43.6404ZM42.6638 52.0308C42.7045 52.6411 43.03 52.9666 43.6404 53.0073H55.3591C55.9694 52.9666 56.295 52.6411 56.3357 52.0308C56.295 51.4204 55.9694 51.0949 55.3591 51.0542H43.6404C43.03 51.0949 42.7045 51.4204 42.6638 52.0308ZM43.6404 45.1948C43.03 45.2355 42.7045 45.561 42.6638 46.1713C42.7045 46.7817 43.03 47.1073 43.6404 47.1479H55.3591C55.9694 47.1073 56.295 46.7817 56.3357 46.1713C56.295 45.561 55.9694 45.2355 55.3591 45.1948H43.6404Z" fill="#99F6EC"/>
</g>
<defs>
<filter id="filter0_d_372_3103" x="0" y="0" width="99" height="99" filterUnits="userSpaceOnUse" color-interpolation-filters="sRGB">
<feFlood flood-opacity="0" result="BackgroundImageFix"/>
<feColorMatrix in="SourceAlpha" type="matrix" values="0 0 0 0 0 0 0 0 0 0 0 0 0 0 0 0 0 0 127 0" result="hardAlpha"/>
<feOffset dy="4"/>
<feGaussianBlur stdDeviation="6"/>
<feComposite in2="hardAlpha" operator="out"/>
<feColorMatrix type="matrix" values="0 0 0 0 0.156863 0 0 0 0 0.517647 0 0 0 0 0.937255 0 0 0 0.35 0"/>
<feBlend mode="normal" in2="BackgroundImageFix" result="effect1_dropShadow_372_3103"/>
<feBlend mode="normal" in="SourceGraphic" in2="effect1_dropShadow_372_3103" result="shape"/>
</filter>
</defs>
</svg>
